<svg xmlns="http://www.w3.org/2000/svg" id="_26075" viewBox="0 0 1190 700"><title>AEZ-UG</title><path fill="#dfdee1" d="M 193.46 383.79 H 171.62 l -0.1 -56.72 H 154 V 184.77 h 17.26 V 167.28 h 50 l 91.34 -0.64 L 312.52 212 l 30.2 0.16 H 369 V 185 h 87.2 v 28.6 h 144 v -14 l -0.2 -13.79 h 74.12 v -29.9 H 869 v 21.7 l 38.3 -0.26 v 71 l 35 -0.2 l 0.4 -34 h 109 V 369.51 l -21.84 -0.24 v 31.25 l -0.18 78.34 h 22.64 v 49.56 H 937.2 V 514.21 H 908.61 l 0.09 25 h -188 L 709.34 527.9 s -63.08 11.44 -79.08 15.44 V 520.81 l -45.77 -0.28 l 0.2 -13.3 v -66.5 h 79.47 v -57 h -67 l -0.07 -55.37 l -36.43 -0.13 h -79 v 20.5 H 444.87 v 10 H 369.66 l 0.29 25.75 H 308.7 Z" /><path fill="#656768" d="M 575 271.65 h 65.52 l 13.88 -13.88 V 235.62 h 0 v -1 h 0 l -0.2 -14.3 v -35 H 599.48 l 0.14 14.85 v 12.94 H 562.34 l 0.27 22.3 H 547.37 l -0.17 36.25 Z m 31 -1 V 253.74 h 11.21 v 16.92 Z m 12.21 -17.91 v -4.28 H 630.8 v 22.2 H 618.16 Z m 35.23 4.57 L 640.1 270.6 h -8.35 V 247.4 H 618.16 l -0.09 -11.94 l 35.32 0.11 Z M 617.18 248 v 4.78 H 606 V 235.52 h 11.08 Z m 35.14 -13.34 L 606 234.48 V 214.14 l 18.93 0.13 V 221 l 28.28 -0.17 l 0.19 13.79 Z m 0.89 -48.27 v 16.3 H 600.65 l -0.16 -16.35 Z m -52.57 17.3 h 52.57 v 16.18 L 626 220 v -6.72 h -0.53 l -19.4 -0.17 h -5.4 Z M 576 214.1 h 29 v 21.34 h 0 V 252.7 h 0 v 1 h 0 v 16.92 H 576 Z m -27.83 56.55 l 0.17 -34.25 H 563.6 l -0.27 -22.3 H 575 v 56.55 Z" /><path fill="#656768" d="M 516 271.93 l 11.57 0.09 h 0 l 13.76 0.11 h 0 V 235.35 h -0.21 l -6.79 -0.95 l -0.14 -21.28 h -52.8 v 58.55 L 516 272 Z m 1 -1 V 235.31 h 10.57 V 271 l -8.15 -0.07 Z m 16.74 -35.63 l 3.68 0.51 l 2.89 0.4 v 34.91 h -2.62 l -9.14 -0.07 V 235.31 Z m -51.38 35.35 V 214.1 h 50.81 l 0.13 20.21 H 516 v 36.62 Z" /><path fill="#656768" d="M 795.59 192.27 l -66.24 -0.14 v 32.72 h -6.09 V 192.21 H 710.89 l -0.2 -36.76 h -37 V 247 l -0.11 -0.07 l -0.41 10.77 l 13.74 13.74 h 13.2 l 12.67 0.19 h 74 a 18.28 18.28 0 0 0 3.39 -0.11 h 0.14 l 5.72 -4.18 Z m -73.4 0.91 V 224.8 h -47.6 V 200.66 h 3.92 l 8.4 -7.6 Z m -47.58 -36.79 h 35 l 0.19 35.75 l -23.29 -0.09 l -8.4 7.6 h -3.54 Z m 25 114.06 H 687.32 l -13.13 -13.14 l 0.38 -9.86 h 25 Z m 13.21 0.19 l -12.18 -0.19 v -23 h 12.18 Z m 16.44 0 H 713.78 v -23.2 h 15.44 Z m -54.64 -24.25 V 225.73 h 54.63 v 20.66 Z M 795 266.77 l -5.31 3.88 H 730.21 v -0.06 h 0 l 0.11 -77.53 h 0 V 193 l 64.28 0.19 l 0.43 73.56 h 0 Z" /><path fill="#656768" d="M 822 271.25 h 6.42 l 0.15 -0.17 c 3.59 -4.11 10.26 -5.43 12.19 -5.74 h 0 l 0.58 -0.12 h 0.42 c 11.4 -2.24 20.89 -0.08 27.43 6.27 A 26.11 26.11 0 0 1 875.82 282 l 0.1 0.37 h 29.5 v 44 h 0 v 1 h 0 l 0.92 56.36 l 0.07 17.06 l 37.42 -0.2 l 86.48 0.37 l -0.07 -31.25 l 21.91 0.24 V 213.64 h -110 l -0.4 34 l -34 0.19 v -71 l -38.3 0.25 V 155.37 H 834 l -0.2 36.83 H 801.6 l -0.2 73.71 v 0.21 l 5.13 5.13 Z m 6 -1 h -5 v -22.6 h 17.76 v 16.67 C 838.93 264.59 832 265.87 828 270.25 Z m 79.4 114 h 36 v 15.41 l -36 0.19 Z m 37 15.4 v -16.4 h -37 l -0.92 -55.81 l 122.74 0.2 l 0.16 72.38 Z m -1.62 -151 l 0.4 -34 h 108 V 369 l -20.84 -0.22 l -0.16 -41.54 v -0.59 l -123.74 -0.2 l -0.07 -77.59 h 1.41 Z m -108 -55.45 l 0.2 -36.83 h 33.51 v 21.7 l 38.3 -0.25 v 70 h -1.41 v 33.55 H 876.66 c -1 -3 -8.48 -22.36 -34.89 -17.26 v -17.5 H 823 V 193.2 Z m -32.2 0 H 822 v 54.45 h 0 v 22.6 H 806.92 l -4.54 -4.54 Z" /><path fill="#656768" d="M 1030.17 478.37 V 455.21 l 0.17 -49.23 H 906.45 l 0.2 27.21 l 0.32 0.12 c 13.45 5.12 14.29 18.9 14.32 21.64 h 0 v 1 h 0 c 0 14.6 -13.1 21.94 -15.66 23.22 h 0 l -0.44 0.26 l -0.45 0.2 h 0 c -1.57 0.77 -7.79 3.29 -17.92 1 a 15.8 15.8 0 0 1 -1.89 -0.81 c -0.61 -0.29 -1.13 -0.54 -1.46 -0.65 a 26.86 26.86 0 0 1 -11.69 -9.92 l -0.14 -0.25 l -19 -0.18 H 823.43 l -27.77 0.28 H 774.08 l 0.38 70.71 H 909.2 l -0.09 -25 H 936.7 V 529 h 116.11 V 478.37 Z M 907.64 432.5 l -0.19 -25.5 h 121.9 l -0.16 48.06 l -71.1 -0.06 h -35.8 C 922.25 452.06 921.36 437.93 907.64 432.5 Z M 794.89 538.79 H 775.46 l -0.37 -68.71 h 20.08 L 795 501.54 Z m 28.54 0 H 795.89 l 0.15 -37.26 l 0.13 -31.45 l 27.26 -0.27 Z m 28.27 0 H 824.43 v -69 h 27.14 l 0.06 30.09 Z m 1 0 l -0.07 -38.91 l -0.06 -30.08 L 871 470 a 27.82 27.82 0 0 0 11.57 9.89 l -2.73 6.72 h 0 V 538.8 Z m 28.11 0 l 0.06 -52 l 2.65 -6.54 l 1 0.45 a 14.8 14.8 0 0 0 2.1 0.88 c 10.49 2.38 16.85 -0.2 18.59 -1.07 l 2.83 5.68 l 0.19 52.54 Z m 171 -10.87 H 937.7 V 513.71 H 909.1 l -0.1 -27.62 V 486 l -2.94 -5.9 c 2.72 -1.37 16.27 -9 16.22 -24.12 l 71.92 0.06 h 35 v 23.33 h 22.64 Z" /><path fill="#656768" d="M 739.2 472.23 h -1 l -28.06 0.64 H 690.57 l 0.26 20.61 l 3.75 0.12 l -0.27 7.14 h 15.16 c 0.06 2.64 -0.36 17.26 -0.67 27.11 v 0.22 l 11.69 11.69 h 47 v -67 l -4.25 -0.56 Z m -43.85 27.51 l 0.27 -7.12 l -3.8 -0.12 l -0.24 -18.64 h 18.09 c -0.11 13.31 -0.17 21.86 -0.2 25.9 H 698.72 Z m 34 1.87 V 538.8 H 721 l -11.12 -11.1 c 0.63 -19.9 0.7 -25.44 0.62 -27.06 v -0.36 h 0 c 0.07 -4.62 0.15 -14.47 0.2 -26.41 l 27.53 -0.62 l 0.24 28.36 Z M 766.6 538.8 H 730.32 V 502.61 h 9.13 l -0.25 -29.37 h 24 l 3.32 0.44 Z" /><path fill="#656768" d="M 683.33 440.14 h 0 v -1.66 h 28.58 l 4.79 -4.79 V 391 h -53 v 49.16 H 583.86 l 0.34 67.08 V 521 l 45.61 0.28 V 544 l 0.63 -0.17 c 6.81 -1.83 51.85 -10.41 52.3 -10.49 l 0.41 -0.08 V 525 H 673.8 l -0.23 -28.4 h 9.82 Z M 664.7 392 h 51 v 41.29 l -4.21 4.21 H 682.32 v 2.66 H 664.67 Z m 7.86 103.63 l 0.25 30.4 h 9.3 v 6.41 c -4.42 0.84 -43.2 8.25 -51.34 10.27 V 520.32 l -45.6 -0.28 v -12.8 l -0.34 -66.08 H 682.3 v 54.47 Z" /><path fill="#656768" d="M 796 441.33 h 55.9 l 19.81 0.11 l 0.15 -0.22 a 33.71 33.71 0 0 1 5.5 -6.36 l 6.57 -3.71 V 392.43 l -53.68 -0.1 H 773.64 v 49 Z m 34.29 -26.51 h 21.1 v 25.51 h -21.1 Z M 883 430.56 L 876.81 434 a 33.32 33.32 0 0 0 -5.62 6.41 l -18.83 -0.1 V 414.82 h 30.58 Z m 0 -37.12 v 20.39 H 830.26 V 393.34 Z m -69.69 -0.1 h 16 v 21.48 h 0 v 25.51 h -16 Z m -17.28 0 h 16.28 v 47 H 796 Z m -21.32 47 v -47 H 795 v 47 Z" /><path fill="#656768" d="M 758.5 460.55 h 10.78 V 449.78 H 758.5 Z m 1 -9.77 h 8.78 v 8.77 H 759.5 Z" /><path fill="#656768" d="M 900 429 V 418.18 H 889.24 V 429 Z m -9.78 -9.78 H 899 V 428 h -8.78 Z" /><path fill="#656768" d="M 870.92 460.35 V 449.58 H 860.14 v 10.77 Z m -9.77 -9.77 h 8.77 v 8.77 h -8.77 Z" /><path fill="#656768" d="M 787.7 328.45 h 0 V 295.62 l -50 -0.59 l 0.12 32.49 v 29 h 49.85 Z m -25.46 -32.13 l 1.12 30.74 H 738.84 l -0.11 -31 Z m 24.46 31.12 l -22.32 -0.18 l -1.13 -30.93 l 23.45 0.28 Z m 0 28 H 738.85 V 328.06 l 22 0.17 l 25.9 0.21 Z" /><path fill="#656768" d="M 858.85 329.78 l -12 2.11 l -5.31 11.49 v 12.55 h 17 L 858.6 385 h 25.65 V 325.92 H 866.11 Z M 883.16 384 H 859.51 l -0.06 -28.07 h 23.71 Z m 0 -57.08 v 28 H 842.45 V 343.7 l 5 -10.91 l 11.58 -2 l 7.26 -3.83 Z" /><path fill="#656768" d="M 568.27 328.76 l 28.32 0.1 l 0.11 55.37 h 67.5 l 29.24 -0.3 l 23.89 0.23 l -0.18 -28.79 l 0.18 -27.54 h 0 v -1 h 0 v -29 L 709.89 291 h -17.1 l -67.63 -0.32 H 588.49 l -2.16 2.16 H 574.18 L 568 296.7 H 551.6 l -18.22 -0.29 H 500.67 l -19 0.3 l -7.4 7.13 l 7.11 8.22 l -0.12 16.75 h 70.32 Z m -86.07 -1 l 0.12 -16.12 l -6.73 -7.78 l 6.44 -6.2 l 18.65 -0.29 v 30.39 Z m 19.47 0 v -30.4 h 16.87 v 30.4 Z M 693.92 383 l -0.08 -27 l 22.31 -0.07 l 0.17 27.28 Z m 22.23 -28.06 l -22.42 0.06 l -0.19 -27 h 22.78 Z m 0.18 -56.65 V 326.9 H 693.54 l -0.13 -19.16 l -0.11 -15.8 h 16.2 Z m -24 -6.28 l 0.17 24.59 l 0.07 10.38 h 0 v 1 h 0 v 0.58 l 0.37 54.45 l -28.72 0.29 H 597.7 l -0.11 -54.37 h 0 l -0.06 -8.75 h 27.58 V 291.62 Z m -68.14 -0.33 v 27.5 H 597.57 l -0.11 -16.26 l -0.08 -11.24 Z m -55.54 5.8 l 5.84 -3.64 h 12.28 l 2.16 -2.16 h 7.48 l 0.17 24.85 v 11.39 l -28 -0.1 Z m -1 30.35 H 551.94 l 0.16 -29.49 v -0.61 h 15.54 Z m -35.24 0 H 519.54 V 297.4 h 12.84 Z m 1 -30.39 l 17.7 0.28 l -0.17 30.11 H 533.38 Z" /><path fill="#656768" d="M 475.4 313.48 l -3.4 -3.83 l -17.67 16 L 426.2 326 H 383.73 l -14.51 14 l -21 3.46 l -0.55 34.15 l 0.44 7.28 h 22.35 l -0.29 -25.75 h 75.28 v -10 h 30.31 Z M 349 384 l -0.39 -6.3 l 0.53 -33.28 L 369 341.14 l 0.06 5.65 l 0.14 12.45 l 0.2 24.76 Z m 41.9 -25.77 H 370.16 l -0.11 -10 l -0.08 -7.51 L 384.14 327 h 6.76 Z m 34.88 -25 l -0.13 25.07 H 392 V 327 h 33.78 Z m 48.92 15 H 444.4 v 10 H 426.7 V 327 l 28 -0.32 L 471.88 311 l 2.52 2.83 l 0.35 34.36 h 0 Z" /><path fill="#656768" d="M 325.2 327.31 l 0.06 -0.56 H 312.69 V 299.84 h 14.78 l 8.23 -8.23 h 6 V 246.76 l -28.92 -0.18 l 0.08 -15.71 l 0.19 -16.38 l 0.06 -48.38 l -91.84 0.65 H 170.79 l 0.36 217.51 h 22.34 l 118.23 0.69 h 31 V 343.53 l -0.44 -0.06 C 323.8 341.15 325.13 327.88 325.2 327.31 Z m 15.47 -79.56 V 290.6 h -5.38 l -8.23 8.23 H 312.69 v -51.3 Z M 193.46 383.29 H 172.12 l -0.36 -198.52 v -17 h 49.48 l 90.83 -0.64 L 312 214.48 l -0.19 16.38 l -0.08 15.72 h -0.06 V 384 Z m 148.18 0.72 h -29 V 327.75 h 11.48 c -0.06 2.7 0.66 14.34 17.47 16.66 Z" /><path fill="#656768" d="M 652 287.75 V 277.4 H 641.68 v 10.35 Z m -9.35 -9.35 H 651 v 8.35 h -8.35 Z" /><path fill="#656768" d="M 608.24 287.75 V 277.4 H 597.88 v 10.35 Z m -9.35 -9.35 h 8.35 v 8.35 h -8.35 Z" /><path fill="#656768" d="M 750.52 384.36 V 362.07 H 737.28 l -0.09 22.29 h 0 v 1 h 0 v 49 l 4.28 7 h 25.91 L 767.2 412 l 0.19 -27.69 Z m -12.24 -21.29 h 11.24 v 21.29 H 738.19 Z m 12.24 22.29 h 15.87 l -0.18 26.25 l -17.37 0.1 l -10.63 0.06 V 385.35 Z M 742 440.42 l -3.84 -6.29 V 412.77 l 10.62 -0.06 l 17.37 -0.1 l 0.18 27.79 Z" /><path fill="#656768" d="M 823 322.08 l -3.56 -4.45 l -2.43 -4 l -2.45 -5.49 l -1 -3.87 l -0.14 -6.28 H 793.34 v 58.45 l 18 0.24 h 24.14 v -26.5 l -5.27 -2.67 l -3.84 -2.3 Z M 794.34 299 h 18.13 l 0.12 5.36 l 1.06 4.09 l 2.53 5.67 l 2.24 3.66 l -7.71 5.69 l -0.32 32.23 l -16 -0.22 Z m 40.17 31.81 v 24.88 H 811.38 L 811.7 324 l 7.29 -5.38 l 3.32 4.15 l 3.45 3.25 l 4 2.4 Z" /><path fill="#656768" d="M 368.23 298.53 l 7.7 7.28 h 73.56 L 475.59 279 l -0.12 -65.85 H 456.66 V 184.49 h -88.2 v 27.17 H 348 V 291.6 h 20.26 Z m 8.09 6.28 l -7.09 -6.71 v -6.47 l 34.83 0.51 v 12.67 Z m 28.73 0 V 292.14 H 430.7 v 12.67 Z m 26.65 0 V 292.14 h 29.67 l -12.31 12.67 Z M 349 290.6 V 212.66 h 20.49 V 185.49 h 86.2 V 214.1 H 474.5 l 0.11 64.45 l -12.24 12.6 H 404.55 l -35.32 -0.51 h -1 Z" /><path fill="#656768" d="M 1052.31 477.37 h -21.14 l 0.18 -76.84 V 370.79 l 20.32 0.22 h 1.52 V 212.64 h -112 v 1.48 l -0.38 32.54 l -32 0.18 v -71 H 907.3 l -36.79 0.25 V 154.37 H 672.62 v 29.94 H 598.47 v 1.53 l 0.17 13.81 V 212.1 h -141 V 183.49 h -90.2 v 27.17 H 342.72 l -28.7 -0.15 l 0.06 -43.9 V 165.1 h -1.51 l -91.34 0.64 H 169.76 v 17.48 H 152.5 v 145.3 H 170 l 0.1 55.22 v 1.5 h 23.34 l 115.23 0.69 h 62.78 v -1.52 l -0.27 -24.23 h 75.27 v -10 h 36.79 v -20.5 h 77.5 l 34.93 0.13 l 0.07 53.87 v 1.5 h 67 v 54 H 583.2 v 68 l -0.2 13.27 V 522 h 1.51 l 44.28 0.27 v 23 l 1.86 -0.47 c 14.81 -3.7 70.94 -14 78.21 -15.28 l 10.83 10.84 l 0.44 0.44 H 910.2 v -1.5 l -0.09 -23.53 H 935.7 V 530 h 118.11 V 477.37 Z M 908.2 538.75 H 720.94 l -11.43 -11.43 h -0.26 c -0.62 0.11 -61.71 11.21 -78.49 15.3 v -22.3 L 585 520 l 0.19 -12.8 v -66 h 79.5 v -58 h -67 l -0.07 -55.36 l -36.93 -0.13 H 481.2 v 20.5 H 444.42 v 10 H 369.16 l 0.29 25.75 H 308.7 l -115.24 -0.69 H 172.12 l -0.1 -56.72 H 154.5 V 185.27 h 17.26 V 167.78 h 49.48 l 90.83 -0.64 L 312 212.5 l 30.7 0.16 h 26.74 V 185.49 h 86.2 V 214.1 h 145 V 199.61 l -0.16 -13.3 h 74.11 v -29.9 H 868.47 v 21.7 l 38.3 -0.25 v 71 l 36 -0.21 l 0.4 -34 h 108 V 369 l -21.84 -0.24 v 31.76 l -0.19 78.84 h 22.64 v 48.55 H 937.7 v -14.2 H 908.1 Z" /><path fill="#656768" d="M 538.24 287.75 V 277.4 H 527.88 v 10.35 Z m -9.35 -9.35 h 8.35 v 8.35 h -8.35 Z" /><polygon id="p62-1" fill="none" points="617.09,235.51 606.01,235.48 605.97,252.74 617.18,252.74 617.18,247.96 617.09,235.51" /><polygon class="shop" id="p62-2" fill="#cfde96" points="178.54,167.75 171.76,167.78 171.76,184.78 172.12,383.29 193.46,383.29 311.69,383.98 311.69,326.75 311.69,258.64 311.69,258.54 311.69,246.57 311.75,246.57 311.82,230.86 312.01,214.48 312.07,167.11 221.24,167.75 178.54,167.75" /><polygon class="shop" id="p62-3" fill="#cfde96" points="575.02,214.1 563.35,214.1 563.62,236.4 548.36,236.4 548.2,270.65 575.02,270.65 575.02,214.1" /><polygon class="shop" id="p62-4" fill="#cfde96" points="312.69,258.54 312.69,298.84 327.05,298.84 335.29,290.6 340.67,290.6 340.67,247.75 312.75,247.58 312.69,258.54" /><polygon class="shop" id="p62-5" fill="#cfde96" points="604.97,253.74 604.97,253.74 604.97,253.29 604.97,252.74 604.97,252.74 605.01,235.47 605.05,214.13 600.16,214.1 576.02,214.1 576.02,270.65 604.97,270.65 604.97,253.74" /><polygon class="shop" id="p62-6" fill="#cfde96" points="516.02,234.31 527.58,234.31 528.58,234.31 533.32,234.31 533.19,214.1 482.38,214.1 482.38,270.65 516.02,270.93 516.02,234.31" /><polygon class="shop" id="p62-7" fill="#cfde96" points="368.23,290.62 368.74,290.62 369.23,290.62 369.23,290.63 404.55,291.14 430.7,291.14 431.7,291.14 462.35,291.14 474.59,278.55 474.47,214.1 455.66,214.1 455.66,185.49 375.73,185.51 369.45,185.49 369.45,212.66 348.97,212.66 348.97,290.6 368.23,290.62 368.23,290.62" /><polygon id="p62-8" fill="#cfde96" points="519.43,270.96 527.58,271.02 527.58,235.31 517.02,235.31 517.02,270.94 519.43,270.96" /><polygon class="shop" id="p62-9" fill="#cfde96" points="519.43,270.96 527.58,271.02 527.58,235.31 517.02,235.31 517.02,270.94 519.43,270.96" /><polygon class="shop" id="p62-10" fill="#cfde96" points="618.17,247.46 631.76,247.42 631.76,270.62 640.12,270.59 653.41,257.3 653.41,235.62 618.09,235.52 618.17,247.46" /><polygon class="shop" id="p62-11" fill="#cfde96" points="653.4,234.62 653.21,220.83 624.94,221 624.98,214.27 606.05,214.14 606.01,234.48 652.32,234.62 653.4,234.62" /><polygon class="shop" id="p62-12" fill="#cfde96" points="605.06,213.1 605.06,213.09 605.56,213.1 606.06,213.1 606.06,213.1 625.46,213.27 625.99,213.28 625.99,213.28 625.95,220 653.21,219.83 653.21,203.65 600.63,203.65 600.66,213.1 605.06,213.1" /><polygon class="shop" id="p62-13" fill="#cfde96" points="678.5,200.66 674.58,200.66 674.59,224.74 688,224.75 722.18,224.77 722.18,193.2 686.91,193.06 678.5,200.66" /><rect class="shop" id="p62-14" fill="#cfde96" x="713.78" y="247.45" width="15.44" height="23.2" /><polygon class="shop" id="p62-85" fill="#cfde96" points="794.61,193.2 730.32,193.06 730.21,270.65 789.72,270.65 795.03,266.77 794.61,193.2" /><polygon class="shop" id="p62-16" fill="#cfde96" points="686.52,192.06 709.81,192.15 709.62,156.4 674.61,156.41 674.58,199.66 678.12,199.66 686.52,192.06" /><polygon class="shop" id="p62-17" fill="#cfde96" points="699.6,270.45 699.6,247.45 674.56,247.45 674.19,257.31 687.33,270.45 699.6,270.45" /><polygon class="shop" id="p62-18" fill="#cfde96" points="700.6,246.45 712.77,246.45 713.77,246.45 729.21,246.45 729.21,225.78 674.59,225.74 674.58,246.45 699.6,246.45 700.6,246.45" /><polygon class="shop" id="p62-19" fill="#cfde96" points="700.6,270.46 712.77,270.64 712.77,247.45 700.6,247.45 700.6,270.46" /><path class="shop" id="p62-20" fill="#cfde96" d="M 823 246.65 h 18.76 v 17.5 c 26.41 -5.1 33.91 14.31 34.89 17.26 h 28.72 V 247.86 h 1.41 v -70 l -38.3 0.25 v -21.7 H 835 l -0.2 36.83 H 823 Z" /><polygon class="shop" id="p62-21" fill="#cfde96" points="907.79,248.86 906.38,248.86 906.45,326.45 1030.19,326.65 1030.19,327.24 1030.35,368.78 1051.19,369 1051.19,214.64 943.21,214.64 942.81,248.66 907.79,248.85 907.79,248.86" /><path class="shop" id="p62-22" fill="#cfde96" d="M 823 270.25 h 5 c 4 -4.38 11 -5.65 12.8 -5.92 V 247.65 H 823 Z" /><polygon class="shop" id="p62-23" fill="#cfde96" points="822.01,270.25 822.01,247.65 822.01,247.65 822.01,193.2 802.58,193.2 802.38,265.71 806.92,270.25 822.01,270.25" /><polygon class="shop" id="p62-24" fill="#cfde96" points="944.42,383.26 944.42,399.66 1029.35,400.03 1029.19,327.65 906.46,327.45 907.37,383.26 944.42,383.26" /><polygon class="shop" id="p62-25" fill="#cfde96" points="907.45,399.85 943.42,399.66 943.42,384.26 907.38,384.26 907.45,399.85" /><polygon class="shop" id="p62-26" fill="#cfde96" points="775.46,538.79 794.88,538.79 795.04,501.54 795.16,470.08 775.09,470.08 775.46,538.79" /><polygon class="shop" id="p62-27" fill="#cfde96" points="851.63,499.89 851.57,469.8 824.42,469.8 824.42,538.79 851.7,538.79 851.63,499.89" /><path class="shop" id="p62-28" fill="#cfde96" d="M 1029.19 456 H 922.29 c 0 15.15 -13.5 22.75 -16.22 24.12 L 909 486 v 0.12 l 0.1 27.62 h 28.6 V 528 h 114.11 V 479.37 h -22.64 Z" /><path class="shop" id="p62-29" fill="#cfde96" d="M 871 470 l -18.47 -0.17 l 0.06 30.08 l 0.07 38.91 h 27.11 V 486.63 h 0 l 2.73 -6.72 A 27.75 27.75 0 0 1 871 470 Z" /><path class="shop" id="p62-30" fill="#cfde96" d="M 908 486.21 l -2.83 -5.68 c -1.74 0.87 -8.09 3.45 -18.59 1.07 a 14.8 14.8 0 0 1 -2.1 -0.88 l -1 -0.45 l -2.65 6.54 l -0.06 52 h 27.39 Z" /><polygon class="shop" id="p62-31" fill="#cfde96" points="796.04,501.53 795.88,538.79 823.42,538.79 823.42,469.81 796.16,470.07 796.04,501.53" /><path class="shop" id="p62-32" fill="#cfde96" d="M 958.09 455 l 71.11 0.06 l 0.16 -48.06 H 907.45 l 0.19 25.52 c 13.72 5.43 14.61 19.55 14.65 22.45 Z" /><polygon class="shop" id="p62-33" fill="#cfde96" points="739.2,473.23 739.45,502.61 730.33,502.61 730.33,538.79 766.58,538.79 766.58,473.67 763.26,473.23 739.2,473.23" /><polygon class="shop" id="p62-34" fill="#cfde96" points="682.33,437.48 711.49,437.48 715.7,433.27 715.7,391.98 664.7,391.98 664.67,440.15 682.33,440.14 682.33,437.48" /><path class="shop" id="p62-35" fill="#cfde96" d="M 672.56 495.61 h 9.82 V 441.14 H 584.86 l 0.34 66.08 V 520 l 45.6 0.28 v 22.4 c 8.14 -2 46.92 -9.43 51.34 -10.27 V 526 h -9.3 Z" /><path class="shop" id="p62-36" fill="#cfde96" d="M 738.2 473.24 l -27.53 0.63 c -0.06 11.94 -0.13 21.79 -0.2 26.41 v 0.36 c 0.08 1.62 0 7.16 -0.62 27.06 l 11.09 11.09 h 8.38 V 501.61 h 9.12 Z" /><path class="shop" id="p62-37" fill="#cfde96" d="M 698.72 499.78 h 10.75 c 0 -4 0.09 -12.59 0.2 -25.9 H 691.58 l 0.24 18.64 l 3.8 0.12 l -0.27 7.12 Z" /><rect class="shop" id="p62-38" fill="#cfde96" x="774.64" y="393.34" width="20.32" height="46.99" /><polygon class="shop" id="p62-39" fill="#cfde96" points="829.26,414.82 829.25,414.82 829.26,393.34 813.24,393.34 813.24,440.33 829.26,440.33 829.26,414.82" /><rect class="shop" id="p62-40" fill="#cfde96" x="795.96" y="393.34" width="16.28" height="46.99" /><polygon class="shop" id="p62-41" fill="#cfde96" points="882.93,393.43 830.26,393.34 830.26,413.82 882.93,413.82 882.93,393.43" /><rect class="shop" id="p62-42" fill="#cfde96" x="830.26" y="414.82" width="21.1" height="25.51" /><rect class="shop" id="p62-43" fill="#cfde96" x="759.5" y="450.78" width="8.78" height="8.77" /><path class="shop" id="p62-44" fill="#cfde96" d="M 852.36 440.33 l 18.83 0.1 a 33.32 33.32 0 0 1 5.62 -6.41 l 6.13 -3.46 V 414.82 H 852.36 Z" /><rect class="shop" id="p62-45" fill="#cfde96" x="890.24" y="419.18" width="8.78" height="8.78" /><rect class="shop" id="p62-46" fill="#cfde96" x="861.14" y="450.58" width="8.77" height="8.77" /><polygon class="shop" id="p62-47" fill="#cfde96" points="738.85,328.06 738.85,355.48 786.69,355.48 786.7,328.44 760.8,328.24 738.85,328.06" /><polygon class="shop" id="p62-48" fill="#cfde96" points="764.38,327.26 786.7,327.44 786.7,296.61 763.25,296.33 764.38,327.26" /><polygon class="shop" id="p62-49" fill="#cfde96" points="749.52,363.07 738.28,363.07 738.19,384.36 749.52,384.36 749.52,363.07" /><polygon class="shop" id="p62-50" fill="#cfde96" points="847.51,332.79 842.47,343.7 842.47,354.94 858.45,354.94 858.45,354.93 859.31,354.94 859.45,354.94 859.45,354.94 883.16,354.96 883.16,326.92 866.36,326.92 859.1,330.76 847.51,332.79" /><polygon class="shop" id="p62-51" fill="#cfde96" points="859.51,384 883.16,384 883.16,355.96 859.45,355.94 859.51,384" /><polygon class="shop" id="p62-52" fill="#cfde96" points="766.39,440.4 766.2,412.61 748.83,412.71 738.21,412.77 738.21,434.12 742.05,440.42 766.39,440.4" /><polygon class="shop" id="p62-53" fill="#cfde96" points="693.3,291.94 693.41,307.74 693.54,326.91 704.77,326.87 716.33,326.83 716.33,298.22 709.5,291.94 693.3,291.94" /><polygon class="shop" id="p62-54" fill="#cfde96" points="692.55,328.49 692.55,327.91 692.55,327.91 692.54,327.21 692.54,326.91 692.54,326.91 692.47,316.53 692.3,291.94 625.16,291.62 625.16,320.12 597.58,320.12 597.63,328.87 597.59,328.87 597.7,383.23 664.2,383.23 692.92,382.94 692.55,328.49" /><polygon class="shop" id="p62-55" fill="#cfde96" points="597.57,319.12 624.16,319.12 624.16,291.61 597.38,291.61 597.46,302.85 597.57,319.12" /><polygon class="shop" id="p62-56" fill="#cfde96" points="693.74,354.93 716.15,354.87 716.33,327.83 704.77,327.87 693.55,327.91 693.74,354.93" /><polygon class="shop" id="p62-57" fill="#cfde96" points="716.33,383.15 716.15,355.88 693.85,355.95 693.92,382.94 716.33,383.15" /><polygon class="shop" id="p62-58" fill="#cfde96" points="552.07,298.24 551.91,327.73 567.62,327.76 567.62,297.63 552.08,297.63 552.07,298.24" /><polygon class="shop" id="p62-59" fill="#cfde96" points="533.38,327.73 550.9,327.73 551.08,297.63 533.38,297.34 533.38,327.73" /><rect class="shop" id="p62-60" fill="#cfde96" x="519.54" y="297.33" width="12.84" height="30.4" /><polygon class="shop" id="p62-61" fill="#cfde96" points="475.59,303.83 482.32,311.61 482.2,327.73 500.67,327.73 500.67,297.34 482.02,297.63 475.59,303.83" /><rect class="shop" id="p62-62" fill="#cfde96" x="501.67" y="297.33" width="16.87" height="30.4" /><polygon class="shop" id="p62-63" fill="#cfde96" points="596.57,319.71 596.55,316.47 596.38,291.61 588.91,291.61 586.75,293.77 574.46,293.77 568.62,297.41 568.62,327.76 596.59,327.86 596.57,319.71" /><polygon class="shop" id="p62-66" fill="#cfde96" points="391.95,358.23 425.7,358.23 425.78,327 391.9,327.03 391.93,342.63 391.95,358.23" /><polygon class="shop" id="p62-67" fill="#cfde96" points="370.05,348.27 370.16,358.23 390.95,358.23 390.93,342.63 390.9,327.03 384.14,327.03 369.96,340.76 370.05,348.27" /><polygon class="shop" id="p62-68" fill="#cfde96" points="349.05,383.98 369.44,383.98 369.17,359.23 369.17,359.23 369.03,346.79 368.97,341.14 349.19,344.4 348.66,377.68 349.05,383.98" /><path class="shop" id="p62-69" fill="#cfde96" d="M 324.17 327.75 H 312.69 V 384 h 29 V 344.4 C 324.83 342.09 324.11 330.45 324.17 327.75 Z" /><rect class="shop" id="p62-70" fill="#cfde96" x="405.06" y="292.14" width="25.65" height="12.67" /><rect class="shop" id="p62-71" fill="#cfde96" x="642.68" y="278.4" width="8.35" height="8.35" /><rect class="shop" id="p62-72" fill="#cfde96" x="598.88" y="278.4" width="8.35" height="8.35" /><polygon class="shop" id="p62-73" fill="#cfde96" points="528.58,235.31 528.58,271.03 537.72,271.11 540.34,271.13 540.31,238.85 540.33,236.22 537.43,235.82 533.76,235.31 528.58,235.31" /><rect class="shop" id="p62-74" fill="#cfde96" x="605.97" y="253.74" width="11.21" height="16.91" /><polygon class="shop" id="p62-75" fill="#cfde96" points="618.18,270.65 630.76,270.62 630.76,248.42 618.18,248.46 618.18,252.74 618.18,270.65" /><polygon class="shop" id="p62-76" fill="#cfde96" points="738.19,385.36 738.21,411.77 748.84,411.71 766.2,411.61 766.39,385.36 750.52,385.36 738.19,385.36" /><polygon class="shop" id="p62-77" fill="#cfde96" points="816.17,314.13 813.65,308.47 812.59,304.38 812.47,299.02 794.34,299.02 794.34,355.49 810.38,355.71 810.7,323.48 818.41,317.79 816.17,314.13" /><path class="shop" id="p62-78" fill="#cfde96" d="M 825.76 326 l -3.45 -3.25 L 819 318.61 L 811.7 324 l -0.31 31.75 h 23.13 V 330.83 l -4.77 -2.42 Z" /><polygon class="shop" id="p62-79" fill="#cfde96" points="653.21,186.35 600.5,186.31 600.65,202.65 653.21,202.65 653.21,186.35" /><polygon class="shop" id="p62-81" fill="#cfde96" points="738.73,296.04 738.84,327.06 763.37,327.06 762.24,296.32 738.73,296.04" /><polygon class="shop" id="p62-82" fill="#cfde96" points="369.23,298.1 376.32,304.81 404.06,304.81 404.06,292.13 369.23,291.63 369.23,298.1" /><polygon class="shop" id="p62-83" fill="#cfde96" points="431.7,292.14 431.7,304.81 449.06,304.81 461.37,292.14 431.7,292.14" /><polygon class="shop" id="p62-84" fill="#cfde96" points="474.75,348.21 474.4,313.87 471.88,311.04 454.65,326.68 426.68,327 426.7,358.21 444.42,358.21 444.42,348.21 474.75,348.21" /><rect class="shop" id="p62-86" fill="#cfde96" x="528.88" y="278.4" width="8.35" height="8.35"  /></svg>