<svg xmlns="http://www.w3.org/2000/svg" id="_26072" data-name=" 26072" viewBox="0 0 1190 700"><title>AEZ-OG</title><g id="floor"><path d="M368.89,99.33v37h24.75l307.07.65v4.54h26v-34h170.5l-.3,16.74,144.8-.68L1042,480.5H898.18v-12h-198V480s-107,9.51-210,60.51l-.13-175H369.19l1.49,223.15,22,.85v18L373.19,629h-43V328H303v11.5H166.18l-6,.08.4-59.09h-17.4L143,121.73l18.68-.23v-5H339.44V99.39l17.64-.06Z" fill="#dfdee1"></path><path d="M810.56,250.88a26,26,0,0,1,26-26c18.39-.1,24,16.1,24,16.1l-8.73,3.2v13.58l8.58,3.38a25.67,25.67,0,0,1-5.36,8.41,30.53,30.53,0,0,1-8.66,5.36l-3.08-5.5H829.68l-3.21,5.47s-8.48-4.65-11-8.54c-1.65-2.51-4.87-10.66-4.87-15.41" fill="#fff"></path><path d="M863.38,406.73a20.5,20.5,0,0,1,41,0c-.07,15.37-11.67,18.51-11.67,18.51l-4.12-1.17-9-.07-4.08,1.46s-12.2-5.46-12.16-18.73" fill="#fff"></path><path d="M523,407.4a20.5,20.5,0,0,1,41,0c-.07,15.37-11.67,18.5-11.67,18.5l-4.12-1.17-9-.07-4.08,1.47s-12.2-5.46-12.16-18.73" fill="#fff"></path><path d="M305.58,279.2a25.71,25.71,0,1,1,25.71,25.71h0a25.71,25.71,0,0,1-25.71-25.71" fill="#fff"></path><rect x="501.81" y="223.12" width="27.52" height="27.52" fill="#fff"></rect><path d="M875.52,426l-.18-.08c-.12-.06-12.5-5.74-12.45-19.19a21,21,0,0,1,35.92-14.8,20.72,20.72,0,0,1,6.09,14.81c0,8.12-3.29,12.84-6,15.38a15.69,15.69,0,0,1-6,3.61h-.13l-4.19-1.19-8.83-.07Zm8.37-39.28a20.07,20.07,0,0,0-20,20h0c0,11.92,10.2,17.46,11.68,18.19l4-1.42,9.21.09,4,1.13c1.24-.4,11.11-4.06,11.18-18a20,20,0,0,0-20-20Z" fill="#575656"></path><path d="M535.12,426.67l-.18-.08c-.12-.06-12.5-5.75-12.45-19.19a21,21,0,0,1,35.92-14.8,20.72,20.72,0,0,1,6.09,14.81c0,8.12-3.29,12.84-6,15.38a15.77,15.77,0,0,1-6,3.61h-.13l-4.19-1.19-8.83-.07Zm8.37-39.28a20.07,20.07,0,0,0-20,20h0c0,11.92,10.2,17.45,11.68,18.19l4-1.43,9.21.09,4,1.13c1.24-.4,11.11-4.06,11.18-18a20,20,0,0,0-20-20Z" fill="#575656"></path><path d="M331.3,305.42a26.21,26.21,0,1,1,26.21-26.21h0A26.24,26.24,0,0,1,331.3,305.42Zm0-51.43a25.21,25.21,0,1,0,25.21,25.21h0A25.24,25.24,0,0,0,331.3,254Z" fill="#575656"></path><path d="M846.22,275.53l-3.15-5.62H830l-3.31,5.64-.43-.23c-.35-.19-8.62-4.76-11.22-8.71-1.74-2.65-5-10.89-5-15.68a26.65,26.65,0,0,1,26.5-26.5h.18c18.4,0,24.29,16.27,24.35,16.44l.16.46-8.87,3.25v12.89L861,260.9l-.17.46a25.89,25.89,0,0,1-5.49,8.6,30.49,30.49,0,0,1-8.82,5.46Zm-16.82-6.67h14.26l3,5.37a29.63,29.63,0,0,0,8.09-5.09,24.82,24.82,0,0,0,5.06-7.77L851.38,258V243.83l8.58-3.15c-1.09-2.59-7.27-15.31-23.22-15.31h-.17a25.64,25.64,0,0,0-25.51,25.5c0,4.54,3.15,12.64,4.79,15.13,2.14,3.26,8.71,7.15,10.44,8.14Z" fill="#575656"></path><path d="M529.83,251.15H501.31V222.62h28.52Zm-27.52-1h26.52V223.62H502.31Z" fill="#575656"></path><path d="M1042.45,481V430.22H1022l-.08-72.54H896.59l.57,25,.32.12a22.76,22.76,0,0,1,7.74,5.53c3.47,3.71,7.51,10.42,7,21.27-.67,15.42-11,20.18-11.07,20.22l-.67.3,4.63,4.63V455l86.66.41V481Zm-136.3-27V434.37l-3.92-3.92a19.19,19.19,0,0,0,5-4.15c2.57-3,5.7-8.24,6.07-16.62.86-19.82-12.83-26.66-15.11-27.66l-.53-23.34H1021l.08,61.81v10.73h20.42V480H992.81V454.46Z" fill="#656768"></path><path d="M895.6,433.3c-7.41,3.14-17.21,1.38-18.17,1.2h-.09a60.18,60.18,0,0,1-5.85-2.15,24.65,24.65,0,0,1-9-6.76l-.15-.19H841.51L814,425.1h-1l-27.74.39H680.54v27.15h18.92v3h3.47v5.83h82.41l27.52.2V469h64.91v-7.49h20.94V438.73L896,433.11ZM681.54,451.65V426.5h17.92v25.11Zm22.39,8.81v-5.83h-3.47V426.5h27.36v34Zm52.37,0H728.8v-34h27.5Zm1,0v-34h27.47v34Zm28.51,0v-34L813,426.1l-.15,34.55ZM840.54,468h-26.7l.15-41.9,27,.27-.44,40.51Zm36.21,0H841.54v-.22l.45-41.4h19.87a25.38,25.38,0,0,0,9.27,6.87c.18.07,4,1.64,5.62,2.1v26.18h0Zm20.94-7.49h-20v-25c2.33.4,10.84,1.59,17.81-1.17l2.13,4.45Z" fill="#656768"></path><path d="M862.94,389.46l.13-.15,3.63-3.37a54.14,54.14,0,0,1,6.3-4.44l.24-.14.49-38.23H763.31l-.15,46.68,77.9-.28h21.66Zm9.81-45.34-.47,36.66L868.53,383l-14.8-18.64H842.15V344.11Zm-10.26,44.34-20.42.07.09-23.16h11.1l13.07,16.46,1.42,1.78-1.59,1.47a36.76,36.76,0,0,0-3.68,3.38Zm-74.35-44.33v44.6l-24,.09.15-44.68ZM801,388.68H789.18V344.13h24l-.64,44.51Zm12.5,0,.64-44.51h27v20.64L841,388.58Z" fill="#656768"></path><path d="M779.18,308.7h1l18.29.07h0l18.23.07.07-29.74v-.21l-9-8.92c-.3-.51-.58-1-.83-1.51h0A25.51,25.51,0,0,1,804.07,258v-.5H735.44l-.4,47,.17,3.82,5.12.11,18.09.13h0Zm36.59-29.4-.06,28.53-17.23-.06V272.51l7.76-3.19c.21.4.44.81.69,1.21Zm-12.69-20.8a26.65,26.65,0,0,0,2.69,9.93l-8.3,3.41v35.93l-17.29-.06V258.5Zm-23.9,0v49.2l-19.76-.14V258.5Zm-38.84,48.92-4.18-.09-.13-2.85.39-46h22v49Z" fill="#656768"></path><path d="M596.41,336.2V300.8h.34v-15h-.11v-28l-41.2-.33h0v28.32h0v1h0V336.2Zm-.77-77.38v27h-39.2V258.5Zm-19.07,41h0v7.42H556.48V286.82h39.25v13Zm18.83,35.4h-39v-27h21.13V300.8h17.83Z" fill="#656768"></path><path d="M342.43,306.75l-42.57.21V251.67h2.53l.29-40.62h0v-.6l.08-11,.76-83.39L161.68,116h-.5l-1.51,224.09,6.5-.09H303.49V328.5H331.1v-5.75h11.31Zm-43.57-55.08v39.55H287.45l.11-39.53h.69Zm2.83-42.42V210H287.84V190.9h13.93Zm.8,129.75H166.18l-5.49.08L162.18,117l140.34.06L301.85,190h-15v21h14.84l-.28,39.62H286.54l-.09,40.83-.09,29.86,16.17.24v6.88h0Zm38.94-17.25h-11.3v5.75H303.51v-6.87l-16.16-.24.08-28.18h11.42V308l42.57-.21Z" fill="#656768"></path><path d="M473.78,248.21h15v-23.5h-15Zm1-22.5h13v21.5h-13Z" fill="#656768"></path><path d="M538.4,281.15h10v-23.5h-10Zm1-22.5h8v21.5h-8Z" fill="#656768"></path><path d="M560.31,224.71h-15v23.5h15Zm-1,22.5h-13v-21.5h13Z" fill="#656768"></path><path d="M727.88,225H678.17v23h49.72Zm-1,22H679.17V226h47.72Z" fill="#656768"></path><path d="M706.69,194.8v.2l17.61,20.83,9.51.12h41.42l36.9-.06h.6l4.84-4.84V133H751.9l-.09,21.58-17.06-.07h-6.46l-1-11.63.14-1.82H700.19L700,169.54h6.85Zm93.62,20V166.64l16.27-.5v44.42l-4.26,4.25ZM776.23,134h40.35v31.19l-17.27.53v49.17H776.23Zm-23.33,0h22.33v80.92H752.58l.36-60.38h-.12Zm-1.32,81H734.81V155.53l17.06.07ZM701,168.54l.15-26.54H726.4l-.06.83,1,12.63h6.39V215l-9-.12-17.07-20.2.19-26.08Z" fill="#656768"></path><path d="M565,425.86c-2.21,4-8.78,6.5-8.9,6.54-11.49,3.81-20.49,2.64-31-4-9-5.69-8.7-21.1-8.7-21.34C517.4,385,532.13,382,532.27,382l.41-.08V366h0v-1h0l-.22-26.77h0l-.25-30.31.33-21.26h0v-1h0v-28h-32.1l-.06,36.61h0v1h0l.11,12.68-.24,42h0l-.1,15h-10.6v41.9h0v1h0l.13,133.44.73-.39c23.68-12.67,67-27.85,67.47-28l.34-.12-.11-53.7h21.26v-33.5H565.19ZM501.52,308.42h29.73l.24,28.82H516V349H501.26Zm0-49.79h30.1v27h-16.9v8.57H501.41Zm14.21,36.61v-8.57h15.89l-.32,20.75H501.52l-.1-12.18ZM517,350V338.23h14.5l.22,26.77H501.15l.1-15Zm-26.45,56.89V366h41.18v15.06c-2.45.67-15.11,5.09-16.31,25.47l-19.67.29Zm.13,132.79-.13-131.79h2.88l22-.32c0,2.86.51,16.23,9.17,21.7,10.7,6.75,19.83,8,31.4,4.29l1.1,4.2.15,74.42c-4.11,1.38-43.8,15.47-66.58,27.5Zm87.69-113v31.53H558.11v-20.5L557,433.25c1.53-.62,6.68-2.91,8.86-6.58Z" fill="#656768"></path><path d="M663.43,448.62l9.58-.24-.51-23.13-29.56.25H585.38v.5s.16,19.31.34,38.61c.09,9.65.19,19.31.27,26.55.09,7.75.12,10.71.26,11.84a.24.24,0,0,0,0,.12h.07c.08.56.2.57.38.59h.45v-.27c1.68-.87,17.27-4.87,27.37-7.35h0l.63-.17h0l.35-.09h0a525.17,525.17,0,0,1,56.09-11.53l.43-.06v-7.53h-8.61V448.62Zm-48.91,46.51c-19.29,4.73-25.4,6.55-27.37,7.36-.16-6.12-.57-51.22-.77-76h28.14ZM672,447.4l-9.56.24v6.44H643.68l-.18-27.59,28-.24Zm-1,30.38v5.66a527.48,527.48,0,0,0-55.52,11.42V426.5h27l.19,28.58h19.74v22.7Z" fill="#656768"></path><path d="M873.77,311.82V289.43l-13.86-16-4.76,4.5-4.51,2.88-1.17.53h0l-3.37,1.52-5.1,1.85-9.8.41v26.65h17.23v25h25.3Zm-22.66-30.08,4.65-3,4.08-3.85,12.93,14.88v21H849.46V282.48Zm-18.88,29.08v-24.7l8.92-.37,5.32-1.93,2-.89v27.88Zm40.53,25h-23.3v-24h23.31Z" fill="#656768"></path><path d="M369.77,377.74H340.46l-.08,14h0v1h0V406h0v15.21H370V406.94h0l-.09-14.21h0Zm-28.32,1h27.32l.09,13H341.38ZM369,420.15H341.4V406.94H369Zm0-14.21H341.41V392.73H368.9Z" fill="#656768"></path><path d="M340.43,365.46l29.25.55V335.63H340.43Zm1-28.83h27.25V365l-27.25-.51Z" fill="#656768"></path><path d="M371,562.75v-1h0l-.18-13.92H340.53l.16,14.68V578H371.1l-.1-15.23Zm-1.18-13.92.17,12.92-14.92.13-13.38.11-.14-13.17ZM370.1,577H341.69V563l13.38-.11,14.93-.13Z" fill="#656768"></path><path d="M370.81,535.13l-.29-43.46H340.69v43.46Zm-29.12-42.46h27.84l.28,41.46H341.69Z" fill="#656768"></path><path d="M370.15,435l-29.94-.06.18,42.73,30-.16Zm-28.76,41.66-.17-40.72h27.94l.27,40.52Z" fill="#656768"></path><path d="M572.09,414.23l33.34.16v-14.7H571.91Zm32.35-13.54v12.7l-31.35-.15-.15-12.54Z" fill="#656768"></path><path d="M822.78,414.16l33.35.16v-14.7H822.79Zm1-13.54h31.34v12.7l-31.35-.15Z" fill="#656768"></path><path d="M418.18,215.62V195.5h6.38V216h19.7l14.93-.37h42.46l27.46.17H578l.36-20.5h7.17l-.14,20.32,22,.07h1l13.11-.19h1l18-1.67.16.26.32-.31.63-.06-.21-.34,13.09-12.46h0l.41-.41.31-.3h0l4-4.05h35.23l-.19-44.82-14.64.12.06-15-29.86-.06v12.36l-.07,2.87H635v6.47l-13.34.19H608.25V143.77H558.06l-.14,20.94-27.81-.11h-1l-27.42.26h-14.1l-13.91-.06h-1l-13.39.57-15.52.13h-26l-28.9-.35.24-29.33h-31.4l.37,28.65H339v51.12h79.24Zm275.25-20.54h-14l.16-42.75,13.65-.11ZM417.18,214.62H394.7v-28h22.48v28Zm41.5,0-14.43.36V166.5l14.55-.12ZM650.8,137.34l27.85.06-.21,54.19v3.52H658.79l-4.23,4.23L650.73,194V152.09l.08-3.37ZM636,152.58h13.7v41.77l4.11,5.71-13,12.41-.38-.61-4.35-7.12V158h0ZM635,205l4.78,7.82-17.41,1.62-.15-32.54-.1-22.66L635,159Zm-26.82-45.77h12.93l.1,22.66.14,32.6-13.11.19V176.6Zm-21.86-14.51h20.85v13.52h0v56.44l-21-.07.13-19.33h0V180.65Zm-1,0v49.56h-8.15L577,214.8H558.92V165.2l.14-20.45Zm-27.47,21v49.1H530.11V165.58ZM529,214.83l-26.93-.17V165.84l26.93-.25Zm-27.93-.17H488V165.84h13.13Zm-27.49-48.84,13.36.06v48.78H473.69Zm-1,48.84h-13l.12-48.28,12.88-.54ZM443.2,215H425.5V194.5h-7.38v-28H443.2Zm-103.31-.38V165.5H359l-.37-28.65H388l-.24,29.32,29.35.36v19.15H393.7v29Z" fill="#656768"></path><path d="M823.83,211.7h0l7,6.48.27-.08,1-.26c1.39-.31,3.36-.61,4.08-.72l.67-.07h.83a31,31,0,0,1,10.08,1.4c.77.27,1.49.56,2.13.86a22.34,22.34,0,0,1,6.67,4.58l.15.17h39.67V292.7h0v1h0l.86,56.3H1042.3V292.5h0l-.13-168.9v-.5l-145.8.68v10H823.68l.14,77.73Zm23.89,5.64-.64-.19a27,27,0,0,0-10.53-1.08h-.43a31.21,31.21,0,0,0-4.3.76l-.73.18-4.7-4.35-1.57-1.45-.08-44.6h23Zm193.59,76.13V349H898.24l-.85-55.3,70.42-.12ZM897.38,124.74l143.8-.67.13,168.4-73.5.12-70.42.12v-168Zm-17.27,10h16.27V223H857.15a24.77,24.77,0,0,0-8.43-5.3v-52h-24l-.06-30.9Z" fill="#656768"></path><path d="M758.2,343.1h-29V331.5h0l-.12-74.27h-92l-33.93.45v78.91h33.93v.62H671.9l27.31-.06h0V363.7l-27,.08h0l-29,.09h0l-28.5.09-25.07-.58H581.8l.09-20H555.8l.25,20.5-.3,18.39.43.06a12.5,12.5,0,0,1,9.34,7l.13.31h24.27l24.71-.12H758.19Zm-30-24.94V331.5h-28V258.24H728Zm-124,17.46V258.7l32.93-.44v77.37Zm33.93.62v-78H671l-.11,78ZM672,315l.08-56.75h27.21v78l-27.31.06Zm-91.08,29.37-.09,19H557l-.23-19Zm8,44.25h-22.6a13.31,13.31,0,0,0-9.54-7.21l.28-17h31.59l.12,10.5Zm.85-13.77-.12-10.47,24.55.56V388.5l-24.28.12Zm25.43,1.82V365l27-.08v23.67h-27Zm28-11.8,28-.08V388.6h-28Zm29-.09,27-.08v24h-27Zm28-.08h.21V336.19h-.16V332.5h28v56.2h-28Zm56.93,24.06h-28V344.1h28Z" fill="#656768"></path><path d="M686.37,396.87v21.2H821.44v-21.2Zm134.07,20.2H687.37v-19.2H820.44Z" fill="#575656"></path><path d="M607.27,418.21h66.86V396.72H607.27Zm1-20.49h64.86v19.49H608.27Z" fill="#575656"></path><path d="M386.88,228.69h-20.8v16.19h20.8v6.5h84.71V222.31H386.88Zm-19.8,15.19V229.69h19.8v14.19Zm20.8-20.56h82.71v27.06H387.88V223.31Z" fill="#575656"></path><path d="M647.22,222.43H562.64v28.82h84.58Zm-1,27.82H563.64V223.43h82.58Z" fill="#575656"></path><path d="M803.07,222.31h-73v29.06h73Zm-1,28.06h-71V223.31h71Z" fill="#575656"></path><path d="M301.76,199.07l20.42.44.23-61.49-20.08.28Zm1.55-59.78L321.4,139l-.22,59.45-18.41-.4Z" fill="#575656"></path><path d="M1043.45,480.5l-.27-356.94V122h-1.51l-143.27.67.27-15.21V106H725.19v34h-23v-4.54h-1.5l-307.07-.65H370.37v-37H357.08l-17.65.06h-1.49V115H160.18v5l-17.2.21H141.5v1.48l.18,158.77V282h17.39l-.39,57.58v1.53h1.53l6-.09H304.49v-11.5h24.18v301h45.16l.45-.49,19.5-21.5.39-.43v-20l-1.44-.06-20.58-.79L370.7,367H488.55l.13,173.51v2.41l2.16-1.07c29.29-14.5,77.93-34.82,143.29-49.26,39.08-8.63,65.92-11.08,66.19-11.1l1.37-.12V470h195v12h146.77ZM699.69,468v11.55c-7.72.76-110.72,11.69-209,60.16L490.54,365H368.68l1.49,223.66v.48l22,.85v17.33L373,628.5H330.69v-301H302.51V339H166.18l-5.49.08.4-59.08h-17.4l-.18-157.78,18.68-.23v-5H339.94V99.89l17.14-.06h11.31v37h25.25l306.57.65V142h27V108H896.68l-.3,16.74,144.81-.68.27,355.93H898.68V468Z" fill="#656768"></path><path d="M473.45,257.69h-3.32l-82.76-.44h0v80.88l107.91.1V257.81Zm0,22.31V258.7l20.78.11v48.43h-20.8Zm-28.54-21.5,27.54.15V279H444.87Zm49.34,78.74L388.33,337V258.19l55.54.35V280h28.54v28.24h21.8Z" fill="#656768"></path><path d="M374.9,258.57l12.42.06v78.5h-7v-14.8h-24.7V305.91c1.23-.9,7-5.67,11.38-18.24a2.25,2.25,0,0,0,.08-1h0c-.44-4.92-1.29-16.62-.44-18.51a8.57,8.57,0,0,0,.52-1.86c.44-2.18,1-4.89,7.74-7.72m-.2-1-.19.08c-7.24,3-7.87,6.16-8.33,8.44a7.49,7.49,0,0,1-.47,1.68c-1,2.28,0,15.1.37,19h0a2.26,2.26,0,0,1,0,.52h0c-4.29,12.36-9.94,17-11,17.76l-.41.3v17.93h24.75v14.8h9v-80.5h-1L375,257.53Z" fill="#656768"></path></g><g id="shops"><polygon id="p68-1" points="472.4 308.19 472.4 279.95 443.87 279.95 443.87 258.49 388.33 258.19 388.34 337.07 494.23 337.23 494.21 308.19 472.4 308.19" fill="#84c2cf" data-enabled="1" class="mapplic-clickable mapplic-location-type--shop"></polygon><polygon id="p68-2" points="458.81 166.37 444.26 166.5 444.26 214.99 458.69 214.64 458.81 166.37" fill="#84c2cf" data-enabled="1" class="mapplic-clickable mapplic-location-type--shop"></polygon><path id="p68-3" d="M906.15,434.37V454l86.66.41V480h48.64V431.22H1021V420.49l-.08-61.81H897.62l.53,23.34c2.29,1,16,7.83,15.11,27.66-.37,8.38-3.5,13.66-6.07,16.62a19.19,19.19,0,0,1-5,4.15Z" fill="#84c2cf" data-enabled="1" class="mapplic-clickable mapplic-location-type--shop"></path><polygon id="p68-4" points="752.82 154.53 752.94 154.53 752.58 214.91 775.23 214.88 775.23 133.95 752.9 133.95 752.82 154.53" fill="#84c2cf" data-enabled="1" class="mapplic-clickable mapplic-location-type--shop"></polygon><polygon id="p68-5" points="799.31 165.67 816.58 165.14 816.58 133.95 776.23 133.95 776.23 214.87 799.31 214.84 799.31 165.67" fill="#84c2cf" data-enabled="1" class="mapplic-clickable mapplic-location-type--shop"></polygon><polygon id="p68-6" points="635.02 159.06 622.19 159.24 622.29 181.91 622.43 214.45 639.85 212.84 635.07 205.02 635.02 159.06" fill="#84c2cf" data-enabled="1" class="mapplic-clickable mapplic-location-type--shop"></polygon><polygon id="p68-7" points="816.58 210.56 816.58 166.14 800.31 166.64 800.31 214.81 812.32 214.81 816.58 210.56" fill="#84c2cf" data-enabled="1" class="mapplic-clickable mapplic-location-type--shop"></polygon><polygon id="p68-8" points="557.92 165.69 530.11 165.58 530.11 214.8 557.92 214.8 557.92 165.69" fill="#84c2cf" data-enabled="1" class="mapplic-clickable mapplic-location-type--shop"></polygon><polygon id="p68-9" points="529.11 165.58 502.18 165.84 502.18 214.63 529.11 214.8 529.11 165.58" fill="#84c2cf" data-enabled="1" class="mapplic-clickable mapplic-location-type--shop"></polygon><polygon id="p68-10" points="487.04 165.84 473.69 165.78 473.69 214.63 487.04 214.63 487.04 165.84" fill="#84c2cf" data-enabled="1" class="mapplic-clickable mapplic-location-type--shop"></polygon><polygon id="p68-11" points="393.7 185.65 417.19 185.65 417.19 166.49 387.83 166.14 388.07 136.82 358.7 136.85 359.07 165.5 339.95 165.5 339.95 214.62 393.7 214.62 393.7 185.65" fill="#84c2cf" data-enabled="1" class="mapplic-clickable mapplic-location-type--shop"></polygon><polygon id="p68-12" points="286.36 321.38 286.44 291.52 286.54 250.69 299.87 250.67 299.87 250.67 301.4 250.67 301.68 211.05 286.84 211.05 286.84 189.95 301.85 189.95 302.52 117.06 162.18 117 160.69 339.08 166.18 339 302.49 339 302.51 328.5 302.51 328.5 302.52 321.62 286.36 321.38" fill="#84c2cf" data-enabled="1" class="mapplic-clickable mapplic-location-type--shop"></polygon><path id="p68-13" d="M387.32,337.13v-78.5l-12.42-.06c-6.74,2.83-7.3,5.54-7.74,7.72a8.57,8.57,0,0,1-.52,1.86c-.85,1.89,0,13.59.44,18.51h0a2.25,2.25,0,0,1-.08,1c-4.36,12.57-10.15,17.34-11.38,18.24v16.42h24.75v14.8Z" fill="#84c2cf" data-enabled="1" class="mapplic-clickable mapplic-location-type--shop"></path><path id="p68-15" d="M557.21,512.13l-.15-74.42-1.1-4.2c-11.57,3.72-20.71,2.46-31.4-4.29-8.66-5.47-9.16-18.84-9.17-21.7l-22,.32h-2.88l.13,131.79C513.45,527.65,553.14,513.56,557.21,512.13Z" fill="#84c2cf" data-enabled="1" class="mapplic-clickable mapplic-location-type--shop"></path><path id="p68-16" d="M587.16,502.49c2-.81,8.08-2.63,27.37-7.36V426.5H586.39C586.59,451.27,587,496.37,587.16,502.49Z" fill="#84c2cf" data-enabled="1" class="mapplic-clickable mapplic-location-type--shop"></path><path id="p68-17" d="M877.74,435.57v25h19.94V438.85l-2.13-4.45C888.58,437.15,880.07,436,877.74,435.57Z" fill="#84c2cf" data-enabled="1" class="mapplic-clickable mapplic-location-type--shop"></path><polygon id="p68-18" points="784.79 443.51 784.77 426.5 757.3 426.5 757.3 460.45 784.8 460.45 784.79 443.51" fill="#84c2cf" data-enabled="1" class="mapplic-clickable mapplic-location-type--shop"></polygon><rect id="p68-19" x="728.81" y="426.5" width="27.49" height="33.96" fill="#84c2cf" data-enabled="1" class="mapplic-clickable mapplic-location-type--shop"></rect><polygon id="p68-20" points="700.45 452.61 700.45 454.62 703.92 454.62 703.92 460.45 727.8 460.45 727.81 426.5 700.45 426.5 700.45 452.61" fill="#84c2cf" data-enabled="1" class="mapplic-clickable mapplic-location-type--shop"></polygon><polygon id="p68-21" points="855.76 278.77 851.11 281.74 849.46 282.48 849.46 310.81 872.77 310.81 872.77 289.8 859.84 274.92 855.76 278.77" fill="#84c2cf" data-enabled="1" class="mapplic-clickable mapplic-location-type--shop"></polygon><polygon id="p68-22" points="556.45 286.82 556.45 307.18 566.53 307.2 576.58 307.22 576.58 299.8 576.58 299.8 595.75 299.8 595.75 286.85 558.02 286.82 556.45 286.82" fill="#84c2cf" data-enabled="1" class="mapplic-clickable mapplic-location-type--shop"></polygon><polygon id="p68-23" points="841.15 364.76 841.13 344.13 814.1 344.13 813.45 388.64 841.06 388.54 841.15 364.76" fill="#84c2cf" data-enabled="1" class="mapplic-clickable mapplic-location-type--shop"></polygon><polygon id="p68-24" points="637.11 258.26 604.18 258.7 604.18 335.63 637.11 335.63 637.11 258.26" fill="#84c2cf" data-enabled="1" class="mapplic-clickable mapplic-location-type--shop"></polygon><polygon id="p68-25" points="758.42 307.55 758.42 258.5 736.43 258.5 736.04 304.47 736.17 307.32 740.35 307.42 758.42 307.55" fill="#84c2cf" data-enabled="1" class="mapplic-clickable mapplic-location-type--shop"></polygon><polygon id="p68-26" points="759.42 258.5 759.42 307.56 779.18 307.7 779.18 258.5 759.42 258.5" fill="#84c2cf" data-enabled="1" class="mapplic-clickable mapplic-location-type--shop"></polygon><polygon id="p68-27" points="577.58 308.23 577.58 308.23 569.99 308.21 556.45 308.18 556.45 335.2 595.41 335.2 595.41 300.8 577.58 300.8 577.58 308.23" fill="#84c2cf" data-enabled="1" class="mapplic-clickable mapplic-location-type--shop"></polygon><polygon id="p68-28" points="341.69 563 341.69 576.98 370.09 576.98 370 562.75 355.07 562.88 341.69 563" fill="#84c2cf" data-enabled="1"></polygon><polygon id="p68-29" points="679.6 152.37 679.44 195.12 693.43 195.08 693.25 152.26 679.6 152.37" fill="#84c2cf" data-enabled="1" class="mapplic-clickable mapplic-location-type--shop"></polygon><polygon id="p68-30" points="298.87 292.22 287.44 292.22 287.36 320.4 303.53 320.63 303.51 327.5 330.13 327.5 330.13 321.75 341.44 321.75 341.44 307.75 298.87 307.96 298.87 292.22" fill="#84c2cf" data-enabled="1" class="mapplic-clickable mapplic-location-type--shop"></polygon><polygon id="p68-31" points="514.68 285.67 531.58 285.67 531.58 258.63 501.48 258.63 501.41 294.24 514.68 294.24 514.68 285.67" fill="#84c2cf" data-enabled="1" class="mapplic-clickable mapplic-location-type--shop"></polygon><path id="p68-32" d="M876.74,461.53h0V435.35c-1.62-.46-5.44-2-5.62-2.1a25.38,25.38,0,0,1-9.27-6.87H842l-.45,41.4V468h35.21Z" fill="#84c2cf" data-enabled="1" class="mapplic-clickable mapplic-location-type--shop"></path><path id="p68-33" d="M566.31,388.63h22.6l-.15-13.75-.12-10.5H557l-.28,17A13.28,13.28,0,0,1,566.31,388.63Z" fill="#84c2cf" data-enabled="1" class="mapplic-clickable mapplic-location-type--shop"></path><path id="p68-34" d="M866.14,385.09l1.59-1.47-1.42-1.78-13.07-16.46h-11.1l-.09,23.16,20.42-.07A35.59,35.59,0,0,1,866.14,385.09Z" fill="#84c2cf" data-enabled="1" class="mapplic-clickable mapplic-location-type--shop"></path><polygon id="p68-35" points="287.45 291.22 298.87 291.22 298.87 251.67 288.25 251.69 287.56 251.69 287.45 291.22" fill="#84c2cf" data-enabled="1" class="mapplic-clickable mapplic-location-type--shop"></polygon><rect id="p68-36" x="474.78" y="225.71" width="13" height="21.5" fill="#84c2cf" data-enabled="1"></rect><rect id="p68-37" x="539.4" y="258.65" width="8" height="21.5" fill="#84c2cf" data-enabled="1" class="mapplic-clickable mapplic-location-type--shop"></rect><rect id="p68-38" x="546.31" y="225.71" width="13" height="21.5" fill="#84c2cf" data-enabled="1" class="mapplic-clickable mapplic-location-type--shop"></rect><rect id="p68-39" x="679.17" y="225.96" width="47.72" height="21" fill="#84c2cf" data-enabled="1" class="mapplic-clickable mapplic-location-type--shop"></rect><polygon id="p68-40" points="897.39 293.7 898.24 349 1041.31 348.96 1041.31 293.46 967.81 293.58 897.39 293.7" fill="#84c2cf" data-enabled="1" class="mapplic-clickable mapplic-location-type--shop"></polygon><polygon id="p68-41" points="707.69 194.62 724.76 214.82 733.81 214.93 733.79 194.95 733.75 155.46 727.37 155.46 726.34 142.83 726.4 142 701.18 142 701.03 168.54 707.88 168.54 707.69 194.62" fill="#84c2cf" data-enabled="1" class="mapplic-clickable mapplic-location-type--shop"></polygon><path id="p68-42" d="M556.91,433.18l1.16,4.46v20.5h20.26V426.63h-12.6C563.59,430.26,558.44,432.56,556.91,433.18Z" fill="#84c2cf" data-enabled="1" class="mapplic-clickable mapplic-location-type--shop"></path><polygon id="p68-43" points="785.8 460.46 812.84 460.66 812.98 426.1 785.77 426.49 785.79 443.5 785.8 460.46" fill="#84c2cf" data-enabled="1" class="mapplic-clickable mapplic-location-type--shop"></polygon><polygon id="p68-44" points="813.84 468 840.54 468 840.55 466.88 840.99 426.37 813.98 426.1 813.84 468" fill="#84c2cf" data-enabled="1" class="mapplic-clickable mapplic-location-type--shop"></polygon><polygon id="p68-45" points="681.54 451.65 699.45 451.61 699.45 426.5 681.54 426.5 681.54 451.65" fill="#84c2cf" data-enabled="1" class="mapplic-clickable mapplic-location-type--shop"></polygon><polygon id="p68-46" points="671.52 426.25 643.5 426.5 643.68 454.08 662.43 454.08 662.43 447.64 671.99 447.4 671.52 426.25" fill="#84c2cf" data-enabled="1" class="mapplic-clickable mapplic-location-type--shop"></polygon><polygon id="p68-47" points="638.11 336.25 670.94 336.25 671.04 258.25 638.11 258.25 638.11 336.25" fill="#84c2cf" data-enabled="1" class="mapplic-clickable mapplic-location-type--shop"></polygon><polygon id="p68-48" points="472.4 258.64 444.87 258.5 444.87 278.95 472.4 278.95 472.4 258.64" fill="#84c2cf" data-enabled="1" class="mapplic-clickable mapplic-location-type--shop"></polygon><polygon id="p68-49" points="636.02 152.58 636.07 158.04 636.07 158.04 636.07 158.54 636.07 204.74 640.42 211.86 640.8 212.47 653.83 200.06 649.73 194.35 649.73 152.58 636.02 152.58" fill="#84c2cf" data-enabled="1" class="mapplic-clickable mapplic-location-type--shop"></polygon><polygon id="p68-50" points="621.19 159.25 608.25 159.25 608.28 176.61 608.33 214.69 621.43 214.51 621.29 181.91 621.19 159.25" fill="#84c2cf" data-enabled="1" class="mapplic-clickable mapplic-location-type--shop"></polygon><polygon id="p68-51" points="459.69 214.62 472.69 214.63 472.69 165.8 459.81 166.35 459.69 214.62" fill="#84c2cf" data-enabled="1" class="mapplic-clickable mapplic-location-type--shop"></polygon><path id="p68-52" d="M515.42,406.53c1.19-20.38,13.85-24.8,16.31-25.47V366H490.55v40.89l5.2-.08Z" fill="#84c2cf" data-enabled="1" class="mapplic-clickable mapplic-location-type--shop"></path><polygon id="p68-53" points="473.4 279.95 473.4 307.19 494.21 307.19 494.19 258.76 473.4 258.65 473.4 279.95" fill="#84c2cf" data-enabled="1" class="mapplic-clickable mapplic-location-type--shop"></polygon><rect id="p68-54" x="849.46" y="311.82" width="23.31" height="23.95" fill="#84c2cf" data-enabled="1" class="mapplic-clickable mapplic-location-type--shop"></rect><polygon id="p68-55" points="368.77 378.74 341.45 378.74 341.38 391.73 368.86 391.73 368.77 378.74" fill="#84c2cf" data-enabled="1" class="mapplic-clickable mapplic-location-type--shop"></polygon><polygon id="p68-56" points="368.69 336.63 341.44 336.63 341.44 364.48 368.69 364.99 368.69 336.63" fill="#84c2cf" data-enabled="1" class="mapplic-clickable mapplic-location-type--shop"></polygon><polygon id="p68-57" points="501.52 307.42 531.25 307.42 531.57 286.67 515.68 286.67 515.68 295.24 501.42 295.24 501.52 307.42" fill="#84c2cf" data-enabled="1" class="mapplic-clickable mapplic-location-type--shop"></polygon><path id="p68-58" d="M662.43,455.08H642.69l-.19-28.58h-27v68.36A527.12,527.12,0,0,1,671,483.44v-5.66h-8.61Z" fill="#84c2cf" data-enabled="1" class="mapplic-clickable mapplic-location-type--shop"></path><polygon id="p68-59" points="589.91 388.62 614.18 388.5 614.18 376.67 614.18 364.95 589.63 364.39 589.75 374.86 589.91 388.62" fill="#84c2cf" data-enabled="1" class="mapplic-clickable mapplic-location-type--shop"></polygon><polygon id="p68-60" points="842.15 364.38 853.73 364.38 868.53 383.02 872.28 380.78 872.74 344.12 842.13 344.13 842.15 364.38" fill="#84c2cf" data-enabled="1" class="mapplic-clickable mapplic-location-type--shop"></polygon><rect id="p68-61" x="488.04" y="165.84" width="13.13" height="48.78" fill="#84c2cf" data-enabled="1" class="mapplic-clickable mapplic-location-type--shop"></rect><polygon id="p68-62" points="658.79 195.13 678.44 195.13 678.45 191.61 678.66 137.41 650.81 137.35 650.81 148.72 650.73 152.09 650.73 194.03 654.56 199.35 658.79 195.13" fill="#84c2cf" data-enabled="1" class="mapplic-clickable mapplic-location-type--shop"></polygon><polygon id="p68-63" points="341.54 548.83 341.68 562 355.06 561.88 369.99 561.75 369.82 548.83 341.54 548.83" fill="#84c2cf" data-enabled="1" class="mapplic-clickable mapplic-location-type--shop"></polygon><polygon id="p68-64" points="369.53 492.67 341.69 492.67 341.69 534.13 369.81 534.13 369.53 492.67" fill="#84c2cf" data-enabled="1" class="mapplic-clickable mapplic-location-type--shop"></polygon><polygon id="p68-65" points="369.42 476.52 369.15 436 341.21 435.95 341.39 476.67 369.42 476.52" fill="#84c2cf" data-enabled="1" class="mapplic-clickable mapplic-location-type--shop"></polygon><polygon id="p68-66" points="580.88 344.38 556.82 344.38 557.05 363.38 580.8 363.38 580.88 344.38" fill="#84c2cf" data-enabled="1" class="mapplic-clickable mapplic-location-type--shop"></polygon><polygon id="p68-67" points="425.56 215.01 443.26 215.01 443.26 166.5 418.19 166.5 418.19 185.65 418.19 194.5 425.56 194.5 425.56 215.01" fill="#84c2cf" data-enabled="1" class="mapplic-clickable mapplic-location-type--shop"></polygon><polygon id="p68-68" points="573.07 413.23 604.43 413.38 604.43 400.69 572.92 400.69 573.07 413.23" fill="#84c2cf" data-enabled="1" class="mapplic-clickable mapplic-location-type--shop"></polygon><polygon id="p68-69" points="855.13 400.62 823.79 400.62 823.78 413.16 855.13 413.31 855.13 400.62" fill="#84c2cf" data-enabled="1" class="mapplic-clickable mapplic-location-type--shop"></polygon><polygon id="p68-70" points="734.77 175.25 734.81 214.94 751.58 214.91 751.81 155.53 734.75 155.46 734.77 175.25" fill="#84c2cf" data-enabled="1" class="mapplic-clickable mapplic-location-type--shop"></polygon><polygon id="p68-71" points="595.64 285.85 595.64 258.82 556.45 258.5 556.45 285.82 577.23 285.84 595.64 285.85" fill="#84c2cf" data-enabled="1" class="mapplic-clickable mapplic-location-type--shop"></polygon><polygon id="p68-72" points="394.7 214.62 417.19 214.62 417.19 195.5 417.19 186.65 394.7 186.65 394.7 214.62" fill="#84c2cf" data-enabled="1" class="mapplic-clickable mapplic-location-type--shop"></polygon><polygon id="p68-73" points="848.46 282.93 846.47 283.83 841.15 285.75 832.23 286.12 832.23 310.81 848.46 310.81 848.46 282.93" fill="#84c2cf" data-enabled="1" class="mapplic-clickable mapplic-location-type--shop"></polygon><polygon id="p68-74" points="301.69 210.05 301.69 209.25 301.77 190.95 287.84 190.95 287.84 210.05 301.69 210.05" fill="#84c2cf" data-enabled="1" class="mapplic-clickable mapplic-location-type--shop"></polygon><polygon id="p68-75" points="368.95 405.94 368.87 392.73 341.37 392.73 341.41 405.94 368.95 405.94" fill="#84c2cf" data-enabled="1" class="mapplic-clickable mapplic-location-type--shop"></polygon><polygon id="p68-76" points="369.05 420.15 368.96 406.94 341.41 406.94 341.45 420.15 369.05 420.15" fill="#84c2cf" data-enabled="1" class="mapplic-clickable mapplic-location-type--shop"></polygon><polygon id="p68-77" points="577.34 194.3 585.49 194.3 585.44 172.12 585.39 144.74 559.06 144.75 558.92 165.2 558.92 214.8 576.97 214.8 577.34 194.3" fill="#84c2cf" data-enabled="1" class="mapplic-clickable mapplic-location-type--shop"></polygon><polygon id="p68-78" points="586.46 180.66 586.49 195.3 586.48 195.3 586.35 214.63 607.33 214.7 607.29 189.03 607.25 158.25 607.25 158.25 607.24 144.73 586.39 144.74 586.46 180.66" fill="#84c2cf" data-enabled="1" class="mapplic-clickable mapplic-location-type--shop"></polygon><path id="p68-79" d="M824.69,134.75l.06,30.9h24v52.06a24.77,24.77,0,0,1,8.43,5.3h39.24v-88.3H880.15Z" fill="#84c2cf" data-enabled="1" class="mapplic-clickable mapplic-location-type--shop"></path><polygon id="p68-80" points="1041.31 292.46 1041.18 124.07 897.38 124.74 897.38 133.71 897.38 224.01 897.38 292.7 967.81 292.58 1041.31 292.46" fill="#84c2cf" data-enabled="1" class="mapplic-clickable mapplic-location-type--shop"></polygon><path id="p68-81" d="M831.83,216.88a31.21,31.21,0,0,1,4.3-.76h.43a27,27,0,0,1,10.53,1.08l.64.19V166.65h-23l.08,44.6,1.57,1.45,4.7,4.35Z" fill="#84c2cf" data-enabled="1" class="mapplic-clickable mapplic-location-type--shop"></path><polygon id="p68-82" points="531.5 338.23 517 338.23 517 350 501.25 350 501.15 365 531.72 365 531.5 338.23" fill="#84c2cf" data-enabled="1" class="mapplic-clickable mapplic-location-type--shop"></polygon><polygon id="p68-83" points="516 337.23 531.49 337.23 531.25 308.42 501.52 308.42 501.26 349 516 349 516 337.23" fill="#84c2cf" data-enabled="1" class="mapplic-clickable mapplic-location-type--shop"></polygon><polygon id="p68-84" points="699.25 364.7 672.23 364.79 672.23 388.6 699.25 388.65 699.25 364.7" fill="#84c2cf" data-enabled="1" class="mapplic-clickable mapplic-location-type--shop"></polygon><polygon id="p68-85" points="671.23 364.79 643.19 364.87 643.19 388.55 671.23 388.6 671.23 364.79" fill="#84c2cf" data-enabled="1" class="mapplic-clickable mapplic-location-type--shop"></polygon><polygon id="p68-86" points="615.18 376.67 615.18 388.5 642.19 388.55 642.19 364.88 615.18 364.96 615.18 376.67" fill="#84c2cf" data-enabled="1" class="mapplic-clickable mapplic-location-type--shop"></polygon><polygon id="p68-87" points="757.2 344.1 729.22 344.1 729.22 388.71 757.18 388.76 757.2 344.1" fill="#84c2cf" data-enabled="1" class="mapplic-clickable mapplic-location-type--shop"></polygon><polygon id="p68-88" points="699.25 332.5 699.25 331.5 699.25 258.24 672.04 258.25 671.97 315 671.94 336.25 699.25 336.19 699.25 332.5" fill="#84c2cf" data-enabled="1" class="mapplic-clickable mapplic-location-type--shop"></polygon><polygon id="p68-89" points="728.19 318.17 728.08 258.23 700.25 258.24 700.25 331.5 728.19 331.5 728.19 318.17" fill="#84c2cf" data-enabled="1" class="mapplic-clickable mapplic-location-type--shop"></polygon><polygon id="p68-90" points="700.25 388.65 728.22 388.71 728.22 343.6 728.19 332.5 700.25 332.5 700.25 336.19 700.41 336.19 700.46 364.7 700.25 364.7 700.25 388.65" fill="#84c2cf" data-enabled="1" class="mapplic-clickable mapplic-location-type--shop"></polygon><path id="p68-91" d="M780.19,258.5v49.2l17.29.06V271.84l8.3-3.41a26.65,26.65,0,0,1-2.69-9.93Z" fill="#84c2cf" data-enabled="1" class="mapplic-clickable mapplic-location-type--shop"></path><path id="p68-92" d="M806.23,269.32l-7.76,3.19v35.26l17.23.06.06-28.53-8.85-8.76C806.67,270.13,806.45,269.72,806.23,269.32Z" fill="#84c2cf" data-enabled="1" class="mapplic-clickable mapplic-location-type--shop"></path><polygon id="p68-93" points="788.13 344.13 764.31 344.13 764.16 388.81 788.13 388.73 788.13 344.13" fill="#84c2cf" data-enabled="1" class="mapplic-clickable mapplic-location-type--shop"></polygon><polygon id="p68-94" points="812.45 388.64 813.1 344.13 789.13 344.13 789.13 388.72 800.95 388.68 812.45 388.64" fill="#84c2cf" data-enabled="1" class="mapplic-clickable mapplic-location-type--shop"></polygon><rect id="p68-95" x="367.08" y="229.69" width="19.8" height="14.19" fill="#84c2cf" data-enabled="1" class="mapplic-clickable mapplic-location-type--shop"></rect></g><g id="service-targets"><rect id="p68-10000" x="317.2" y="265.1" width="28.2" height="28.2" rx="5" ry="5" fill="#fff" data-enabled="1"></rect><rect id="p68-10001" x="509.78" y="222.78" width="28.2" height="28.2" rx="5" ry="5" fill="#fff" data-enabled="1"></rect><rect id="p68-10002" x="529.3" y="392.87" width="28.2" height="28.2" rx="5" ry="5" fill="#fff" data-enabled="1"></rect><rect id="p68-10003" x="869.79" y="392.87" width="28.2" height="28.2" rx="5" ry="5" fill="#fff" data-enabled="1"></rect><rect id="p68-10004" x="822.63" y="236.79" width="28.2" height="28.2" rx="5" ry="5" fill="#fff" data-enabled="1"></rect><rect id="p68-10005" x="659.67" y="201.41" width="28.2" height="28.2" rx="5" ry="5" fill="#fff" data-enabled="1"></rect><rect id="p68-10006" x="910.07" y="109.46" width="28.2" height="28.2" rx="5" ry="5" fill="#fff" data-enabled="1" class="mapplic-clickable mapplic-location-type--elevator"></rect><rect id="p68-10007" x="861.12" y="125.75" width="28.2" height="28.2" rx="5" ry="5" fill="#fff" data-enabled="1" class="mapplic-clickable mapplic-location-type--elevator"></rect><rect id="p68-10008" x="823.24" y="269.6" width="28.2" height="28.2" rx="5" ry="5" fill="#fff" data-enabled="1" class="mapplic-clickable mapplic-location-type--elevator"></rect><rect id="p68-10009" x="648.57" y="452.4" width="28.2" height="28.2" rx="5" ry="5" fill="#fff" data-enabled="1" class="mapplic-clickable mapplic-location-type--elevator"></rect><rect id="p68-10010" x="149.06" y="222.68" width="28.2" height="28.2" rx="5" ry="5" fill="#fff" data-enabled="1" class="mapplic-clickable mapplic-location-type--elevator"></rect><rect id="p68-10011" x="356.37" y="79.68" width="28.2" height="28.2" rx="5" ry="5" fill="#fff" data-enabled="1" class="mapplic-clickable mapplic-location-type--elevator"></rect><rect id="p68-10012" x="945.83" y="412.57" width="28.2" height="28.2" rx="5" ry="5" fill="#fff" data-enabled="1" class="mapplic-clickable mapplic-location-type--service"></rect><rect id="p68-10013" x="978.99" y="445.3" width="28.2" height="28.2" rx="5" ry="5" fill="#fff" data-enabled="1" class="mapplic-clickable mapplic-location-type--service"></rect><rect id="p68-10014" x="945.79" y="445.3" width="28.2" height="28.2" rx="5" ry="5" fill="#fff" data-enabled="1" class="mapplic-clickable mapplic-location-type--service"></rect><rect id="p68-10015" x="912.86" y="445.28" width="28.2" height="28.2" rx="5" ry="5" fill="#fff" data-enabled="1" class="mapplic-clickable mapplic-location-type--service"></rect><rect id="p68-10016" x="356.75" y="112.96" width="28.27" height="28.42" rx="5.16" ry="5.16" fill="#fff" data-enabled="1" class="mapplic-clickable mapplic-location-type--service"></rect><rect id="p68-10017" x="317.2" y="221.02" width="28.2" height="28.19" rx="5.1" ry="5.1" fill="#fff" data-enabled="1" class="mapplic-clickable mapplic-location-type--service"></rect><rect id="p68-10018" x="528.98" y="354.87" width="28.2" height="28.2" rx="5" ry="5" fill="#fff" data-enabled="1" class="mapplic-clickable mapplic-location-type--service"></rect><rect id="p68-10019" x="978.87" y="412.38" width="28.51" height="28.51" rx="5.78" ry="5.78" fill="#fff" data-enabled="1"></rect><rect id="p68-10020" x="918.7" y="554.08" width="28.51" height="28.51" rx="5.78" ry="5.78" fill="#fff" data-enabled="1" class="mapplic-clickable mapplic-location-type--service"></rect><rect id="p68-10021" x="529.14" y="303.39" width="28.51" height="28.51" rx="5.78" ry="5.78" fill="#fff" data-enabled="1" class="mapplic-clickable mapplic-location-type--service"></rect><rect id="p68-10022" x="686.43" y="494.52" width="28.2" height="28.2" rx="5" ry="5" fill="#fff" data-enabled="1"></rect><rect id="p68-10023" x="918.86" y="494.52" width="28.2" height="28.2" rx="5" ry="5" fill="#fff" data-enabled="1"></rect><rect id="p68-10024" x="324.74" y="66.79" width="26.2" height="26.2" rx="5.36" ry="5.36" fill="#fff" data-enabled="1" class="mapplic-clickable mapplic-location-type--service"></rect></g><g id="service-icons"><path d="M339.85,275.45a1.26,1.26,0,0,0-1.11-1.19H336a1.48,1.48,0,0,0-1.22.37l-8,8a1.49,1.49,0,0,1-1.16.45h-1.78a1.11,1.11,0,0,0-1.14,1.08h0v.08a1.29,1.29,0,0,0,1.26,1.31h2.59a1.62,1.62,0,0,0,1.24-.45l7.87-7.87a1.62,1.62,0,0,1,1.41-.5h1.65a1.23,1.23,0,0,0,1.13-1.28m1.33,0a2.58,2.58,0,0,1-2.25,2.57H337a.67.67,0,0,0-.54.19L328.65,286a3,3,0,0,1-2,.83H324a2.6,2.6,0,0,1-2.55-2.6,2.48,2.48,0,0,1,2.41-2.5h1.5c.45,0,.48,0,.71-.24l2.45-2.45h0V275.7a1.3,1.3,0,0,1,2.59-.23.89.89,0,0,1,0,.23v.83l2.82-2.82a2.9,2.9,0,0,1,1.92-.74h3a2.54,2.54,0,0,1,2.32,2.5m-10.1-2.62a1.31,1.31,0,1,1-1.31-1.31h0a1.31,1.31,0,0,1,1.31,1.31" fill="#32304e"></path><path d="M532.43,233.14a1.26,1.26,0,0,0-1.11-1.19h-2.74a1.48,1.48,0,0,0-1.22.37l-8,8a1.49,1.49,0,0,1-1.16.45h-1.78a1.11,1.11,0,0,0-1.14,1.08h0v.08a1.29,1.29,0,0,0,1.26,1.31h2.59a1.62,1.62,0,0,0,1.24-.45l7.87-7.87a1.62,1.62,0,0,1,1.41-.5h1.65a1.23,1.23,0,0,0,1.13-1.28m1.33,0a2.58,2.58,0,0,1-2.25,2.57h-1.93a.67.67,0,0,0-.54.19l-7.81,7.79a3,3,0,0,1-2,.83h-2.67a2.6,2.6,0,0,1-2.55-2.6,2.48,2.48,0,0,1,2.41-2.5h1.5c.45,0,.48,0,.71-.24l2.45-2.45h0v-3.37a1.3,1.3,0,1,1,2.59-.23h0a.89.89,0,0,1,0,.23v.83l2.82-2.82a2.9,2.9,0,0,1,1.92-.74h3a2.54,2.54,0,0,1,2.32,2.5m-10.1-2.62a1.31,1.31,0,1,1-1.31-1.31h0a1.31,1.31,0,0,1,1.31,1.31" fill="#32304e"></path><path d="M552,403.22a1.26,1.26,0,0,0-1.11-1.19H548.1a1.48,1.48,0,0,0-1.22.37l-8,8a1.49,1.49,0,0,1-1.16.45h-1.78a1.11,1.11,0,0,0-1.14,1.08h0V412a1.29,1.29,0,0,0,1.26,1.31h2.59a1.62,1.62,0,0,0,1.24-.45l7.87-7.87a1.62,1.62,0,0,1,1.41-.5h1.65a1.23,1.23,0,0,0,1.13-1.28m1.33,0a2.58,2.58,0,0,1-2.25,2.57H549.1a.67.67,0,0,0-.54.19l-7.81,7.79a3,3,0,0,1-2,.83h-2.67a2.6,2.6,0,0,1-2.55-2.6,2.48,2.48,0,0,1,2.41-2.5h1.5c.45,0,.48,0,.71-.24l2.45-2.45h0v-3.37a1.3,1.3,0,0,1,2.59-.23h0a.89.89,0,0,1,0,.23v.83l2.82-2.82a2.9,2.9,0,0,1,1.92-.74h3a2.54,2.54,0,0,1,2.32,2.5m-10.1-2.62a1.31,1.31,0,1,1-1.31-1.31h0a1.31,1.31,0,0,1,1.31,1.31" fill="#32304e"></path><path d="M892.44,403.22a1.26,1.26,0,0,0-1.11-1.19h-2.74a1.48,1.48,0,0,0-1.22.37l-8,8a1.49,1.49,0,0,1-1.16.45h-1.78a1.11,1.11,0,0,0-1.14,1.08h0V412a1.29,1.29,0,0,0,1.26,1.31h2.59a1.62,1.62,0,0,0,1.24-.45l7.87-7.87a1.62,1.62,0,0,1,1.41-.5h1.65a1.23,1.23,0,0,0,1.13-1.28m1.33,0a2.58,2.58,0,0,1-2.25,2.57H889.6a.67.67,0,0,0-.54.19l-7.81,7.79a3,3,0,0,1-2,.83h-2.67A2.61,2.61,0,0,1,874,412a2.48,2.48,0,0,1,2.41-2.5h1.5c.45,0,.48,0,.71-.24l2.45-2.45h0v-3.37a1.3,1.3,0,0,1,2.59-.23.89.89,0,0,1,0,.23v.83l2.82-2.82a2.9,2.9,0,0,1,1.92-.74h3a2.54,2.54,0,0,1,2.32,2.5m-10.1-2.62a1.31,1.31,0,1,1-1.31-1.31h0a1.31,1.31,0,0,1,1.31,1.31" fill="#32304e"></path><path d="M845.29,247.14a1.26,1.26,0,0,0-1.11-1.19h-2.74a1.48,1.48,0,0,0-1.22.37l-8,8a1.49,1.49,0,0,1-1.16.45h-1.78a1.11,1.11,0,0,0-1.14,1.08h0v.08a1.29,1.29,0,0,0,1.26,1.31H832a1.62,1.62,0,0,0,1.24-.45l7.87-7.87a1.62,1.62,0,0,1,1.41-.5h1.65a1.23,1.23,0,0,0,1.13-1.28m1.33,0a2.58,2.58,0,0,1-2.25,2.57h-1.93a.67.67,0,0,0-.54.19l-7.81,7.79a3,3,0,0,1-2,.83h-2.7a2.6,2.6,0,0,1-2.55-2.6,2.48,2.48,0,0,1,2.41-2.5h1.5c.45,0,.48,0,.71-.24l2.45-2.45h0v-3.37a1.3,1.3,0,1,1,2.59-.23h0a.89.89,0,0,1,0,.23v.83l2.82-2.82a2.9,2.9,0,0,1,1.92-.74h3a2.54,2.54,0,0,1,2.32,2.5m-10.1-2.62a1.31,1.31,0,1,1-1.31-1.31h0a1.31,1.31,0,0,1,1.31,1.31" fill="#32304e"></path><path d="M682.32,211.76a1.26,1.26,0,0,0-1.11-1.19h-2.74a1.48,1.48,0,0,0-1.22.37l-8,8a1.49,1.49,0,0,1-1.16.45h-1.78a1.11,1.11,0,0,0-1.14,1.08h0v.08a1.29,1.29,0,0,0,1.26,1.31H669a1.62,1.62,0,0,0,1.24-.45l7.87-7.87a1.62,1.62,0,0,1,1.41-.5h1.65a1.23,1.23,0,0,0,1.13-1.28m1.33,0a2.58,2.58,0,0,1-2.25,2.57h-1.93a.67.67,0,0,0-.54.19l-7.81,7.79a3,3,0,0,1-2,.83h-2.67a2.6,2.6,0,0,1-2.55-2.6,2.48,2.48,0,0,1,2.41-2.5h1.5c.45,0,.48,0,.71-.24l2.45-2.45h0V212a1.3,1.3,0,1,1,2.59-.23h0a.89.89,0,0,1,0,.23v.83l2.82-2.82a2.9,2.9,0,0,1,1.92-.74h3a2.54,2.54,0,0,1,2.32,2.5m-10.1-2.62a1.31,1.31,0,1,1-1.31-1.31h0a1.31,1.31,0,0,1,1.31,1.31" fill="#32304e"></path><path d="M918.93,128.46l.75-2.5a1.66,1.66,0,0,1,.3-.49,1.82,1.82,0,0,1,.7-.3h1.44a1.82,1.82,0,0,1,.7.3,1.66,1.66,0,0,1,.3.49l.75,2.5a.47.47,0,0,1-.2.63h0a.48.48,0,0,1-.17.05c-.27,0-.35-.32-.35-.32l-.64-2.23h-.14l.21,2.48.57,4.51H921.9a29.7,29.7,0,0,0-.66-2.94l-.62,3h-1.18l.76-4.54.2-2.45h-.14l-.64,2.23s-.08.36-.35.32a.47.47,0,0,1-.38-.69m5.23,0,.75-2.5a1.66,1.66,0,0,1,.3-.49,1.82,1.82,0,0,1,.7-.3h1.44a1.82,1.82,0,0,1,.7.3,1.66,1.66,0,0,1,.3.49l.75,2.5a.47.47,0,0,1-.2.63h0a.48.48,0,0,1-.17.05c-.27,0-.35-.32-.35-.32l-.64-2.23h-.14l.21,2.48.68,2.13H927.3c0,.41-.24,1.85-.28,2.06a.43.43,0,0,1-.15.28h-.59s-.1,0-.14-.28-.23-1.66-.28-2.06h-1.15l.69-2.15.2-2.45h-.14l-.64,2.23s-.08.36-.35.32a.47.47,0,0,1-.39-.69m3.34-4.4a.87.87,0,1,1-.87-.87h0a.87.87,0,0,1,.87.87m-5.23,0a.87.87,0,1,1-.87-.87h0a.87.87,0,0,1,.87.87m-4.5,9.89h12.77V123H917.78Zm13.84.53a.55.55,0,0,1-.53.53H917.25a.55.55,0,0,1-.53-.53V122.3a.55.55,0,0,1,.53-.53h13.84a.55.55,0,0,1,.53.53ZM930.28,118l-2.54,2.37a.65.65,0,0,1-.46.18h0a.65.65,0,0,1-.46-.18L924.25,118a.68.68,0,1,1,.8-1.1h0l.11.1h0l1.45,1.35v-5.61a.67.67,0,1,1,1.34,0v5.58l1.42-1.32a.68.68,0,0,1,.94-.19.67.67,0,0,1,.2.93h0a.47.47,0,0,1-.13.15l-.11.1m-6.92-2.41a.68.68,0,0,1-1,0l0,0h0L921,114.35v5.58a.67.67,0,0,1-1.34,0h0v-5.61l-1.45,1.35a.68.68,0,0,1-.94.19.67.67,0,0,1-.2-.93h0a.47.47,0,0,1,.13-.15l.11-.1,2.54-2.37a.7.7,0,0,1,.94,0l2.54,2.37a.68.68,0,0,1,0,1l0,0h0" fill="#32304e"></path><path d="M870,144.75l.75-2.5a1.66,1.66,0,0,1,.3-.49,1.82,1.82,0,0,1,.7-.3h1.44a1.82,1.82,0,0,1,.7.3,1.66,1.66,0,0,1,.3.49l.75,2.5a.47.47,0,0,1-.2.63h0a.48.48,0,0,1-.17.05c-.27,0-.35-.32-.35-.32l-.64-2.23h-.14l.21,2.48.57,4.51H873a29.7,29.7,0,0,0-.66-2.94l-.62,3h-1.18l.76-4.54.2-2.45h-.14l-.64,2.23s-.08.36-.35.32a.47.47,0,0,1-.38-.69m5.23,0,.75-2.5a1.66,1.66,0,0,1,.3-.49,1.82,1.82,0,0,1,.7-.3h1.44a1.82,1.82,0,0,1,.7.3,1.66,1.66,0,0,1,.3.49l.75,2.5a.47.47,0,0,1-.2.63h0a.48.48,0,0,1-.17.05c-.27,0-.35-.32-.35-.32l-.64-2.23h-.14l.21,2.48.68,2.13H878.4c0,.41-.24,1.85-.28,2.06a.43.43,0,0,1-.15.28h-.59s-.1,0-.14-.28-.23-1.66-.28-2.06h-1.15l.69-2.15.2-2.45h-.14l-.64,2.23s-.08.36-.35.32a.47.47,0,0,1-.39-.69m3.34-4.4a.87.87,0,1,1-.87-.87h0a.87.87,0,0,1,.87.87m-5.23,0a.87.87,0,1,1-.87-.87h0a.87.87,0,0,1,.87.87m-4.48,9.82h12.77v-11h-12.7Zm13.84.53a.55.55,0,0,1-.53.53H868.3a.55.55,0,0,1-.53-.53V138.59a.55.55,0,0,1,.53-.53h13.84a.55.55,0,0,1,.53.53Zm-1.35-16.37-2.54,2.37a.65.65,0,0,1-.46.18h0a.65.65,0,0,1-.46-.18l-2.54-2.37a.68.68,0,1,1,.8-1.1l.11.1h0l1.45,1.35V129.1a.67.67,0,0,1,1.34,0v5.58l1.42-1.32a.68.68,0,0,1,.94-.19.67.67,0,0,1,.2.93h0a.47.47,0,0,1-.13.15l-.11.1h0m-7-2.35a.68.68,0,0,1-1,0l0,0h0L872,130.64v5.58a.67.67,0,0,1-1.34,0v-5.61l-1.4,1.39a.68.68,0,0,1-.94.19.67.67,0,0,1-.2-.93h0a.47.47,0,0,1,.13-.15l.11-.1,2.54-2.37a.7.7,0,0,1,.94,0l2.54,2.37a.68.68,0,0,1,0,.95h0" fill="#32304e"></path><path d="M832.09,288.6l.75-2.5a1.66,1.66,0,0,1,.3-.49,1.82,1.82,0,0,1,.7-.3h1.44a1.82,1.82,0,0,1,.7.3,1.66,1.66,0,0,1,.3.49l.75,2.5a.47.47,0,0,1-.2.63h0a.48.48,0,0,1-.17,0c-.27,0-.35-.32-.35-.32l-.64-2.23h-.14l.21,2.48.57,4.51h-1.23a29.7,29.7,0,0,0-.66-2.94l-.62,3h-1.2l.76-4.54.2-2.45h-.14l-.64,2.23s-.08.36-.35.32a.47.47,0,0,1-.38-.69m5.23,0,.75-2.5a1.66,1.66,0,0,1,.3-.49,1.82,1.82,0,0,1,.7-.3h1.44a1.82,1.82,0,0,1,.7.3,1.66,1.66,0,0,1,.3.49l.75,2.5a.47.47,0,0,1-.2.63h0a.48.48,0,0,1-.17,0c-.27,0-.35-.32-.35-.32l-.64-2.23h-.14l.21,2.48.68,2.13h-1.15c0,.41-.24,1.85-.28,2.06a.43.43,0,0,1-.15.28h-.59s-.1,0-.14-.28-.23-1.66-.28-2.06h-1.15l.69-2.15.2-2.45h-.14L838,289s-.08.36-.35.32a.47.47,0,0,1-.39-.69m3.34-4.4a.87.87,0,1,1-.87-.87h0a.87.87,0,0,1,.87.87m-5.23,0a.87.87,0,1,1-.87-.87h0a.87.87,0,0,1,.87.87M831,294h12.77V283H831Zm13.84.53a.55.55,0,0,1-.53.53h-13.9a.55.55,0,0,1-.53-.53V282.44a.55.55,0,0,1,.53-.53h13.84a.55.55,0,0,1,.53.53Zm-1.35-16.37L841,280.53a.65.65,0,0,1-.46.18h0a.65.65,0,0,1-.46-.18l-2.54-2.37a.68.68,0,1,1,.8-1.1l.11.1h0l1.45,1.35V272.9a.67.67,0,1,1,1.34,0v5.58l1.42-1.32a.68.68,0,0,1,.94-.19.67.67,0,0,1,.2.93h0a.47.47,0,0,1-.13.15l-.11.1m-6.92-2.41a.68.68,0,0,1-1,0l0,0h0l-1.42-1.32V280a.67.67,0,1,1-1.34,0v-5.6l-1.45,1.35a.68.68,0,0,1-.94.19.67.67,0,0,1-.2-.93h0a.47.47,0,0,1,.13-.15l.11-.1,2.54-2.37a.7.7,0,0,1,.94,0l2.54,2.37a.68.68,0,0,1,0,1l0,0h0" fill="#32304e"></path><path d="M657.42,471.4l.75-2.5a1.66,1.66,0,0,1,.3-.49,1.82,1.82,0,0,1,.7-.3h1.44a1.82,1.82,0,0,1,.7.3,1.66,1.66,0,0,1,.3.49l.75,2.5a.47.47,0,0,1-.2.63h0a.48.48,0,0,1-.17,0c-.27,0-.35-.32-.35-.32l-.64-2.23h-.14L661,472l.57,4.51h-1.23a29.7,29.7,0,0,0-.66-2.94l-.62,3H658l.76-4.54.2-2.45h-.14l-.64,2.23s-.08.36-.35.32a.47.47,0,0,1-.38-.69m5.23,0,.75-2.5a1.66,1.66,0,0,1,.3-.49,1.82,1.82,0,0,1,.7-.3h1.44a1.82,1.82,0,0,1,.7.3,1.66,1.66,0,0,1,.3.49l.75,2.5a.47.47,0,0,1-.2.63h0a.48.48,0,0,1-.17,0c-.27,0-.35-.32-.35-.32l-.64-2.23h-.14l.21,2.48.68,2.13h-1.15c0,.41-.24,1.85-.28,2.06a.43.43,0,0,1-.15.28h-.59s-.1,0-.14-.28-.23-1.66-.28-2.06h-1.15L664,472l.2-2.45h-.14l-.64,2.23s-.08.36-.35.32a.47.47,0,0,1-.39-.69M666,467a.87.87,0,1,1-.87-.87h0a.87.87,0,0,1,.87.87m-5.23,0a.87.87,0,1,1-.87-.87h0a.87.87,0,0,1,.87.87m-4.48,9.82h12.77v-11H656.28Zm13.84.53a.55.55,0,0,1-.53.53H655.75a.55.55,0,0,1-.53-.53V465.24a.55.55,0,0,1,.53-.53h13.84a.55.55,0,0,1,.53.53ZM668.78,461l-2.54,2.37a.65.65,0,0,1-.46.18h0a.65.65,0,0,1-.46-.18L662.75,461a.68.68,0,1,1,.8-1.1h0l.11.1,1.45,1.35v-5.61a.67.67,0,1,1,1.34,0v5.58l1.42-1.32a.68.68,0,0,1,.94-.19.67.67,0,0,1,.2.93h0a.47.47,0,0,1-.13.15l-.11.1h0m-6.92-2.41a.68.68,0,0,1-1,0l0,0h0l-1.42-1.32v5.58a.67.67,0,1,1-1.34,0h0v-5.61l-1.45,1.35a.68.68,0,0,1-.94.19.67.67,0,0,1-.2-.93h0a.47.47,0,0,1,.13-.15l.11-.1h0l2.54-2.37a.7.7,0,0,1,.94,0l2.54,2.37a.68.68,0,0,1,0,1l0,0h0" fill="#32304e"></path><path d="M157.92,241.68l.75-2.5a1.66,1.66,0,0,1,.3-.49,1.82,1.82,0,0,1,.7-.3h1.44a1.82,1.82,0,0,1,.7.3,1.66,1.66,0,0,1,.3.49l.75,2.5a.47.47,0,0,1-.2.63h0a.48.48,0,0,1-.17.05c-.27,0-.35-.32-.35-.32l-.64-2.23h-.14l.21,2.48.57,4.51h-1.23a29.7,29.7,0,0,0-.66-2.94l-.62,3h-1.18l.76-4.54.2-2.45h-.14l-.64,2.23s-.08.36-.35.32a.47.47,0,0,1-.38-.69m5.23,0,.75-2.5a1.66,1.66,0,0,1,.3-.49,1.82,1.82,0,0,1,.7-.3h1.44a1.82,1.82,0,0,1,.7.3,1.66,1.66,0,0,1,.3.49l.75,2.5a.47.47,0,0,1-.2.63h0a.48.48,0,0,1-.17.05c-.27,0-.35-.32-.35-.32l-.64-2.23h-.14l.21,2.48.68,2.13h-1.15c-.05.41-.24,1.85-.28,2.06a.43.43,0,0,1-.15.28h-.59s-.1,0-.14-.28-.23-1.66-.28-2.06h-1.15l.69-2.15.2-2.45h-.14l-.64,2.23s-.08.36-.35.32a.47.47,0,0,1-.39-.69m3.34-4.4a.87.87,0,1,1-.87-.87h0a.87.87,0,0,1,.87.87m-5.23,0a.87.87,0,1,1-.87-.87h0a.87.87,0,0,1,.87.87m-4.48,9.82h12.77v-11H156.77Zm13.84.53a.55.55,0,0,1-.53.53H156.24a.55.55,0,0,1-.53-.53V235.52a.55.55,0,0,1,.53-.53h13.84a.55.55,0,0,1,.53.53Zm-1.35-16.37-2.54,2.37a.65.65,0,0,1-.46.18h0a.65.65,0,0,1-.46-.18l-2.54-2.37a.68.68,0,0,1,.91-1h0l1.45,1.35V226a.67.67,0,1,1,1.34,0h0v5.58l1.42-1.32a.68.68,0,0,1,1,.9l-.11.1m-6.92-2.41a.68.68,0,0,1-.95,0h0L160,227.57v5.58a.67.67,0,0,1-1.34,0h0v-5.61l-1.45,1.35a.68.68,0,0,1-1-.9l.11-.1h0l2.54-2.37a.7.7,0,0,1,.94,0l2.54,2.37a.68.68,0,0,1,0,1l0,0h0" fill="#32304e"></path><path d="M365.23,98.67l.75-2.5a1.66,1.66,0,0,1,.3-.49,1.82,1.82,0,0,1,.7-.3h1.44a1.82,1.82,0,0,1,.7.3,1.66,1.66,0,0,1,.3.49l.75,2.5a.47.47,0,0,1-.2.63h0a.48.48,0,0,1-.17,0c-.27,0-.35-.32-.35-.32l-.64-2.23h-.14l.21,2.48.57,4.51H368.2a29.7,29.7,0,0,0-.66-2.94l-.62,3h-1.18l.76-4.54.2-2.45h-.14L366,99s-.08.36-.35.32a.47.47,0,0,1-.38-.69m5.23,0,.75-2.5a1.66,1.66,0,0,1,.3-.49,1.82,1.82,0,0,1,.7-.3h1.44a1.82,1.82,0,0,1,.7.3,1.66,1.66,0,0,1,.3.49l.75,2.5a.47.47,0,0,1-.2.63h0a.48.48,0,0,1-.17,0c-.27,0-.35-.32-.35-.32l-.7-2.19h-.14l.21,2.48.68,2.13H373.6c0,.41-.24,1.85-.28,2.06a.43.43,0,0,1-.15.28h-.59s-.1,0-.14-.28-.23-1.66-.28-2.06H371l.69-2.15.2-2.45h-.14L371.19,99s-.08.36-.35.32a.47.47,0,0,1-.39-.69m3.34-4.4a.87.87,0,1,1-.87-.87h0a.87.87,0,0,1,.87.87m-5.23,0a.87.87,0,1,1-.87-.87h0a.87.87,0,0,1,.87.87M364.08,104h12.77V93H364.08Zm13.84.53a.55.55,0,0,1-.53.53H363.55a.55.55,0,0,1-.53-.53v-12a.55.55,0,0,1,.53-.53h13.84a.55.55,0,0,1,.53.53Zm-1.35-16.37L374,90.63a.65.65,0,0,1-.46.18h0a.65.65,0,0,1-.46-.18l-2.54-2.37a.68.68,0,0,1,.8-1.1l.11.1,1.45,1.35V83a.67.67,0,1,1,1.34,0h0v5.6l1.42-1.32a.68.68,0,0,1,1,.9l-.11.1m-6.92-2.41a.68.68,0,0,1-1,0l0,0h0l-1.42-1.32v5.58a.67.67,0,0,1-1.34,0h0V84.54l-1.45,1.35a.68.68,0,0,1-1-.9l.11-.1,2.54-2.37a.7.7,0,0,1,.94,0l2.54,2.37a.68.68,0,0,1,0,1l0,0h0" fill="#32304e"></path><path d="M970.42,428.31c-.59.1-.77-.71-.77-.71l-1.42-5-.31.08.45,5.46,1.69,10.1h-2.63L966,431.67c-.09-.47-1.06,4.52-1.48,6.55h-2.73l1.28-10,.47-5.52-.31-.08-1.42,5s-.18.81-.77.71a1.07,1.07,0,0,1-1-1.13h0a1.14,1.14,0,0,1,.1-.36l1.68-5.56a3.9,3.9,0,0,1,.67-1.08,4.07,4.07,0,0,1,1.57-.67h3.21a4.07,4.07,0,0,1,1.57.67,3.9,3.9,0,0,1,.67,1.08l1.68,5.56a1.07,1.07,0,0,1-.86,1.53M967.73,417a1.94,1.94,0,1,1-1.94-1.94,1.94,1.94,0,0,1,1.94,1.94h0m-9,11.32c-.6.1-.77-.71-.77-.71l-1.42-5-.31.08.45,5.46,1.53,4.79H955.7c-.12.91-.53,4.12-.63,4.59a1,1,0,0,1-.32.63h-1.3s-.22-.08-.32-.63-.51-3.69-.63-4.59H950l1.52-4.73.47-5.52-.31-.08-1.42,5s-.18.81-.77.71a1.06,1.06,0,0,1-1-1.12h0a1,1,0,0,1,.11-.39l1.68-5.56a3.9,3.9,0,0,1,.67-1.08,4.07,4.07,0,0,1,1.57-.67h3.21a4.07,4.07,0,0,1,1.57.67,3.9,3.9,0,0,1,.67,1.08l1.68,5.56a1.06,1.06,0,0,1-.47,1.42,1.15,1.15,0,0,1-.39.11M956.08,417a1.94,1.94,0,1,1-1.94-1.94,1.94,1.94,0,0,1,1.94,1.94h0" fill="#32304e"></path><path d="M994.15,462.5l-3.7.2h0a1.65,1.65,0,0,1-1.6-1.48h0l-.48-1.92a4.81,4.81,0,1,0,5.89,3.4h0v-.18m5.89-11.7c0,.77.36,1.53,1.22,1.53a1,1,0,0,0,1-1h.69a1.63,1.63,0,0,1-1.64,1.62h0a2.11,2.11,0,0,1,0-4.2,1.57,1.57,0,0,1,1.7,1.37h-.7a1,1,0,0,0-1-.8c-.86,0-1.22.76-1.22,1.53m-1-2-1.11,4h-.71l-.8-3.07h0l-.82,3.07H995l-1.06-4h.71l.73,3.07h0l.81-3.07h.72l.79,3.07h0l.75-3.07Zm-8.27,7.56h3.65a.84.84,0,0,1,0,1.68h-2.69A6.3,6.3,0,0,1,994,459.5h2.85a1.81,1.81,0,0,1,1.7,1.56l.08.18,2.06,5.21v.07a1.29,1.29,0,0,1,.06.48,1.65,1.65,0,0,1-3.21.55h0L996,463a1,1,0,0,0-.18-.22,6.32,6.32,0,1,1-7.81-4.9l-.5-2a1.65,1.65,0,1,1,2.91-1.56,1.73,1.73,0,0,1,.19.66Zm-.49-5.64a2.2,2.2,0,1,1-2.2-2.2,2.2,2.2,0,0,1,2.2,2.2h0" fill="#32304e"></path><path d="M963.54,468.79v-1h-2.38V467h2.38v-1.3h-2.38v-.83h2.38v-1.25h-2.38v-.83h2.38v-1.24h-2.38v-.83h2.38v-1.24h-2.38v-.83h2.38v-1.24h-2.38v-.83h2.38v-1.11a.9.9,0,0,0-.79-1h-5.66a.9.9,0,0,0-.85.94v.06h0v13.31a.9.9,0,0,0,.79,1h5.66a.9.9,0,0,0,.85-.94v-.06h0m.57,0a1.5,1.5,0,0,1-1.42,1.58h-5.6a1.5,1.5,0,0,1-1.42-1.58h0v-13.3a1.56,1.56,0,0,1,1-1.52,1.26,1.26,0,0,1,.3-1c.3-.4,2.1-.79,2.1-1.71s-.88-.79-.93-1.33c-.07-.83.81-1.34,1.42-1.5h.57c.62.16,1.49.67,1.42,1.5,0,.54-.93.42-.93,1.33s1.79,1.3,2.09,1.71a1.26,1.26,0,0,1,.3,1,1.56,1.56,0,0,1,1,1.52Z" fill="#32304e"></path><path d="M919.49,459.22c0-.82-.14-1.49-1-1.49s-1,.67-1,1.49.14,1.49,1,1.49,1-.67,1-1.49m18.55.26a2,2,0,0,1-1.07,1.77l-.86-.52-1.09.65-1.09-.65-1.09.65-1.09-.65-1.09.65-1.09-.65-1.09.65-.08.1h-3.94c-.85,2.16-1.89,3.69-4.36,3.69-3.21,0-4.23-2.6-4.23-5.81s1-5.81,4.23-5.81c2.46,0,3.51,1.53,4.36,3.69H936a2,2,0,0,1,1.86,1.26l.11.41a1.93,1.93,0,0,1,0,.34Z" fill="#32304e"></path><path d="M368,124.4a.76.76,0,0,0-.75-.39.75.75,0,0,0-.5.16,1.07,1.07,0,0,0-.31.52,4.39,4.39,0,0,0-.16,1v1.43a11.88,11.88,0,0,0,.06,1.46,3.24,3.24,0,0,0,.19.86.81.81,0,0,0,.32.41,1,1,0,0,0,.45.11,1.09,1.09,0,0,0,.4-.07.65.65,0,0,0,.32-.29,1.92,1.92,0,0,0,.21-.61,5.55,5.55,0,0,0,.08-1h1.6a7.09,7.09,0,0,1-.1,1.22,2.82,2.82,0,0,1-.37,1,1.88,1.88,0,0,1-.77.68,2.88,2.88,0,0,1-1.29.24,3.08,3.08,0,0,1-1.43-.29,2,2,0,0,1-.82-.83,3.73,3.73,0,0,1-.37-1.3,16.84,16.84,0,0,1,0-3.33,3.72,3.72,0,0,1,.37-1.31,2.1,2.1,0,0,1,.82-.85,2.93,2.93,0,0,1,1.43-.31,2.74,2.74,0,0,1,1.35.28,1.87,1.87,0,0,1,.74.71,2.51,2.51,0,0,1,.31.92,7.26,7.26,0,0,1,.06.93h-1.6a3,3,0,0,0-.21-1.26" fill="#32304e"></path><polygon points="373.16 122.98 374.3 128.59 374.32 128.59 375.46 122.98 377.83 122.98 377.83 130.93 376.37 130.93 376.37 124.58 376.34 124.58 374.93 130.93 373.68 130.93 372.27 124.58 372.25 124.58 372.25 130.93 370.78 130.93 370.78 122.98 373.16 122.98" fill="#32304e"></polygon><path d="M382,124.75h-1.41v-3a1.93,1.93,0,0,0-.38-1.29A1.57,1.57,0,0,0,379,120h-7.21v-1.41H379a2.89,2.89,0,0,1,2.22.87,3.2,3.2,0,0,1,.75,2.3Z" fill="#32304e"></path><polygon points="372.79 116.99 372.79 121.59 370.56 119.33 372.79 116.99" fill="#32304e"></polygon><path d="M370.22,135.87h-6.91a2.83,2.83,0,0,1-2.18-.86,3.49,3.49,0,0,1-.79-2.46v-4.3h1.41v4.35a2.16,2.16,0,0,0,.42,1.45,1.46,1.46,0,0,0,1.14.4h6.91Z" fill="#32304e"></path><polygon points="371.42 135.18 369.19 137.51 369.19 132.91 371.42 135.18" fill="#32304e"></polygon><path d="M379,135.87h-6.63v-1.41h6.5a1.89,1.89,0,0,0,1.28-.39,1.56,1.56,0,0,0,.41-1.18V127H382v5.93a2.87,2.87,0,0,1-.87,2.23A3.17,3.17,0,0,1,379,135.87Z" fill="#32304e"></path><polygon points="381.24 125.8 383.58 128.03 378.98 128.03 381.24 125.8" fill="#32304e"></polygon><path d="M361.76,125.75h-1.41v-4.17a2.89,2.89,0,0,1,.87-2.22,3.22,3.22,0,0,1,2.3-.75h6.57V120h-6.63a1.88,1.88,0,0,0-1.29.38,1.52,1.52,0,0,0-.41,1.18Z" fill="#32304e"></path><polygon points="361.08 127.09 358.74 124.86 363.35 124.86 361.08 127.09" fill="#32304e"></polygon><path d="M324.86,231.46a1.42,1.42,0,1,1-1.42,1.42,1.42,1.42,0,0,1,1.42-1.42h0" fill="#32304e"></path><path d="M338.32,228a1.42,1.42,0,1,1-1.43,1.42,1.42,1.42,0,0,1,1.43-1.42h0" fill="#32304e"></path><path d="M343.15,235.48a.7.7,0,0,0-.83-.54h0l-2.85.62a1.6,1.6,0,0,0,.48-1.15v-2.5s0-1.24-.69-.85a3.06,3.06,0,0,1-1.43.55c-.55.07-.55,0-.71.5a11.44,11.44,0,0,0,0,2.34s0,.51-.23.57-2.14.41-2.28,1a4.22,4.22,0,0,0-.07.61l-8.16,1.77-.57-.14c-.25-.07-.23-.57-.23-.57a11.54,11.54,0,0,0,0-2.35c-.16-.5-.16-.44-.71-.5a3.06,3.06,0,0,1-1.43-.55c-.69-.39-.69.85-.69.85v2.5a1.61,1.61,0,0,0,.77,1.38l-3,.66a.7.7,0,0,0,.15,1.39h.15l6-1.29a.26.26,0,0,1,.11.07,18.08,18.08,0,0,1-.07,2.44.67.67,0,0,0,.59.74h.12a.91.91,0,0,0,.74-.46s0-2.25-.13-3.08l3.06-.66-2.49,4.45h6.42l-2.59-4.74,2-.43v1.23a.91.91,0,0,0,.74.46.67.67,0,0,0,.71-.62v-.12a8.65,8.65,0,0,0-.08-1.25l6.78-1.47A.7.7,0,0,0,343.15,235.48Z" fill="#32304e"></path><path d="M543.59,357.42a2.88,2.88,0,1,0,2.89,2.88,2.88,2.88,0,0,0-2.89-2.88h0" fill="#32304e"></path><path d="M545.9,364.67h-7.24v3.62h2.27v8.8l-2.27-.07v3.66h9.51V377l-2.27.07Z" fill="#32304e"></path><path d="M1001.39,417.48c0,.77.36,1.53,1.22,1.53a1,1,0,0,0,1-1h.69a1.63,1.63,0,0,1-1.64,1.62h0a2.11,2.11,0,0,1,0-4.2,1.57,1.57,0,0,1,1.7,1.37h-.7a1,1,0,0,0-1-.8c-.86,0-1.22.76-1.22,1.53m-1-2-1.11,4h-.71l-.8-3.07h0l-.82,3.07h-.72l-1.06-4h.71l.72,3.07h0l.81-3.07h.72l.79,3.07h0l.75-3.07ZM994,421.77a1.74,1.74,0,0,1,2.45-.17h0l.16.16a2,2,0,0,1,1.6.15c.66.39,0,1.41,0,1.41s-.08.11-.27-.36-.71-.47-1-.51a1.76,1.76,0,0,1-3.38,1,1.68,1.68,0,0,1-.07-.5,1.59,1.59,0,0,1,.07-.48,1.23,1.23,0,0,0-1,.51c-.15.34-.27.36-.27.36s-.61-1,0-1.41a2,2,0,0,1,1.59-.15m-2.46,6.88,2.12-3a.74.74,0,0,1,.23-.2.52.52,0,0,1,.31-.12h2.38a.56.56,0,0,1,.44.27h0l2.11,3c.17.23.19.51,0,.63l-.31.26c-.14.12-.42,0-.61-.15l-.86-.86.48,4.85c0,.4-.17.73-.47.73h-.33l-.19,2.44c0,.32-.18.59-.37.59H996c-.18,0-.35-.26-.37-.59l-.19-2.44H995l-.2,2.45c0,.32-.18.58-.37.58H994c-.18,0-.35-.26-.37-.58l-.2-2.45h-.1c-.3,0-.51-.33-.47-.73l.48-4.9-.92.92c-.2.2-.47.27-.61.15l-.31-.26c-.14-.12-.12-.4,0-.63m-.65.68-.31.26c-.14.12-.42,0-.62-.16l-.85-.84.38,3.1c0,.44-.15.81-.45.81h0l-.32,4.11c0,.33-.18.6-.37.6h-.4c-.18,0-.35-.27-.37-.6l-.32-4.11h-.58l-.32,4.08c0,.32-.18.59-.37.59h-.4c-.18,0-.35-.26-.37-.59l-.33-4.09c-.26-.06-.42-.39-.37-.8l.38-3.1-.85.84c-.2.21-.48.28-.62.16l-.31-.26c-.14-.12-.12-.41,0-.64l2.17-3.11a.7.7,0,0,1,.28-.23.48.48,0,0,1,.23-.07h2.42a.41.41,0,0,1,.24.08.78.78,0,0,1,.26.22l2.18,3.11c.17.23.2.52,0,.64m-2.16-6.39a1.76,1.76,0,1,1-1.76-1.76,1.76,1.76,0,0,1,1.76,1.76h0" fill="#32304e"></path><path d="M943.33,575.2h-.12v.13h0v.17h0v.25h0a.28.28,0,0,0-.26.28h0a.29.29,0,0,0,0,.13h.22v.16c0,.1,0,.12-.08.12h-.6v.16h-.33v.11H942c-.15,0-.22-.09-.25-.31h0v-.12h0a.21.21,0,0,1,0-.11v-.06h-.18a1.82,1.82,0,0,1-3.57.16h-.12v.26h0l-10.16-.21h0v-.14h-.26a1.82,1.82,0,0,1-3.5,0h0l-.85-.24h0V576h-.25v-.17l.1-.23h0l-.07-.51a.28.28,0,0,1-.16-.28c0-.15,0-.2.09-.22v-.12a.22.22,0,0,1,.12-.18l.19-.14v-.52h.1l.15-.87h0c-.13,0-.17-.07-.17-.13a.14.14,0,0,1,0-.09h.06l.2-.3h0a.11.11,0,0,1,.06-.11h.14v-.06h0a5.46,5.46,0,0,1,.53-.87l.56-.77v-.06h0v-.07h0v-.16h.15c.06-.14.3-.24.72-.31h.08a38.49,38.49,0,0,1,4.43-.14h1.16v.07A2.6,2.6,0,0,0,934,572.3h0a2.65,2.65,0,0,0,2.32-1.33l.38.32.17.17c.26.25.73.72,1,1h0l.1.09h.56c.45.08.85.15,1.19.23.6.11,1.37.31,1.38.31h.38a2.36,2.36,0,0,1,1.14.8V574h0v.06h0a4,4,0,0,1,.09.48h0l.17.07h0v.55Zm-.45-5.82a2.28,2.28,0,0,1-4.55,0c0-1.19,2.27-4.11,2.27-4.11s2.27,2.92,2.27,4.11m-3.22-6.44a2.28,2.28,0,0,1-4.55,0c0-1.19,2.27-4.11,2.27-4.11s2.27,2.92,2.27,4.11m-5.49,2.33s2.27,2.92,2.27,4.11a2.27,2.27,0,0,1-4.54,0c0-1.19,2.27-4.11,2.27-4.11" fill="#32304e"></path><path d="M554.36,327h-2.92l-1.34-4.8h-8.5l-5.06-7.11c-1.54-2.2,2.41-2.84,3.55-1.54.8.9,4.59,5.89,4.59,5.89h7.6ZM539.1,310.49a2.15,2.15,0,1,1-2.15-2.15,2.15,2.15,0,0,1,2.15,2.15h0m-4.87-1.19.64,3.94a.87.87,0,0,1-.11.57l6.23,9.1h8.44L550.6,327H538.18l2.1-3.51-6.3-9.21h0a.9.9,0,0,1-.89-.76l-.64-3.94a.88.88,0,1,1,1.75-.25" fill="#32304e"></path><path d="M701.77,501.78h-4.16v6.54h4.16c3.69,0,3.69-6.54,0-6.54m1.07,10.11h-5.23v7.26h-4.28v-21h9.51c8.45,0,8.45,13.79,0,13.79" fill="#32304e"></path><path d="M934.2,501.78H930v6.54h4.16c3.69,0,3.69-6.54,0-6.54m1.07,10.11H930v7.26h-4.28v-21h9.51c8.45,0,8.45,13.79,0,13.79" fill="#32304e"></path><path d="M340.4,266.1a4,4,0,0,1,4,4v18.2a4,4,0,0,1-4,4H322.2a4,4,0,0,1-4-4V270.1a4,4,0,0,1,4-4h18.2m0-2H322.2a6,6,0,0,0-6,6v18.2a6,6,0,0,0,6,6h18.2a6,6,0,0,0,6-6V270.1a6,6,0,0,0-6-6h0Z" fill="#32304e"></path><path d="M533,223.78a4,4,0,0,1,4,4V246a4,4,0,0,1-4,4H514.8a4,4,0,0,1-4-4V227.8a4,4,0,0,1,4-4H533m0-2H514.8a6,6,0,0,0-6,6h0V246a6,6,0,0,0,6,6H533a6,6,0,0,0,6-6V227.8a6,6,0,0,0-6-6Z" fill="#32304e"></path><path d="M552.5,393.87a4,4,0,0,1,4,4v18.2a4,4,0,0,1-4,4H534.3a4,4,0,0,1-4-4v-18.2a4,4,0,0,1,4-4h18.2m0-2H534.3a6,6,0,0,0-6,6v18.2a6,6,0,0,0,6,6h18.2a6,6,0,0,0,6-6v-18.2A6,6,0,0,0,552.5,391.87Z" fill="#32304e"></path><path d="M893,393.87a4,4,0,0,1,4,4v18.2a4,4,0,0,1-4,4H874.8a4,4,0,0,1-4-4v-18.2a4,4,0,0,1,4-4H893m0-2H874.8a6,6,0,0,0-6,6v18.2a6,6,0,0,0,6,6H893a6,6,0,0,0,6-6v-18.2A6,6,0,0,0,893,391.87Z" fill="#32304e"></path><path d="M845.83,237.79a4,4,0,0,1,4,4V260a4,4,0,0,1-4,4h-18.2a4,4,0,0,1-4-4V241.8a4,4,0,0,1,4-4h18.2m0-2h-18.2a6,6,0,0,0-6,6V260a6,6,0,0,0,6,6h18.2a6,6,0,0,0,6-6V241.8A6,6,0,0,0,845.83,235.8Z" fill="#32304e"></path><path d="M682.87,202.41a4,4,0,0,1,4,4v18.2a4,4,0,0,1-4,4h-18.2a4,4,0,0,1-4-4v-18.2a4,4,0,0,1,4-4h18.2m0-2h-18.2a6,6,0,0,0-6,6v18.2a6,6,0,0,0,6,6h18.2a6,6,0,0,0,6-6v-18.2A6,6,0,0,0,682.87,200.41Z" fill="#32304e"></path><path d="M933.27,110.46a4,4,0,0,1,4,4v18.2a4,4,0,0,1-4,4h-18.2a4,4,0,0,1-4-4v-18.2a4,4,0,0,1,4-4h18.2m0-2h-18.2a6,6,0,0,0-6,6v18.2a6,6,0,0,0,6,6h18.2a6,6,0,0,0,6-6v-18.2A6,6,0,0,0,933.27,108.46Z" fill="#32304e"></path><path d="M884.32,126.75a4,4,0,0,1,4,4V149a4,4,0,0,1-4,4h-18.2a4,4,0,0,1-4-4V130.8a4,4,0,0,1,4-4h18.2m0-2h-18.2a6,6,0,0,0-6,6V149a6,6,0,0,0,6,6h18.2a6,6,0,0,0,6-6V130.8A6,6,0,0,0,884.32,124.8Z" fill="#32304e"></path><path d="M846.44,270.6a4,4,0,0,1,4,4v18.2a4,4,0,0,1-4,4h-18.2a4,4,0,0,1-4-4V274.6a4,4,0,0,1,4-4h18.2m0-2h-18.2a6,6,0,0,0-6,6v18.2a6,6,0,0,0,6,6h18.2a6,6,0,0,0,6-6V274.6A6,6,0,0,0,846.44,268.6Z" fill="#32304e"></path><path d="M671.77,453.4a4,4,0,0,1,4,4v18.2a4,4,0,0,1-4,4h-18.2a4,4,0,0,1-4-4V457.4a4,4,0,0,1,4-4h18.2m0-2h-18.2a6,6,0,0,0-6,6v18.2a6,6,0,0,0,6,6h18.2a6,6,0,0,0,6-6V457.4A6,6,0,0,0,671.77,451.4Z" fill="#32304e"></path><path d="M172.26,223.68a4,4,0,0,1,4,4v18.2a4,4,0,0,1-4,4h-18.2a4,4,0,0,1-4-4v-18.2a4,4,0,0,1,4-4h18.2m0-2h-18.2a6,6,0,0,0-6,6v18.2a6,6,0,0,0,6,6h18.2a6,6,0,0,0,6-6v-18.2A6,6,0,0,0,172.26,221.68Z" fill="#32304e"></path><path d="M379.57,80.68a4,4,0,0,1,4,4v18.2a4,4,0,0,1-4,4h-18.2a4,4,0,0,1-4-4V84.68a4,4,0,0,1,4-4h18.2m0-2h-18.2a6,6,0,0,0-6,6v18.2a6,6,0,0,0,6,6h18.2a6,6,0,0,0,6-6V84.68A6,6,0,0,0,379.57,78.68Z" fill="#32304e"></path><path d="M969,413.57a4,4,0,0,1,4,4v18.2a4,4,0,0,1-4,4H950.8a4,4,0,0,1-4-4v-18.2a4,4,0,0,1,4-4H969m0-2H950.8a6,6,0,0,0-6,6v18.2a6,6,0,0,0,6,6H969a6,6,0,0,0,6-6v-18.2A6,6,0,0,0,969,411.57Z" fill="#32304e"></path><path d="M1002.19,446.3a4,4,0,0,1,4,4v18.2a4,4,0,0,1-4,4H984a4,4,0,0,1-4-4V450.3a4,4,0,0,1,4-4h18.2m0-2H984a6,6,0,0,0-6,6v18.2a6,6,0,0,0,6,6h18.2a6,6,0,0,0,6-6V450.3A6,6,0,0,0,1002.2,444.3Z" fill="#32304e"></path><path d="M969,446.3a4,4,0,0,1,4,4v18.2a4,4,0,0,1-4,4H950.8a4,4,0,0,1-4-4V450.3a4,4,0,0,1,4-4H969m0-2H950.8a6,6,0,0,0-6,6v18.2a6,6,0,0,0,6,6H969a6,6,0,0,0,6-6V450.3A6,6,0,0,0,969,444.3Z" fill="#32304e"></path><path d="M936.06,446.28a4,4,0,0,1,4,4v18.2a4,4,0,0,1-4,4h-18.2a4,4,0,0,1-4-4v-18.2a4,4,0,0,1,4-4h18.2m0-2h-18.2a6,6,0,0,0-6,6v18.2a6,6,0,0,0,6,6h18.2a6,6,0,0,0,6-6v-18.2A6,6,0,0,0,936.06,444.28Z" fill="#32304e"></path><path d="M379.85,114a4.13,4.13,0,0,1,4.13,4.13h0v18.09a4.13,4.13,0,0,1-4.13,4.13H361.91a4.13,4.13,0,0,1-4.13-4.13h0v-18.1a4.13,4.13,0,0,1,4.13-4.13h17.94m0-2.07H361.91a6.21,6.21,0,0,0-6.2,6.2h0v18.09a6.21,6.21,0,0,0,6.2,6.2h17.94a6.21,6.21,0,0,0,6.2-6.2h0V118.12A6.21,6.21,0,0,0,379.85,111.92Z" fill="#32304e"></path><path d="M340.3,222a4.11,4.11,0,0,1,4.1,4.1h0v18a4.11,4.11,0,0,1-4.1,4.1h-18a4.11,4.11,0,0,1-4.1-4.1h0v-18a4.11,4.11,0,0,1,4.1-4.1h18m0-2h-18a6.11,6.11,0,0,0-6.1,6.1v18a6.11,6.11,0,0,0,6.1,6.1h18a6.11,6.11,0,0,0,6.1-6.1v-18A6.11,6.11,0,0,0,340.3,220Z" fill="#32304e"></path><path d="M552.17,355.87a4,4,0,0,1,4,4v18.2a4,4,0,0,1-4,4H534a4,4,0,0,1-4-4v-18.2a4,4,0,0,1,4-4h18.2m0-2H534a6,6,0,0,0-6,6v18.2a6,6,0,0,0,6,6h18.2a6,6,0,0,0,6-6v-18.2A6,6,0,0,0,552.2,353.87Z" fill="#32304e"></path><path d="M1001.61,413.53a4.62,4.62,0,0,1,4.62,4.62v17a4.62,4.62,0,0,1-4.62,4.62h-17a4.62,4.62,0,0,1-4.62-4.62v-17a4.62,4.62,0,0,1,4.62-4.62h17m0-2.31h-17a6.94,6.94,0,0,0-6.93,6.93v17a6.94,6.94,0,0,0,6.93,6.93h17a6.94,6.94,0,0,0,6.93-6.93v-17A6.94,6.94,0,0,0,1001.61,411.22Z" fill="#32304e"></path><path d="M941.44,555.23a4.62,4.62,0,0,1,4.62,4.62v17a4.62,4.62,0,0,1-4.62,4.62h-17a4.62,4.62,0,0,1-4.62-4.62v-17a4.62,4.62,0,0,1,4.62-4.62h17m0-2.31h-17a6.94,6.94,0,0,0-6.93,6.93v17a6.94,6.94,0,0,0,6.93,6.93h17a6.94,6.94,0,0,0,6.93-6.93v-17A6.94,6.94,0,0,0,941.44,552.92Z" fill="#32304e"></path><path d="M551.87,304.55a4.62,4.62,0,0,1,4.62,4.62v17a4.62,4.62,0,0,1-4.62,4.62h-17a4.62,4.62,0,0,1-4.62-4.62v-17a4.62,4.62,0,0,1,4.62-4.62h17m0-2.31h-17a6.94,6.94,0,0,0-6.93,6.93v17a6.94,6.94,0,0,0,6.93,6.93h17a6.94,6.94,0,0,0,6.93-6.93v-17A6.94,6.94,0,0,0,551.87,302.24Z" fill="#32304e"></path><path d="M709.63,495.52a4,4,0,0,1,4,4v18.2a4,4,0,0,1-4,4h-18.2a4,4,0,0,1-4-4v-18.2a4,4,0,0,1,4-4h18.2m0-2h-18.2a6,6,0,0,0-6,6v18.2a6,6,0,0,0,6,6h18.2a6,6,0,0,0,6-6v-18.2A6,6,0,0,0,709.63,493.52Z" fill="#32304e"></path><path d="M942.06,495.52a4,4,0,0,1,4,4v18.2a4,4,0,0,1-4,4h-18.2a4,4,0,0,1-4-4v-18.2a4,4,0,0,1,4-4h18.2m0-2h-18.2a6,6,0,0,0-6,6v18.2a6,6,0,0,0,6,6h18.2a6,6,0,0,0,6-6v-18.2A6,6,0,0,0,942.06,493.52Z" fill="#32304e"></path><path d="M345.58,67.86a4.29,4.29,0,0,1,4.29,4.29h0V87.63a4.29,4.29,0,0,1-4.29,4.29H330.1a4.29,4.29,0,0,1-4.29-4.29h0V72.15a4.29,4.29,0,0,1,4.29-4.29h15.48m0-2.14H330.1a6.44,6.44,0,0,0-6.43,6.43V87.63a6.45,6.45,0,0,0,6.43,6.44h15.48A6.45,6.45,0,0,0,352,87.63V72.15a6.44,6.44,0,0,0-6.44-6.43Z" fill="#35334e"></path><path d="M332.51,85H338l1.24,2.6,1.06-.44-1.65-4a2.32,2.32,0,0,1,0-1.28.8.8,0,0,1,.52-.58c.29-.1.81.39,1.35.67s1.06-.19.81-.7l-1.25-2.53a.77.77,0,0,1,0-.37c0-.19.32-.37.32-.37s.09-.17-.11-.12c-1-.44-4.37,1.7-4.37,3.79H333.5c-.35-.53-.59-1-1.21-1.21a2,2,0,0,0-2,.44s.44.47.72.84a.75.75,0,0,1,.84-.14c.47.21.44.93.3,1.28L330.27,87l1,.58,1.42-2.6Zm9.1,3.23a.58.58,0,0,0-.51-1c-4.81,2.2-8.12,2.07-11.82,0a.58.58,0,0,0-.6,1h0c3.81,2.13,8.09,2.3,12.91,0" fill="#35334e"></path><path d="M331.94,72.55a1.08,1.08,0,0,0-1.09-.88c-1,0-1.36.84-1.36,1.72s.37,1.67,1.36,1.67A1.13,1.13,0,0,0,332,74h1.06a2.1,2.1,0,0,1-2.2,2h0a2.62,2.62,0,0,1,0-5.23,2,2,0,0,1,2.16,1.8Z" fill="#35334e"></path><path d="M333.8,70.87h1.1v4.07h2.43v.93H333.8Z" fill="#35334e"></path><path d="M342.19,74a1.86,1.86,0,0,1-2.13,2c-1.35,0-2.13-.65-2.13-2V70.87H339V74c0,.54.14,1.08,1,1.08s1-.34,1-1.08V70.87h1.1Z" fill="#35334e"></path><path d="M343.14,70.87h2.35c1,0,1.6.31,1.6,1.24a1.1,1.1,0,0,1-.68,1,1.22,1.22,0,0,1,.91,1.27c0,1-.86,1.45-1.76,1.45h-2.42Zm1.1,2h1.11c.39,0,.67-.17.67-.59s-.36-.58-.75-.58h-1Zm0,2.12h1.17c.44,0,.82-.14.82-.66s-.33-.71-.79-.71h-1.2Z" fill="#35334e"></path></g></svg>