<svg xmlns="http://www.w3.org/2000/svg" id="Ebene_1" data-name="Ebene 1" viewBox="0 0 1190 700"><title>AEZ-EG</title><g id="floor"><path d="M1026.7,142.51v358.9l-148.27-.1.19-20.38h-19v7.5H708v-9.28l-23.52.11.19,20.74c-84.77.73-192.2,52.67-210.41,61.78V474.24l-66.91.08-.26,122.87H371.58v7.13H357.12V612H317.78V554h3.82l.4-190.44H145v-63H127.93V139l152.41.16,7.27.12-.1,60.32,14.24-.07V128h49v30l36-.11L386.4,178H401l13.16-.28V157.87h15.59l-.08,55.45,28.38.18h21.26V184.87H508l37.75.18V157.49h14.67l.2,56h11.19V185.34h20.5l-.06-28,85.88-.25L678,185h6.84V168.29h8.07v-6.92h20.37V129.15H718l170.63.22v13.07l25.41.07Z" fill="#dfdee1"></path><path d="M456.45,264.57H433.23V247h23.22Zm-22.22-1h21.22V248H434.23Z" fill="#656768"></path><rect x="487.78" y="241.78" width="27.55" height="20.9" fill="#fff"></rect><path d="M889.44,426.49a20.5,20.5,0,0,1-41,0c.07-15.37,11.15-18.51,11.15-18.51l1.1,1.45,17.53.17,1.53-1.45s9.74,5.06,9.69,18.34" fill="#fff"></path><path d="M509,426a20.5,20.5,0,0,1,41,0h0c-.07,15.37-11.67,18.5-11.67,18.5l-4.12-1.17-9-.07-4.08,1.47S508.93,439.32,509,426" fill="#fff"></path><path d="M313.74,286.12s-9.58-10.27-9.71-10.29a25.73,25.73,0,0,1,35.31,8.79c.31.52.61,1.05.88,1.58,0,.3-7.46,7.36-7.46,7.36s3.4,13-6.11,17c-.52.22-17.89-18.65-17.89-18.65Z" fill="#fff"></path><path d="M804,263.68l-6.47-3.18a26.16,26.16,0,0,1,24-16c18.39-.11,24,16.1,24,16.1l-8.73,3.2v13.58l8.58,3.38a25.67,25.67,0,0,1-5.36,8.41,30.53,30.53,0,0,1-8.66,5.36l-3.08-5.5H814.65l-3.21,5.47s-8.48-4.65-11-8.55a39.25,39.25,0,0,1-2.9-5.89c0-.06,6.33-2.73,6.33-2.73Z" fill="#fff"></path><rect x="671.28" y="419.43" width="56.01" height="12.68" fill="#fff"></rect><polygon points="358 312.97 358 354.86 433.83 354.98 433.75 326.75 486.83 326.71 486.83 322.54 451.26 322.54 451.02 298.66 429.83 298.66 429.89 341.07 362.28 341.02 362.28 312.97 358 312.97" fill="#fff"></polygon><path d="M670.78,432.61h57V418.93h-57Zm1-12.68h55v11.68h-55Z" fill="#656768"></path><path d="M889.94,426.49A22.13,22.13,0,0,0,885,412a18.13,18.13,0,0,0-5-4.31l-.32-.16L878,409.1l-17.08-.17-1.16-1.52-.33.09a15,15,0,0,0-5.76,3.61c-2.6,2.54-5.71,7.26-5.75,15.37a21,21,0,1,0,42,0Zm-21,20a20,20,0,0,1-20-20c.06-13.51,8.66-17.28,10.47-17.92l1,1.36,18,.17,1.41-1.33c1.62,1,9.16,6.23,9.12,17.71A20.08,20.08,0,0,1,868.94,446.49Z" fill="#656768"></path><path d="M529.49,405a21.07,21.07,0,0,0-21,21c0,13.45,12.33,19.14,12.45,19.19l.18.08,4.18-1.5,8.83.07,4.19,1.19h.13a15.84,15.84,0,0,0,6-3.61c2.73-2.54,6-7.26,6-15.38a21,21,0,0,0-21-21h0Zm8.83,39-4-1.13-9.21-.09-4,1.43c-1.48-.74-11.73-6.27-11.68-18.19a20,20,0,0,1,34.27-14,19.71,19.71,0,0,1,5.79,14.1C549.43,440,539.55,443.64,538.32,444Z" fill="#656768"></path><path d="M326.71,311h.13c9-3.75,6.9-15.25,6.47-17.24,7.36-7,7.39-7.25,7.41-7.48v-.15l-.07-.13a26.22,26.22,0,0,0-35.26-11.47h0c-.55.28-1.08.58-1.61.89l-1.1.67,1.13.23c.74.73,5.75,6.08,9.27,9.84l-5,5.73.3.33C324.32,309.5,326.19,311,326.71,311Zm-12.3-24.88-.31-.33c-6-6.46-8.33-8.91-9.26-9.85a25.23,25.23,0,0,1,34.4,9.48h0l.4.73c-.85,1-4.75,4.7-7.22,7l-.21.2.07.29c0,.12,3.14,12.4-5.6,16.26-1.52-1.19-10.9-11.21-17.25-18.1Z" fill="#656768"></path><path d="M515.83,241.28H487.28v21.9h28.55Zm-1,20.9H488.28v-19.9h26.55Z" fill="#656768"></path><path d="M742.73,420.33v13h66.49v-1.75h31.87v-9.7H809.22v-1.6Zm67.09,2.6h30.27v7.7H809.82Zm-1.6,9.45H743.73V421.33h64.49Z" fill="#656768"></path><path d="M846.25,260.93l-.16-.46c-.06-.16-6-16.44-24.35-16.44h-.18a26.61,26.61,0,0,0-24.45,16.27l-.18.44.43.2,6.17,3-.18,13c-6.29,2.66-6.29,2.67-6.33,3v.23a38.63,38.63,0,0,0,3,6c2.6,4,10.87,8.52,11.22,8.71l.43.23,3.31-5.64h13.1l3.15,5.62.41-.16a30.7,30.7,0,0,0,8.82-5.46,25.89,25.89,0,0,0,5.49-8.6l.17-.46L837.4,277V264.19Zm-1.44,20.15a24.82,24.82,0,0,1-5.06,7.77,29.78,29.78,0,0,1-8.09,5.09l-3-5.37H814.4l-3.11,5.29c-1.73-1-8.3-4.89-10.44-8.14a37.35,37.35,0,0,1-2.68-5.37c1-.47,4-1.72,5.88-2.52l.3-.13.2-14.28-.28-.14-6-3A25.61,25.61,0,0,1,821.57,245c16.09-.06,22.3,12.71,23.4,15.31l-8.58,3.15v14.27Z" fill="#656768"></path><path d="M500.22,427.59V426.2a28.47,28.47,0,0,1,8.11-20l.35-.36L491.76,389.2V371.6l-4.41-3.88V351.65h0v-1h0V322.74l3.11-3.15v-3.41l-2.37-2.37v-6.75l2.37-2.37v-4l-2.11-2.11v-9.34h2.11V278.49L486,274H474.47v-5.12H429.29L387.8,269H355.56l5.12,5.13L357,277.9l-5.45-5.45v14.84l-8.37,8.37v.25a26.75,26.75,0,0,1,.34,4.28A26.3,26.3,0,0,1,341.26,311v.08A26.93,26.93,0,0,1,323.81,326l-.37.1V335h-2.55l.65,28.6-.15,19.29h0v1h0l.07,18.79-.07,25.49H500.25Zm-27-76.15,13.12.2v15.81H473.21Zm7.14-.89-7.14-.11V327.22h13.12v23.43Zm-7.14-24.34h-40l.08,28.22H413.43l-23.6-.09H358.5V313.47h3.28v28h.57l67.43.06h.61l-.07-42.42h20.2l.24,23.88h35.57v3.17Zm16.26-25.1v3.17l-2.37,2.37v7.58l2.36,2.37v2.58L486.63,322H451.75l-.23-22.88h36Zm-16-31.19V275H485.6l3.87,3.87v9.34h-2.11v9.91H451.52V269.9Zm-23,0v28.2h-20.2V269.94Zm-76.86.13h13.19l-.11,21.46H373.6Zm0,43.39h0v-21H387.7l.1-22.44,41.48-.06v28.18h0l.07,42.41-34.66-.06h-32v-27Zm-29-13.27a28,28,0,0,0-.32-4.19l8.31-8.31v-12.8l4.45,4.45,5.11-5.11L358,270.08h14.6v42.39H345l-2.58-1.54a27.47,27.47,0,0,0,2.13-10.73Zm21.7,126.92H322.4l.07-24h35.89V398h7.9Zm-43.85-43.28h39.88l.09,8.84V397h-5.06v5.08H322.46Zm111.88,43.28h-67V397h-3.84v-1.93l-.13-12.28h-41l.15-19.29-.62-27.5h2.53v-9.18A28,28,0,0,0,342,311.92l2.63,1.48.12.07h12.8v41.89h.61l55.48.09h8.09v38.93l8.52,14.34,4.26,7.17Zm1,0v-.82l.14-10.66-7-11.87-5.73-9.64V355.45h11.65l-.08-28.23h38v41.23h14.39l4.1,3.6v16.88l-16.94-.14h0l-7.7,4.21-14.54,8h0v7l.1,19.21Zm17.46,0-.1-18v-7.54l14-7.71,7.38-4,17,.15,16.22,16a29.48,29.48,0,0,0-8,20.31v.92Z" fill="#656768"></path><path d="M881.42,377v1.73L881.16,399l.3.13a29.72,29.72,0,0,1,17.42,27,29.35,29.35,0,0,1-3.52,14h0a29.76,29.76,0,0,1-15.55,13.66l-1.45.83-.43,47,126,.09h.5V377.2l-99.57-.2Zm122,123.85-124.49-.09.41-45.47.88-.51A30.67,30.67,0,0,0,896,441.17l17.24,9h90.18Zm0-51.7H913.48l-17-8.89A30.7,30.7,0,0,0,883.27,399l-1.08-.53.29-19.62v-.73L904.9,378l98.56.21Z" fill="#656768"></path><path d="M1027.2,142l-138.07-.07V128.87h-80V148.8H792.25v94h9.65l.14-.13a29.65,29.65,0,0,1,39.91.26l.14.13h39.26L881.22,311h0v.86h0v59.45h146V311.55ZM821.35,234.06a30.57,30.57,0,0,0-19.83,7.72h-8.27v-92h15.93l.56,35.52h11.62Zm60.18-79.86-.17,87.8H842.48a30.6,30.6,0,0,0-20.13-8V184.32H810.72l-.55-35V129.86h71.41Zm.69,216.08V312l144,.29v58Zm144-59-144-.43.13-67.8h0l.17-88.44V129.86h5.55v13.08l138.07.07Z" fill="#656768"></path><path d="M315.88,242.53H416.6l.1-41.38-4.54-4.54H401.63V178.53h0v-1H387l.35-20.09-36,.11v-16.4h-7.49l-28.42.18V212.6H301.82v24l5.93,5.93Zm85.75-44.93h10.13l4,4-.09,40h-14Zm-1-19.07h0V196.6h0v44.93H378.7l.33-63Zm-50.26-36.38v16.42l36-.11-.37,19.1h-8l-.33,64H344.86V142.15ZM316.46,212.6V142.33l27.42-.18v99.41H316.45v-29Zm-13.64,1h12.64v27.92h-7.3l-5.34-5.34Z" fill="#656768"></path><path d="M144.59,364.06H287.81l.37-224.82v-.5l-143.57-.24Zm1-63.94V139.5l141.57.23-.37,223.33H145.59Z" fill="#656768"></path><path d="M600,440.5H569.7l-.54,56.41h30.4L599.28,514l.64-.17a404.7,404.7,0,0,1,55.89-11.38h.44l.17-61.43v-.5H600Zm-.39,55.32v.09h-29.4l.52-54.41H600Zm1,1.09h0v-1.06h0V492l.39-50.5h54.45l-.17,60a405.44,405.44,0,0,0-55,11.17Z" fill="#656768"></path><path d="M669.57,479.74h20.65V440.5h-21Zm19.65-38.24v37.21H670.57l-.32-37.24Z" fill="#656768"></path><path d="M458.51,242.78h3.8l6.21-8.26h77.69v-50l-37.75-.18H479V213H458.22l-28.91-.18v30h29.2Zm50-57.46,36.75.17v48h-36.8ZM480,225.82V213h0V185.37h27.46v48.21h-27.6Zm-21.32,1.45.08-13.31H479v19.57H468l-6.21,8.26h-3.3Zm-28.29-13.49,27.38.17-.08,13.31-.09,14.52H430.31Z" fill="#656768"></path><path d="M732.78,243h0l38.79-.12h14.94V148.64l-24.2-.22-7.1-.09h-17l-25.44-.08v12.62h-4.62V240l3.25,3Zm52.73-1.17H771.57v-33.4h13.94Zm-46.86-62.07V149.33h16.56l30.3.3v57.8H770.57v34.42l-37.79.12V185.5h0v-5.76Zm-29.49-17.87h4.62V149.25l23.88.08v29.41h-5.87v5.76H722.7l-8.89,8.89h-4.64Zm0,32.52h5l8.89-8.89h8.68v33.33l-11.31-.09-11.31-.09Zm0,25.27,11.31.09,11.31.09V242l-20,.06-2.63-2.5Z" fill="#656768"></path><path d="M321.36,440.44l-.26,113.08h-3.83v59h40.34v-7.68h14.46v-7.12h35.51L407.85,440l-86,.45Zm1,1,84.48-.44-.25,155.7H371.08v7.12H356.62v7.68H318.27v-57h3.83Z" fill="#656768"></path><path d="M842.88,439.91l-.14-.27-44.71.29h0l-28.22.18h0l-28.75.18h0l-33.56.21v48.41H860.11l.15-34.25-.73-.4A29.52,29.52,0,0,1,842.88,439.91ZM741,487.91H708.5V441.49l32.56-.21Zm28.75,0H742.06V441.28l27.75-.17Zm28.22,0H770.8V441.1l27.22-.17Zm61.08,0H799v-47l43.11-.28a30.39,30.39,0,0,0,17,14.52l.13.08Z" fill="#656768"></path><path d="M588.61,248.7H565.14v14.92h23.47Zm-1,13.92H566.14V249.7h21.47Z" fill="#656768"></path><path d="M554.61,440.75c-.34.58-.7,1.14-1.08,1.69-.14.21-.3.41-.45.61s-.46.64-.71,1a9.68,9.68,0,0,1-.71.85l-.51.59-.94,1-.34.34c-.37.36-.76.71-1.15,1.06l-.17.14a28.64,28.64,0,0,1-37.84-.42l-.14-.13-36.81-.27V562.57l.72-.36c9.41-4.7,34.87-17,68.1-29.57l.32-.12.1-53.72h21.47V440.5h-9.74ZM542,477.8h0v1h0l-.11,53c-32.28,12.26-57.21,24.2-67.13,29.2V448.15l35.43.26a29.54,29.54,0,0,0,32,4.77Zm21.47-36.3v36.26H543l.16-25a29.32,29.32,0,0,0,5.92-4l.07-.06c.44-.38.88-.77,1.3-1.18l.23-.23q.55-.54,1.08-1.11l.42-.48c.28-.32.56-.64.83-1l.66-.88.52-.69c.39-.55.75-1.11,1.1-1.69Z" fill="#656768"></path><path d="M518.88,275H507.2l-4.86,4.84.13,9.62h0l.17,13h11.55l2.29,2.29h0l3.24,3.24h16.87l9-9L548,296.5v-14l-7.5-7.5Zm-15.53,5.25,4.27-4.25h10.26v13.46H503.47Zm13.13,23.09-1.88-1.88h-11l-.14-11h14.39v11.48ZM536.17,307h-16l-3-2.94,1.69-1.69v-11.9h18l7.92,7.92ZM547,296.08l-1.54,1.54-8.22-8.22H518.88V276h21.23l6.92,6.92Z" fill="#656768"></path><path d="M541.81,322.25h0l.33,28.94h17.93v3.29l19,.17V318.8l.43-2.8V270.07h-6.33l-4.69,4.69-2.67-2.67-5.48,5.48,2,2-2.62,2.62v16l-3.94,3.93h0l-14,13.93ZM578,353.64l-17-.15v-3.3H543.13l-.31-27,17.61-.06,17.61-.06Zm-17.39-55v-16l3-3-2-2,4.06-4.06,2.67,2.67,5.1-5.1h4.91V316l-.36,2.34-13.46-.06v-6.57l-8.26-8.8Zm-5,5,8,8.49v7.17l14.39.06v2.85l-17.61.06-17.61.06-.07-5.8Z" fill="#656768"></path><path d="M592.24,242.51l57.92.23V224.43l27.82-.21,3-2.28h4.74l7.58-7.55.07-28.87h0v-1h0V167.79H684.3V184.5h-5.84l.07-27.9-86.88.26.06,28-20.5-.05V213H560.09v29.43l32.18.13Zm100.17-73.72V184.5h-7.06V168.79Zm-14,45.34h0v-1h0l.07-27.63h13.9V214l-7,7h-7Zm.9,7.82-1.7,1.28-27.48.21v-9.12l27.27-.17V222h1.94Zm-107-36.11h20.5l-.06-28,84.87-.25-.07,29.21-.08,26.33-28.27.18v11.13h0v17.3l-55.92-.22V213h-21ZM561.1,241.39V214h31.16v27.55Z" fill="#656768"></path><path d="M872.15,268.8H861.38v10.77h10.77Zm-1,9.77h-8.77V269.8h8.77Z" fill="#656768"></path><path d="M842.74,412.77A29.75,29.75,0,0,1,853.58,401h0l.43-.26a30.34,30.34,0,0,1,4.14-2h0c.63-.25,1.28-.48,1.93-.69l.43-.13c.67-.21,1.35-.39,2-.55l.39-.09V363l-36.44.27h-77V413h93.1ZM766.06,412H750.51V364.16h15.55Zm1,0V364.18h30.65c.06,25.65.14,41.39.19,47.83Zm31.84,0c0-6.42-.08-22-.19-47.83h27l.46,47.8Zm27.83-41.89-.06-5.92,35.25-.26v32.41c-.66.16-1.3.34-1.94.54l-.39.13c-.56.18-1.11.38-1.65.59l-.22.09a30.47,30.47,0,0,0-3.82,1.84l-10.07-17h-17Zm.4,41.89-.28-28.49H843.3l9.78,16.54A30.7,30.7,0,0,0,842,412Z" fill="#656768"></path><path d="M512.13,359l6.49-6.49,1-1,2-2H527l5.28-5.28V324.34l-6.79-6.79H516l-4.77-4.77h-7.55l-4.82,4.85v18.65h4.91v3.34H498.9v13.91l5.46,5.46Zm7.49-29.82V318.55h5.51l6.2,6.2v10.63H519.62Zm0,17V336.4h11.71v7.4l-4.69,4.69h-5.41l-1.61,1.61ZM499.9,318l4.23-4.26h6.72l4.77,4.77h3v9.62H499.9Zm0,22.57h4.91v-5.34H499.9v-6.11h18.72v16H499.9Zm0,5.55h18.72V351l-6.9,6.9h-6.94L499.9,353Z" fill="#656768"></path><path d="M684.48,269.12H584.93v29.39l-.16,19.22-4,5v33.68h57.4V383H599.72l-27.6-.58L555.21,382H543.86V353.49h-6.42l-6.89,6.89h-5.42l-3.74,3.74v6.63h-6.7v14.71H514l.71.71v.29H515l11.17,11.18h.23c.81-.08,1.65-.12,2.48-.12a28.48,28.48,0,0,1,22.74,11.21h0a27,27,0,0,1,2.62,4.06l.14.27H742.15V355.35H731.58l-.1-21.16V310.63h6.14v-4.36h11v32.2H778l31.69.12h1l22.34-.08.06,16.67,29.78-.25v-22.6h0v-33l-4.82-4.82H845.37l-.15.18c-2.57,3-6.81,5.62-11.93,7.26h0a38.32,38.32,0,0,1-23,.17h0a31.51,31.51,0,0,1-17.63-14c-.42-.69-.89-1.4-1.44-2.18h0l-.24-.34-.34-.48h0a40.68,40.68,0,0,0-24.16-15.82h-82ZM515.69,371.75h6.7v-7.21l3.16-3.16H531l6.89-6.89h5v31H515.72Zm13.18,24.75a18.32,18.32,0,0,0-2.34.1L516.4,386.46h27.46V383h10.35v21.63L552,407.58A29.48,29.48,0,0,0,528.87,396.5ZM572,412H555a28.9,28.9,0,0,0-2.34-3.64l2.53-3.42V383l16.79.41Zm27.16,0H573V383.47l26.21.55Zm25.28,0H600.15l.06-28h24.22Zm237.49-58.18-27.79.24V338.4h0v-6l27.86-.16Zm-16.09-58.45h11.85l4.24,4.24v31.61l-27.87.16L833.94,306v-3.26c5.06-1.74,9.24-4.29,11.89-7.33Zm-12.9,7.6.12,29.42h0v5l-22.34.08-.1-34.34a39.39,39.39,0,0,0,22.31-.13ZM791.8,288.5a32.89,32.89,0,0,0,17.83,14.36V303l.1,34.49-30.17-.12H779V298l11.46-11.46A20,20,0,0,1,791.8,288.5Zm-32.16,6.42V270.14h6.64a39.66,39.66,0,0,1,23.63,15.55L778,297.56V337.4H749.63V302.58Zm-22-24.8h21v24.29l-10,7.66v3.12h-11Zm-68.15,0h15l.16,15.43.12,11.86H669.48Zm-83.55,0h13.31V298H585.93ZM655.42,412h-30V384h30Zm57.17,0H693.2V384.6h19.39Zm0-28.4H692.2V412H656.42V383H639.17V356.38H712.6Zm28.53-27.3V412H713.59V356.35Zm-37.21-57.6V270.12h32.71v39.5l-32.71.07Zm26.57,11.93v23.56l.1,21.15H581.75V323.08l4-5,.16-19h14.31v-29h68.24V298.4h16.79l17.64.28v12Zm-27.57-40.51v27.56l-17.15-.27-.12-11.85-.16-15.45Z" fill="#656768"></path><path d="M1026.7,141H914l-23.91-.07V127.87h-1.5L718,127.65h-6.21v32.22H691.41v6.92h-8.07V183.5H679.5l.07-26.39V155.6h-1.51l-85.88.25h-1.5v1.5l.06,26.53h-20.5V212H562l-.2-54.51V156H544.18v27.5L508,183.32H478V212H458.19l-26.88-.17.08-54v-1.51h-18.6v19.9l-11.69.25H388l.33-18.58v-1.53H386.8l-34.51.1v-30h-52V198l-11.24.06.1-58.81v-1.48h-1.48l-7.27-.12L128,137.46h-1.5V302h17.07v63h177l-.43,187.46h-3.82v61h42.34v-7.68h14.46V598.7h35.51v-1.5l.26-121.38,63.91-.08v88.45l2.2-1.09c20.32-10.16,125.91-60.9,209.75-61.62h1.5V500L686,480.73l20.51-.1v9.27H861.1v-7.49h16l-.18,18.87v1.51h1.51l148.27.1h1.5V141ZM859.15,480.41v7.5H708.5v-9.28l-24.53.11.19,20.74c-83.25.91-187.4,50.51-209.41,61.47V473.74l-67.41.08h-.5l-.26,122.87h-35.5v7.13H356.62v7.68H318.28v-57h3.82l.44-191V363h-177V300H128.47V139.46l151.9.16,6.78.11-.1,60.33,15.24-.07V128.55h48v30l36-.1L386,178.57h15.13l13.65-.29V158.37h14.59l-.08,55.44,28.88.18h21.76V185.36h28l38.26.18V158h13.67l.2,56H572.3V185.84h20.5l-.06-28,84.88-.25-.07,27.89h7.84V168.79h8.07v-6.92h20.37V129.65l174.34.22v13.07L914,143h112.2V500.9l-147.26-.1.19-20.38Z" fill="#656768"></path><path d="M573.78,436H555.56V418.44h18.22Zm-17.22-1h16.22V419.44H556.56Z" fill="#656768"></path></g><g id="shops"><path id="p65-1" d="M452.74,427.12H499.2v-.92a29.48,29.48,0,0,1,8-20.31l-16.22-16-17-.15-7.38,4-14,7.71V409Z" fill="#c5acd3" data-enabled="1" class="mapplic-clickable mapplic-location-type--shop"></path><path id="p65-2" d="M510.18,448.42l-35.43-.26V561c9.92-4.94,34.85-16.89,67.15-29.13l.11-53h0v-1h0l.16-24.61a29.54,29.54,0,0,1-32-4.77Z" fill="#c5acd3" data-enabled="1" class="mapplic-clickable mapplic-location-type--shop"></path><polygon id="p65-3" points="708.5 487.91 741.05 487.91 741.05 441.28 708.5 441.49 708.5 487.91" fill="#c5acd3" data-enabled="1" class="mapplic-clickable mapplic-location-type--shop"></polygon><polygon id="p65-4" points="742.05 487.91 769.8 487.91 769.8 441.1 742.05 441.28 742.05 487.91" fill="#c5acd3" data-enabled="1" class="mapplic-clickable mapplic-location-type--shop"></polygon><polygon id="p65-5" points="770.8 487.91 798.02 487.91 798.02 440.93 770.8 441.1 770.8 487.91" fill="#c5acd3" data-enabled="1" class="mapplic-clickable mapplic-location-type--shop"></polygon><path id="p65-6" d="M882.44,378v.73l-.29,19.62A30.71,30.71,0,0,1,897,439.15h0c-.17.37-.35.73-.53,1.08l17,8.89h89.94v-71L904.86,378Z" fill="#c5acd3" data-enabled="1" class="mapplic-clickable mapplic-location-type--shop"></path><polygon id="p65-7" points="1026.2 143.01 888.13 142.94 888.13 129.87 882.58 129.86 882.53 154.6 882.36 243.04 882.35 243.04 882.22 310.84 1026.18 311.26 1026.2 143.01" fill="#c5acd3" data-enabled="1" class="mapplic-clickable mapplic-location-type--shop"></polygon><polygon id="p65-8" points="771.57 241.85 785.51 241.81 785.51 208.43 771.57 208.43 771.57 241.85" fill="#c5acd3" data-enabled="1" class="mapplic-clickable mapplic-location-type--shop"></polygon><polygon id="p65-9" points="678.51 185.5 678.45 213.13 678.45 213.13 678.45 213.73 678.45 214.13 678.44 214.13 678.41 220.95 682.41 220.9 682.36 220.93 685.35 220.92 692.35 213.95 692.41 185.5 684.36 185.5 678.51 185.5" fill="#c5acd3" data-enabled="1" class="mapplic-clickable mapplic-location-type--shop"></polygon><polygon id="p65-10" points="507.46 185.32 480 185.32 479.95 212.95 479.95 212.95 479.93 225.82 479.91 233.53 507.46 233.53 507.46 185.32" fill="#c5acd3" data-enabled="1" class="mapplic-clickable mapplic-location-type--shop"></polygon><polygon id="p65-11" points="457.61 227.26 457.69 213.95 430.31 213.78 430.31 241.78 457.52 241.78 457.61 227.26" fill="#c5acd3" data-enabled="1" class="mapplic-clickable mapplic-location-type--shop"></polygon><polygon id="p65-12" points="386.37 158.47 350.37 158.57 350.37 142.15 344.88 142.15 344.89 241.56 377.7 241.54 378.03 177.57 386.04 177.56 386.37 158.47" fill="#c5acd3" data-enabled="1" class="mapplic-clickable mapplic-location-type--shop"></polygon><polygon id="p65-13" points="386.01 178.56 379.03 178.57 378.7 241.54 400.6 241.53 400.6 196.6 400.63 196.6 400.64 178.53 400.63 178.53 386.01 178.57 386.01 178.56" fill="#c5acd3" data-enabled="1" class="mapplic-clickable mapplic-location-type--shop"></polygon><polygon id="p65-14" points="343.89 241.56 343.89 230.8 343.88 142.15 316.46 142.33 316.46 212.6 316.46 212.6 316.46 241.53 343.89 241.56" fill="#c5acd3" data-enabled="1" class="mapplic-clickable mapplic-location-type--shop"></polygon><polygon id="p65-15" points="302.82 236.19 308.16 241.53 315.46 241.53 315.46 241.15 315.46 213.6 302.82 213.61 302.82 236.19" fill="#c5acd3" data-enabled="1" class="mapplic-clickable mapplic-location-type--shop"></polygon><polygon id="p65-16" points="450.46 269.95 430.28 269.98 430.31 290.72 430.32 298.16 450.52 298.16 450.52 298.16 450.49 284.05 450.46 269.95" fill="#c5acd3" data-enabled="1" class="mapplic-clickable mapplic-location-type--shop"></polygon><path id="p65-17" d="M853.08,400.09l-9.78-16.54H826.86l.28,28.49H842A30.7,30.7,0,0,1,853.08,400.09Z" fill="#c5acd3" data-enabled="1" class="mapplic-clickable mapplic-location-type--shop"></path><path id="p65-18" d="M826.13,412l-.46-47.8h-27c.11,25.79.17,41.41.19,47.83Z" fill="#c5acd3" data-enabled="1" class="mapplic-clickable mapplic-location-type--shop"></path><polygon id="p65-19" points="638.17 355.38 645.15 355.38 730.58 355.34 730.48 334.19 730.48 310.63 702.91 310.69 702.91 298.68 685.27 298.4 668.48 298.4 668.48 270.12 600.24 270.12 600.24 299.05 600.24 299.05 585.93 299.05 585.76 318.08 581.77 323.08 581.77 355.4 638.17 355.38 638.17 355.38" fill="#c5acd3" data-enabled="1" class="mapplic-clickable mapplic-location-type--shop"></polygon><polygon id="p65-20" points="287.18 139.74 145.61 139.5 145.59 300.12 145.59 363.06 286.81 363.06 287.18 139.74" fill="#c5acd3" data-enabled="1" class="mapplic-clickable mapplic-location-type--shop"></polygon><path id="p65-21" d="M600.6,492v3.81h0v1.06h0l-.26,15.81a405.44,405.44,0,0,1,55-11.17l.17-60H601Z" fill="#c5acd3" data-enabled="1" class="mapplic-clickable mapplic-location-type--shop"></path><polygon id="p65-22" points="670.56 478.74 689.21 478.71 689.21 441.5 670.24 441.5 670.56 478.74" fill="#c5acd3" data-enabled="1" class="mapplic-clickable mapplic-location-type--shop"></polygon><polygon id="p65-23" points="882.22 370.29 1026.2 370.29 1026.18 312.27 882.22 311.98 882.22 370.29" fill="#c5acd3" data-enabled="1" class="mapplic-clickable mapplic-location-type--shop"></polygon><polygon id="p65-24" points="677.91 221.95 677.4 221.96 677.41 221.44 677.43 214.13 650.16 214.31 650.16 223.43 677.64 223.22 679.34 221.95 677.91 221.95" fill="#c5acd3" data-enabled="1" class="mapplic-clickable mapplic-location-type--shop"></polygon><polygon id="p65-25" points="545.21 185.49 508.46 185.32 508.46 233.53 545.21 233.53 545.21 185.49" fill="#c5acd3" data-enabled="1" class="mapplic-clickable mapplic-location-type--shop"></polygon><polygon id="p65-26" points="468.02 233.53 478.91 233.53 478.95 213.95 458.69 213.95 458.61 227.26 458.52 241.78 461.82 241.78 468.02 233.53" fill="#c5acd3" data-enabled="1" class="mapplic-clickable mapplic-location-type--shop"></polygon><path id="p65-27" d="M344.55,300.2a27.46,27.46,0,0,1-2.16,10.73l2.58,1.54H372.6V270.08H358l4.12,4.13L357,279.32l-4.45-4.45v12.84L344.23,296A28.08,28.08,0,0,1,344.55,300.2Z" fill="#c5acd3" data-enabled="1" class="mapplic-clickable mapplic-location-type--shop"></path><polygon id="p65-28" points="684.64 285.55 684.49 270.12 669.48 270.12 669.48 297.4 684.76 297.4 684.64 285.55" fill="#c5acd3" data-enabled="1" class="mapplic-clickable mapplic-location-type--shop"></polygon><polygon id="p65-29" points="736.63 270.12 703.91 270.12 703.91 298.7 703.91 309.69 736.63 309.62 736.63 270.12" fill="#c5acd3" data-enabled="1" class="mapplic-clickable mapplic-location-type--shop"></polygon><path id="p65-30" d="M833.93,302.69V306l.11,25.47,27.87-.16V299.65l-4.24-4.24H845.83C843.18,298.45,839,301,833.93,302.69Z" fill="#c5acd3" data-enabled="1" class="mapplic-clickable mapplic-location-type--shop"></path><polygon id="p65-31" points="731.78 241.97 731.78 219.82 720.47 219.74 709.17 219.65 709.17 239.54 711.8 242.04 731.78 241.97" fill="#c5acd3" data-enabled="1" class="mapplic-clickable mapplic-location-type--shop"></polygon><rect id="p65-32" x="585.93" y="270.12" width="13.31" height="27.93" fill="#c5acd3" data-enabled="1" class="mapplic-clickable mapplic-location-type--shop"></rect><polygon id="p65-33" points="318.27 611.5 356.62 611.5 356.62 603.82 371.08 603.82 371.08 596.69 406.59 596.69 406.85 440.99 322.36 441.44 322.1 554.52 318.27 554.52 318.27 611.5" fill="#c5acd3" data-enabled="1" class="mapplic-clickable mapplic-location-type--shop"></polygon><polygon id="p65-34" points="366.25 398.05 363.42 398.05 358.35 398.05 358.35 403.14 322.46 403.14 322.4 427.13 366.25 427.13 366.25 398.05" fill="#c5acd3" data-enabled="1" class="mapplic-clickable mapplic-location-type--shop"></polygon><path id="p65-35" d="M859.26,455.24l-.13-.08a30.39,30.39,0,0,1-17-14.52l-43.11.28v47H859.1Z" fill="#c5acd3" data-enabled="1" class="mapplic-clickable mapplic-location-type--shop"></path><polygon id="p65-36" points="592.24 213.95 571.27 213.95 561.09 213.95 561.07 241.38 592.24 241.51 592.24 213.95" fill="#c5acd3" data-enabled="1" class="mapplic-clickable mapplic-location-type--shop"></polygon><polygon id="p65-37" points="386.8 270.04 373.6 270.08 373.6 291.5 386.69 291.5 386.8 270.04" fill="#c5acd3" data-enabled="1" class="mapplic-clickable mapplic-location-type--shop"></polygon><polygon id="p65-38" points="834.08 338.44 834.07 338.44 834.13 354.1 861.92 353.86 861.92 332.26 834.05 332.43 834.08 338.44" fill="#c5acd3" data-enabled="1" class="mapplic-clickable mapplic-location-type--shop"></polygon><rect id="p65-39" x="566.14" y="249.7" width="21.47" height="12.92" fill="#c5acd3" data-enabled="1" class="mapplic-clickable mapplic-location-type--shop"></rect><path id="p65-40" d="M322.54,363.55l-.15,19.29h40.87l.13,12.28V397h3.84v30.07h67l.14-11.21-4.26-7.17-8.52-14.34V355.47l-31.83-.12H357.5V313.47H344.69l-.12-.07-2.63-1.48a27.92,27.92,0,0,1-17.51,14.9V336H321.9Z" fill="#c5acd3" data-enabled="1" class="mapplic-clickable mapplic-location-type--shop"></path><polygon id="p65-41" points="732.78 185.5 732.78 185.5 732.78 190.75 732.78 241.97 770.57 241.85 770.57 207.43 785.51 207.43 785.51 149.63 755.21 149.33 738.66 149.33 738.66 179.74 732.78 179.74 732.78 185.5" fill="#c5acd3" data-enabled="1" class="mapplic-clickable mapplic-location-type--shop"></polygon><polygon id="p65-42" points="722.69 184.5 731.78 184.5 731.78 178.74 737.66 178.74 737.66 149.33 713.78 149.25 713.79 161.87 709.17 161.87 709.17 193.38 713.8 193.38 722.69 184.5" fill="#c5acd3" data-enabled="1" class="mapplic-clickable mapplic-location-type--shop"></polygon><polygon id="p65-43" points="401.63 197.6 401.6 241.53 415.62 241.53 415.71 201.56 411.75 197.6 401.63 197.6" fill="#c5acd3" data-enabled="1" class="mapplic-clickable mapplic-location-type--shop"></polygon><path id="p65-44" d="M553.7,443.89c-.22.29-.43.59-.66.88s-.55.65-.83,1l-.42.48q-.52.57-1.08,1.11l-.23.23c-.42.41-.85.8-1.3,1.18l-.07.06a29.32,29.32,0,0,1-5.92,4l-.16,25H563.5V441.5h-8.17c-.35.58-.72,1.14-1.1,1.69Z" fill="#c5acd3" data-enabled="1" class="mapplic-clickable mapplic-location-type--shop"></path><path id="p65-45" d="M572,412V383.45L555.21,383v21.94l-2.53,3.42A28.76,28.76,0,0,1,555,412Z" fill="#c5acd3" data-enabled="1" class="mapplic-clickable mapplic-location-type--shop"></path><polygon id="p65-46" points="486.33 350.64 486.33 327.21 473.21 327.21 473.21 350.44 480.36 350.55 486.33 350.64" fill="#c5acd3" data-enabled="1" class="mapplic-clickable mapplic-location-type--shop"></polygon><polygon id="p65-47" points="473.21 351.44 473.21 367.45 486.3 367.45 486.33 351.64 473.21 351.44" fill="#c5acd3" data-enabled="1" class="mapplic-clickable mapplic-location-type--shop"></polygon><polygon id="p65-48" points="518.88 275.95 518.88 289.41 537.26 289.41 545.48 297.62 547.02 296.08 547.02 282.87 540.11 275.95 518.88 275.95" fill="#c5acd3" data-enabled="1" class="mapplic-clickable mapplic-location-type--shop"></polygon><polygon id="p65-49" points="503.47 289.41 517.88 289.41 517.88 275.95 507.62 275.95 503.35 280.19 503.47 289.41" fill="#c5acd3" data-enabled="1" class="mapplic-clickable mapplic-location-type--shop"></polygon><polygon id="p65-50" points="517.88 290.41 503.48 290.41 503.63 301.41 514.6 301.41 516.48 303.28 517.88 301.88 517.88 290.41" fill="#c5acd3" data-enabled="1" class="mapplic-clickable mapplic-location-type--shop"></polygon><polygon id="p65-51" points="536.85 290.41 518.88 290.41 518.88 302.3 517.18 303.99 520.13 306.94 536.17 306.94 544.77 298.33 536.85 290.41" fill="#c5acd3" data-enabled="1" class="mapplic-clickable mapplic-location-type--shop"></polygon><polygon id="p65-52" points="542.82 323.25 543.13 350.2 561.07 350.2 561.07 353.49 578.03 353.64 578.03 323.12 560.42 323.19 542.82 323.25" fill="#c5acd3" data-enabled="1" class="mapplic-clickable mapplic-location-type--shop"></polygon><polygon id="p65-53" points="555.68 303.55 542.74 316.45 542.8 322.25 560.42 322.19 578.03 322.12 578.03 319.27 563.64 319.21 563.64 312.04 555.68 303.55" fill="#c5acd3" data-enabled="1" class="mapplic-clickable mapplic-location-type--shop"></polygon><polygon id="p65-54" points="564.64 311.64 564.64 318.21 578.1 318.27 578.46 315.92 578.46 271.07 573.55 271.07 568.44 276.17 565.77 273.5 561.71 277.56 563.68 279.53 560.64 282.57 560.64 298.6 556.38 302.84 564.64 311.64" fill="#c5acd3" data-enabled="1" class="mapplic-clickable mapplic-location-type--shop"></polygon><polygon id="p65-55" points="599.97 441.5 570.69 441.5 570.17 495.91 599.58 495.91 599.58 495.82 599.97 441.5" fill="#c5acd3" data-enabled="1" class="mapplic-clickable mapplic-location-type--shop"></polygon><path id="p65-56" d="M896,441.17a30.68,30.68,0,0,1-15.76,13.66l-.88.51L879,500.81l124.49.09V450.2H913.26Z" fill="#c5acd3" data-enabled="1" class="mapplic-clickable mapplic-location-type--shop"></path><polygon id="p65-57" points="731.78 218.82 731.78 192.79 731.78 185.5 723.11 185.5 714.22 194.38 709.17 194.38 709.17 218.65 720.47 218.74 731.78 218.82" fill="#c5acd3" data-enabled="1" class="mapplic-clickable mapplic-location-type--shop"></polygon><polygon id="p65-58" points="593.24 241.51 649.16 241.73 649.16 224.44 649.16 224.44 649.16 213.31 677.43 213.13 677.51 186.81 677.59 157.6 592.71 157.85 592.77 185.89 572.27 185.84 572.27 212.95 593.24 212.95 593.24 241.51" fill="#c5acd3" data-enabled="1" class="mapplic-clickable mapplic-location-type--shop"></polygon><polygon id="p65-59" points="362.78 340.52 394.73 340.52 429.39 340.57 429.31 289.73 429.28 269.98 387.8 270.04 387.68 292.5 373.6 292.5 373.6 313.47 373.6 313.47 373.6 313.47 362.78 313.47 362.78 340.52" fill="#c5acd3" data-enabled="1" class="mapplic-clickable mapplic-location-type--shop"></polygon><path id="p65-60" d="M810.73,337.52l22.34-.08v-5h0L832.93,303a39.45,39.45,0,0,1-22.3.17Z" fill="#c5acd3" data-enabled="1" class="mapplic-clickable mapplic-location-type--shop"></path><polygon id="p65-61" points="362.27 383.84 322.39 383.84 322.46 402.14 357.35 402.14 357.35 397.05 362.41 397.05 362.37 392.69 362.27 383.84" fill="#c5acd3" data-enabled="1" class="mapplic-clickable mapplic-location-type--shop"></polygon><polygon id="p65-62" points="435.42 415.65 435.29 426.3 435.27 427.13 451.73 427.13 451.63 407.92 451.59 400.95 451.59 400.95 451.59 400.95 466.13 392.98 473.76 388.79 473.77 388.79 473.77 388.79 490.71 388.93 490.71 372.05 486.61 368.45 472.21 368.45 472.21 351.43 472.21 350.43 472.21 327.21 434.25 327.25 434.33 355.48 422.68 355.48 422.64 394.13 428.37 403.77 435.42 415.65" fill="#c5acd3" data-enabled="1" class="mapplic-clickable mapplic-location-type--shop"></polygon><polygon id="p65-63" points="685.36 184.5 692.41 184.5 692.41 168.79 685.35 168.79 685.36 184.5" fill="#c5acd3" data-enabled="1" class="mapplic-clickable mapplic-location-type--shop"></polygon><rect id="p65-64" x="862.38" y="269.8" width="8.77" height="8.77" fill="#c5acd3" data-enabled="1" class="mapplic-clickable mapplic-location-type--shop"></rect><path id="p65-65" d="M857.76,397.73l.22-.09c.55-.21,1.1-.41,1.65-.59l.39-.13c.64-.2,1.28-.39,1.94-.54V364l-35.25.26.06,5.92.12,12.4h17l10.07,17A31,31,0,0,1,857.76,397.73Z" fill="#c5acd3" data-enabled="1" class="mapplic-clickable mapplic-location-type--shop"></path><rect id="p65-66" x="809.82" y="422.93" width="30.27" height="7.7" fill="#c5acd3" data-enabled="1" class="mapplic-clickable mapplic-location-type--shop"></rect><polygon id="p65-67" points="702.91 297.68 702.91 270.12 685.49 270.12 685.64 285.57 685.76 297.41 702.91 297.68" fill="#c5acd3" data-enabled="1" class="mapplic-clickable mapplic-location-type--shop"></polygon><polygon id="p65-68" points="451.53 299.16 451.75 322.04 486.63 322.04 489.44 319.18 489.47 316.6 487.1 314.23 487.1 306.65 489.47 304.28 489.47 301.11 487.52 299.16 451.53 299.16" fill="#c5acd3" data-enabled="1" class="mapplic-clickable mapplic-location-type--shop"></polygon><polygon id="p65-69" points="473.47 275.04 473.47 269.92 451.46 269.95 451.49 284.05 451.52 298.16 487.36 298.16 487.36 288.25 489.47 288.25 489.47 278.9 485.6 275.04 473.47 275.04" fill="#c5acd3" data-enabled="1" class="mapplic-clickable mapplic-location-type--shop"></polygon><polygon id="p65-70" points="518.62 318.55 515.62 318.55 510.86 313.78 504.13 313.78 499.9 318.04 499.9 328.17 518.62 328.17 518.62 318.55" fill="#c5acd3" data-enabled="1" class="mapplic-clickable mapplic-location-type--shop"></polygon><polygon id="p65-71" points="531.33 324.75 525.13 318.55 519.62 318.55 519.62 328.17 519.62 329.17 519.62 335.38 531.33 335.38 531.33 324.75" fill="#c5acd3" data-enabled="1" class="mapplic-clickable mapplic-location-type--shop"></polygon><polygon id="p65-72" points="519.62 345.17 519.62 346.17 519.62 350.08 521.23 348.47 526.64 348.47 531.33 343.78 531.33 336.38 519.62 336.38 519.62 345.17" fill="#c5acd3" data-enabled="1" class="mapplic-clickable mapplic-location-type--shop"></polygon><polygon id="p65-73" points="499.9 353.11 504.78 357.98 511.72 357.98 518.62 351.08 518.62 346.17 499.9 346.17 499.9 353.11" fill="#c5acd3" data-enabled="1" class="mapplic-clickable mapplic-location-type--shop"></polygon><polygon id="p65-74" points="504.81 340.61 499.9 340.61 499.9 345.17 518.62 345.17 518.62 336.38 518.62 335.38 518.62 329.17 499.9 329.17 499.9 335.27 504.81 335.27 504.81 340.61" fill="#c5acd3" data-enabled="1" class="mapplic-clickable mapplic-location-type--shop"></polygon><path id="p65-75" d="M554.17,404.64V383H543.82v3.52H516.36l10.13,10.14c.77-.07,1.55-.1,2.34-.1a29.48,29.48,0,0,1,23.17,11Z" fill="#c5acd3" data-enabled="1" class="mapplic-clickable mapplic-location-type--shop"></path><polygon id="p65-76" points="542.86 381.98 542.86 354.49 537.86 354.49 530.97 361.38 525.55 361.38 522.39 364.54 522.39 371.75 515.69 371.75 515.69 385.46 542.86 385.5 542.86 381.98" fill="#c5acd3" data-enabled="1" class="mapplic-clickable mapplic-location-type--shop"></polygon><polygon id="p65-77" points="600.15 412.04 624.43 412.04 624.43 384.03 600.21 384.03 600.15 412.04" fill="#c5acd3" data-enabled="1" class="mapplic-clickable mapplic-location-type--shop"></polygon><polygon id="p65-78" points="573 412.04 599.15 412.04 599.21 384.02 573 383.47 573 412.04" fill="#c5acd3" data-enabled="1" class="mapplic-clickable mapplic-location-type--shop"></polygon><polygon id="p65-79" points="625.43 384.03 625.43 412.04 655.42 412.04 655.42 384.03 638.17 384.03 625.43 384.03" fill="#c5acd3" data-enabled="1" class="mapplic-clickable mapplic-location-type--shop"></polygon><rect id="p65-80" x="693.2" y="384.64" width="19.39" height="27.4" fill="#c5acd3" data-enabled="1" class="mapplic-clickable mapplic-location-type--shop"></rect><polygon id="p65-81" points="712.59 356.35 639.17 356.38 639.17 383.03 656.42 383.03 656.42 412.04 692.2 412.04 692.2 383.64 712.59 383.64 712.59 356.35" fill="#c5acd3" data-enabled="1" class="mapplic-clickable mapplic-location-type--shop"></polygon><polygon id="p65-82" points="713.59 356.35 713.59 383.64 713.59 384.64 713.59 412.04 741.15 412.04 741.15 363.24 741.12 356.34 713.59 356.35" fill="#c5acd3" data-enabled="1" class="mapplic-clickable mapplic-location-type--shop"></polygon><polygon id="p65-83" points="750.5 412.04 766.06 412.04 766.06 364.18 750.5 364.16 750.5 412.04" fill="#c5acd3" data-enabled="1" class="mapplic-clickable mapplic-location-type--shop"></polygon><path id="p65-84" d="M797.71,364.21H767.06V412H797.9C797.85,405.6,797.77,389.86,797.71,364.21Z" fill="#c5acd3" data-enabled="1" class="mapplic-clickable mapplic-location-type--shop"></path><path id="p65-85" d="M842.48,242h38.87l.17-87.84V129.82H810.17V149.3l.55,35h11.63v49.75A30.64,30.64,0,0,1,842.48,242Z" fill="#c5acd3" data-enabled="1" class="mapplic-clickable mapplic-location-type--shop"></path><path id="p65-86" d="M809.18,149.8H793.25v92h8.27a30.57,30.57,0,0,1,19.83-7.72V185.32H809.74Z" fill="#c5acd3" data-enabled="1" class="mapplic-clickable mapplic-location-type--shop"></path><polygon id="p65-87" points="748.61 302.08 758.64 294.42 758.64 270.13 737.63 270.12 737.63 305.26 748.61 305.2 748.61 302.08" fill="#c5acd3" data-enabled="1" class="mapplic-clickable mapplic-location-type--shop"></polygon><path id="p65-88" d="M749.63,337.4H778V297.56l11.87-11.87a39.66,39.66,0,0,0-23.63-15.55H759.6v24.78l-10,7.66Z" fill="#c5acd3" data-enabled="1" class="mapplic-clickable mapplic-location-type--shop"></path><path id="p65-89" d="M790.5,286.51,779,298v39.4h.51l30.17.12-.1-34.49v-.16A32.92,32.92,0,0,1,791.8,288.5C791.41,287.87,791,287.22,790.5,286.51Z" fill="#c5acd3" data-enabled="1" class="mapplic-clickable mapplic-location-type--shop"></path><rect id="p65-90" x="434.23" y="248.02" width="21.21" height="15.55" fill="#c5acd3" data-enabled="1" class="mapplic-clickable mapplic-location-type--shop"></rect><rect data-name="<Pfad>" x="556.56" y="419.46" width="16.21" height="15.55" fill="#c5acd3" data-enabled="1" id="p65-91" class="mapplic-clickable mapplic-location-type--shop"></rect></g><g id="service-targets"><rect id="p65-10000" x="294.26" y="295.72" width="28.2" height="28.2" rx="5" fill="#fff" data-enabled="1"></rect><rect id="p65-10001" x="465.49" y="238.13" width="28.2" height="28.2" rx="5" fill="#fff" data-enabled="1"></rect><rect id="p65-10002" x="806.47" y="240.32" width="28.2" height="28.2" rx="5" fill="#fff" data-enabled="1"></rect><rect id="p65-10003" x="854.84" y="412.68" width="28.2" height="28.2" rx="5" fill="#fff" data-enabled="1"></rect><rect id="p65-10004" x="713.19" y="412.68" width="28.2" height="28.2" rx="5" fill="#fff" data-enabled="1"></rect><rect id="p65-10005" x="515.39" y="411.07" width="28.2" height="28.2" rx="5" fill="#fff" data-enabled="1"></rect><rect id="p65-10006" x="653.88" y="227.68" width="28.2" height="28.2" rx="5" fill="#fff" data-enabled="1"></rect><rect id="p65-10007" x="476.59" y="374.19" width="28.2" height="28.2" rx="5" fill="#fff" data-enabled="1" class="mapplic-clickable mapplic-location-type--service"></rect><rect id="p65-10008" x="295.04" y="249.02" width="28.2" height="28.2" rx="5" fill="#fff" data-enabled="1" class="mapplic-clickable mapplic-location-type--service"></rect><rect id="p65-10009" x="133.99" y="189.13" width="28.2" height="28.2" rx="5" fill="#fff" data-enabled="1" class="mapplic-clickable mapplic-location-type--elevator"></rect><rect id="p65-10010" x="335.72" y="121.54" width="28.2" height="28.2" rx="5" fill="#fff" data-enabled="1" class="mapplic-clickable mapplic-location-type--elevator"></rect><rect id="p65-10011" x="847.78" y="110.12" width="28.2" height="28.2" rx="5" fill="#fff" data-enabled="1" class="mapplic-clickable mapplic-location-type--elevator"></rect><rect id="p65-10012" x="915.59" y="127.55" width="28.2" height="28.2" rx="5" fill="#fff" data-enabled="1" class="mapplic-clickable mapplic-location-type--elevator"></rect><rect id="p65-10013" x="648.66" y="446.02" width="28.2" height="28.2" rx="5" fill="#fff" data-enabled="1" class="mapplic-clickable mapplic-location-type--elevator"></rect><rect id="p65-10014" x="806.47" y="272.07" width="28.2" height="28.2" rx="5" fill="#fff" data-enabled="1" class="mapplic-clickable mapplic-location-type--elevator"></rect><rect id="p65-10015" x="394.55" y="93.2" width="28.2" height="28.2" rx="5" fill="#fff" data-enabled="1"></rect><rect id="p65-10016" x="505.02" y="93.2" width="28.2" height="28.2" rx="5" fill="#fff" data-enabled="1"></rect><rect id="p65-10017" x="635.56" y="93.2" width="28.2" height="28.2" rx="5" fill="#fff" data-enabled="1"></rect><rect id="p65-10018" x="154.55" y="76.58" width="28.2" height="28.2" rx="5" fill="#fff" data-enabled="1"></rect><rect id="p65-10019" x="693.9" y="499.28" width="28.2" height="28.2" rx="5" fill="#fff" data-enabled="1"></rect><rect id="p65-10020" x="840.32" y="499.28" width="28.2" height="28.2" rx="5" fill="#fff" data-enabled="1"></rect><rect id="p65-10021" x="502.06" y="242.06" width="28.2" height="28.2" rx="5" fill="#fff" data-enabled="1"></rect><rect id="p65-10022" x="534.18" y="242.08" width="28.2" height="28.19" rx="5" fill="#fff" data-enabled="1" class="mapplic-clickable mapplic-location-type--service"></rect><rect id="p65-10023" x="421.14" y="195.32" width="28.2" height="28.2" rx="5" fill="#fff" data-enabled="1" class="mapplic-clickable mapplic-location-type--service"></rect><rect id="p65-10024" x="567.09" y="162.54" width="28.2" height="28.2" rx="5" fill="#fff" data-enabled="1"></rect><rect id="p65-10025" x="527.36" y="162.54" width="28.2" height="28.2" rx="5" fill="#fff" data-enabled="1" class="mapplic-clickable mapplic-location-type--service"></rect><rect id="p65-10026" x="494.16" y="162.54" width="28.2" height="28.2" rx="5" fill="#fff" data-enabled="1" class="mapplic-clickable mapplic-location-type--service"></rect><rect id="p65-10027" x="460.96" y="162.54" width="28.2" height="28.2" rx="5" fill="#fff" data-enabled="1" class="mapplic-clickable mapplic-location-type--service"></rect><rect id="p65-10028" x="600.29" y="162.54" width="28.2" height="28.2" rx="5" fill="#fff" data-enabled="1" class="mapplic-clickable mapplic-location-type--service"></rect><rect id="p65-10029" x="630.12" y="518.62" width="28.2" height="28.2" rx="5" fill="#fff" data-enabled="1" class="mapplic-clickable mapplic-location-type--service"></rect><rect id="p65-10030" x="693.9" y="573.59" width="28.2" height="28.2" rx="5" fill="#fff" data-enabled="1" class="mapplic-clickable mapplic-location-type--service"></rect></g><g id="service-icons"><path d="M317.46,296.72a4,4,0,0,1,4,4v18.2a4,4,0,0,1-4,4h-18.2a4,4,0,0,1-4-4v-18.2a4,4,0,0,1,4-4h18.2m0-2h-18.2a6,6,0,0,0-6,6v18.2a6,6,0,0,0,6,6h18.2a6,6,0,0,0,6-6v-18.2A6,6,0,0,0,317.46,294.72Z" fill="#32304e"></path><path d="M316.92,306.08a1.26,1.26,0,0,0-1.11-1.19h-2.74a1.48,1.48,0,0,0-1.22.37l-8,8a1.49,1.49,0,0,1-1.16.45h-1.78a1.11,1.11,0,0,0-1.14,1.08h0v.08a1.29,1.29,0,0,0,1.26,1.31h2.59a1.62,1.62,0,0,0,1.24-.45l7.87-7.87a1.62,1.62,0,0,1,1.41-.5h1.65a1.23,1.23,0,0,0,1.13-1.28m1.33,0a2.58,2.58,0,0,1-2.25,2.57h-1.93a.67.67,0,0,0-.54.19l-7.81,7.79a3,3,0,0,1-2,.83H301a2.6,2.6,0,0,1-2.55-2.6,2.48,2.48,0,0,1,2.41-2.5h1.5c.45,0,.48,0,.71-.24l2.45-2.45h0V306.3a1.3,1.3,0,1,1,2.59-.23.89.89,0,0,1,0,.23v.83l2.82-2.82a2.9,2.9,0,0,1,1.92-.74h3a2.54,2.54,0,0,1,2.32,2.5m-10.1-2.62a1.31,1.31,0,1,1-1.31-1.31h0a1.31,1.31,0,0,1,1.31,1.31" fill="#32304e"></path><path d="M488.69,239.13a4,4,0,0,1,4,4v18.2a4,4,0,0,1-4,4h-18.2a4,4,0,0,1-4-4v-18.2a4,4,0,0,1,4-4h18.2m0-2h-18.2a6,6,0,0,0-6,6v18.2a6,6,0,0,0,6,6h18.2a6,6,0,0,0,6-6v-18.2A6,6,0,0,0,488.69,237.13Z" fill="#32304e"></path><path d="M488.14,248.48a1.26,1.26,0,0,0-1.11-1.19h-2.74a1.48,1.48,0,0,0-1.22.37l-8,8a1.49,1.49,0,0,1-1.16.45h-1.78a1.11,1.11,0,0,0-1.14,1.08h0v.08a1.29,1.29,0,0,0,1.26,1.31h2.59a1.62,1.62,0,0,0,1.24-.45l7.87-7.87a1.62,1.62,0,0,1,1.41-.5H487a1.23,1.23,0,0,0,1.13-1.28m1.33,0a2.58,2.58,0,0,1-2.25,2.57H485.3a.67.67,0,0,0-.54.19L477,259a3,3,0,0,1-2,.83h-2.67a2.6,2.6,0,0,1-2.55-2.6,2.48,2.48,0,0,1,2.41-2.5h1.5c.45,0,.48,0,.71-.24l2.4-2.49h0v-3.3a1.3,1.3,0,0,1,2.59-.23.89.89,0,0,1,0,.23v.83l2.82-2.82a2.9,2.9,0,0,1,1.92-.74h3a2.54,2.54,0,0,1,2.32,2.5m-10.1-2.62a1.31,1.31,0,1,1-1.31-1.31h0a1.31,1.31,0,0,1,1.31,1.31" fill="#32304e"></path><path d="M829.67,241.32a4,4,0,0,1,4,4v18.2a4,4,0,0,1-4,4h-18.2a4,4,0,0,1-4-4v-18.2a4,4,0,0,1,4-4h18.2m0-2h-18.2a6,6,0,0,0-6,6v18.2a6,6,0,0,0,6,6h18.2a6,6,0,0,0,6-6v-18.2A6,6,0,0,0,829.67,239.32Z" fill="#32304e"></path><path d="M829.13,250.67a1.26,1.26,0,0,0-1.11-1.19h-2.74a1.48,1.48,0,0,0-1.22.37l-8,8a1.49,1.49,0,0,1-1.16.45h-1.78a1.11,1.11,0,0,0-1.14,1.08h0v.08a1.29,1.29,0,0,0,1.26,1.31h2.59a1.62,1.62,0,0,0,1.24-.45l7.87-7.87a1.62,1.62,0,0,1,1.41-.5H828a1.23,1.23,0,0,0,1.13-1.28m1.33,0a2.58,2.58,0,0,1-2.25,2.57h-1.93a.67.67,0,0,0-.54.19l-7.81,7.79a3,3,0,0,1-2,.83h-2.67a2.6,2.6,0,0,1-2.55-2.6,2.48,2.48,0,0,1,2.41-2.5h1.5c.45,0,.48,0,.71-.24l2.45-2.45h0v-3.37a1.3,1.3,0,0,1,2.59-.23h0a.89.89,0,0,1,0,.23v.83l2.82-2.82a2.9,2.9,0,0,1,1.92-.74h3a2.54,2.54,0,0,1,2.32,2.5M820.33,248a1.31,1.31,0,1,1-1.31-1.31h0a1.31,1.31,0,0,1,1.31,1.31" fill="#32304e"></path><path d="M878,413.68a4,4,0,0,1,4,4v18.2a4,4,0,0,1-4,4H859.8a4,4,0,0,1-4-4v-18.2a4,4,0,0,1,4-4H878m0-2H859.8a6,6,0,0,0-6,6v18.2a6,6,0,0,0,6,6H878a6,6,0,0,0,6-6v-18.2A6,6,0,0,0,878,411.68Z" fill="#32304e"></path><path d="M877.49,423a1.26,1.26,0,0,0-1.11-1.19h-2.74a1.48,1.48,0,0,0-1.22.37l-8,8a1.49,1.49,0,0,1-1.16.45h-1.78a1.11,1.11,0,0,0-1.14,1.08h0v.08a1.29,1.29,0,0,0,1.26,1.31h2.59a1.62,1.62,0,0,0,1.24-.45l7.87-7.87a1.62,1.62,0,0,1,1.41-.5h1.65a1.23,1.23,0,0,0,1.13-1.28m1.33,0a2.58,2.58,0,0,1-2.25,2.57h-1.93a.67.67,0,0,0-.54.19l-7.81,7.79a3,3,0,0,1-2,.83H861.6a2.6,2.6,0,0,1-2.55-2.6,2.48,2.48,0,0,1,2.41-2.5H863c.45,0,.48,0,.71-.24l2.45-2.45h0v-3.37a1.3,1.3,0,0,1,2.59-.23.89.89,0,0,1,0,.23V424l2.82-2.82a2.9,2.9,0,0,1,1.92-.74h3a2.54,2.54,0,0,1,2.32,2.5m-10.1-2.62A1.31,1.31,0,1,1,867.4,419h0a1.31,1.31,0,0,1,1.31,1.31" fill="#32304e"></path><path d="M736.39,413.68a4,4,0,0,1,4,4v18.2a4,4,0,0,1-4,4h-18.2a4,4,0,0,1-4-4v-18.2a4,4,0,0,1,4-4h18.2m0-2h-18.2a6,6,0,0,0-6,6v18.2a6,6,0,0,0,6,6h18.2a6,6,0,0,0,6-6v-18.2A6,6,0,0,0,736.39,411.68Z" fill="#32304e"></path><path d="M735.84,423a1.26,1.26,0,0,0-1.11-1.19H732a1.48,1.48,0,0,0-1.22.37l-8,8a1.49,1.49,0,0,1-1.16.45h-1.78a1.11,1.11,0,0,0-1.14,1.08h0v.08A1.29,1.29,0,0,0,720,433.1h2.65a1.62,1.62,0,0,0,1.24-.45l7.87-7.87a1.62,1.62,0,0,1,1.41-.5h1.65a1.23,1.23,0,0,0,1.13-1.28m1.33,0a2.58,2.58,0,0,1-2.25,2.57h-2a.67.67,0,0,0-.54.19l-7.81,7.79a3,3,0,0,1-2,.83H720a2.6,2.6,0,0,1-2.55-2.6,2.48,2.48,0,0,1,2.41-2.5h1.5c.45,0,.48,0,.71-.24l2.45-2.45h0v-3.37a1.3,1.3,0,0,1,2.59-.23.89.89,0,0,1,0,.23V424l2.82-2.82a2.9,2.9,0,0,1,1.92-.74h3a2.54,2.54,0,0,1,2.32,2.5m-10.1-2.62a1.31,1.31,0,1,1-1.31-1.31h0a1.31,1.31,0,0,1,1.31,1.31" fill="#32304e"></path><path d="M538.59,412.07a4,4,0,0,1,4,4v18.2a4,4,0,0,1-4,4h-18.2a4,4,0,0,1-4-4v-18.2a4,4,0,0,1,4-4h18.2m0-2h-18.2a6,6,0,0,0-6,6v18.2a6,6,0,0,0,6,6h18.2a6,6,0,0,0,6-6v-18.2A6,6,0,0,0,538.59,410.07Z" fill="#32304e"></path><path d="M538,421.42a1.26,1.26,0,0,0-1.11-1.19h-2.74a1.48,1.48,0,0,0-1.22.37l-8,8a1.49,1.49,0,0,1-1.16.45H522a1.11,1.11,0,0,0-1.14,1.08h0v.08a1.29,1.29,0,0,0,1.26,1.31h2.59a1.62,1.62,0,0,0,1.24-.45l7.87-7.87a1.62,1.62,0,0,1,1.41-.5h1.65a1.23,1.23,0,0,0,1.13-1.28m1.33,0a2.58,2.58,0,0,1-2.25,2.57H535.2a.67.67,0,0,0-.54.19L526.84,432a3,3,0,0,1-2,.83h-2.67a2.6,2.6,0,0,1-2.55-2.6,2.48,2.48,0,0,1,2.41-2.5h1.5c.45,0,.48,0,.71-.24l2.45-2.45h0v-3.37a1.3,1.3,0,0,1,2.59-.23.89.89,0,0,1,0,.23v.83l2.82-2.82a2.9,2.9,0,0,1,1.92-.74h3a2.54,2.54,0,0,1,2.32,2.5m-10.1-2.62a1.31,1.31,0,1,1-1.31-1.31h0a1.31,1.31,0,0,1,1.31,1.31" fill="#32304e"></path><path d="M677.08,228.68a4,4,0,0,1,4,4v18.2a4,4,0,0,1-4,4h-18.2a4,4,0,0,1-4-4v-18.2a4,4,0,0,1,4-4h18.2m0-2h-18.2a6,6,0,0,0-6,6h0v18.2a6,6,0,0,0,6,6h18.2a6,6,0,0,0,6-6v-18.2a6,6,0,0,0-6-6Z" fill="#32304e"></path><path d="M676.54,238a1.26,1.26,0,0,0-1.11-1.19h-2.74a1.48,1.48,0,0,0-1.22.37l-8,8a1.49,1.49,0,0,1-1.16.45h-1.78a1.11,1.11,0,0,0-1.14,1.08h0v.08a1.29,1.29,0,0,0,1.26,1.31h2.59a1.62,1.62,0,0,0,1.24-.45l7.87-7.87a1.62,1.62,0,0,1,1.41-.5h1.65a1.23,1.23,0,0,0,1.13-1.28m1.33,0a2.58,2.58,0,0,1-2.25,2.57h-1.93a.67.67,0,0,0-.54.19l-7.81,7.79a3,3,0,0,1-2,.83h-2.67a2.6,2.6,0,0,1-2.55-2.6,2.48,2.48,0,0,1,2.41-2.5H662c.45,0,.48,0,.71-.24l2.45-2.45h0v-3.37a1.3,1.3,0,0,1,2.59-.23h0a.89.89,0,0,1,0,.23v.83l2.82-2.82a2.9,2.9,0,0,1,1.92-.74h3a2.54,2.54,0,0,1,2.32,2.5m-10.1-2.62a1.31,1.31,0,1,1-1.31-1.31h0a1.31,1.31,0,0,1,1.31,1.31" fill="#32304e"></path><path d="M499.79,375.19a4,4,0,0,1,4,4v18.2a4,4,0,0,1-4,4h-18.2a4,4,0,0,1-4-4v-18.2a4,4,0,0,1,4-4h18.2m0-2h-18.2a6,6,0,0,0-6,6v18.2a6,6,0,0,0,6,6h18.2a6,6,0,0,0,6-6v-18.2A6,6,0,0,0,499.79,373.19Z" fill="#32304e"></path><path d="M485.49,386H487v-3.82h-.8a.73.73,0,0,0-.74.72h0Zm1.43,5.5H489v-1h-3.53v3.74a.64.64,0,0,0,.54.39h.91Zm14.3,7.61H482.38a2.23,2.23,0,0,1-2.23-2.23h0V379.94a2.23,2.23,0,0,1,2.23-2.23h18.83v8.45h-5.29v-4h-1a.65.65,0,0,0-.6.57v11.49a.61.61,0,0,0,.57.5h1v-4.35h5.39Z" fill="#32304e"></path><path d="M318.24,250a4,4,0,0,1,4,4v18.2a4,4,0,0,1-4,4H300a4,4,0,0,1-4-4V254a4,4,0,0,1,4-4h18.2m0-2H300a6,6,0,0,0-6,6h0v18.2a6,6,0,0,0,6,6h18.2a6,6,0,0,0,6-6V254a6,6,0,0,0-6-6Z" fill="#32304e"></path><path d="M303.94,260.8h1.54V257h-.8a.73.73,0,0,0-.74.72h0Zm1.43,5.5h2.09v-1h-3.53V269a.64.64,0,0,0,.54.39h.91Zm14.3,7.61H300.83a2.23,2.23,0,0,1-2.23-2.23h0V254.77a2.23,2.23,0,0,1,2.23-2.23h18.83V261h-5.29v-4h-1a.65.65,0,0,0-.6.57v11.49a.61.61,0,0,0,.57.5h1v-4.35h5.39Z" fill="#32304e"></path><path d="M157.19,190.13a4,4,0,0,1,4,4v18.2a4,4,0,0,1-4,4H139a4,4,0,0,1-4-4v-18.2a4,4,0,0,1,4-4h18.2m0-2H139a6,6,0,0,0-6,6v18.2a6,6,0,0,0,6,6h18.2a6,6,0,0,0,6-6v-18.2A6,6,0,0,0,157.2,188.13Z" fill="#32304e"></path><path d="M142.85,208.12l.75-2.5a1.54,1.54,0,0,1,.3-.49,1.82,1.82,0,0,1,.7-.3H146a1.82,1.82,0,0,1,.7.3,1.54,1.54,0,0,1,.3.49l.75,2.5a.47.47,0,0,1-.2.63h0a.48.48,0,0,1-.17.05c-.27,0-.35-.32-.35-.32l-.64-2.23h-.14l.21,2.48.57,4.51h-1.23a29.7,29.7,0,0,0-.66-2.94l-.62,3h-1.18l.76-4.54.2-2.45h-.14l-.64,2.23s-.08.36-.35.32a.46.46,0,0,1-.43-.5.41.41,0,0,1,.05-.19m5.23,0,.75-2.5a1.54,1.54,0,0,1,.3-.49,1.82,1.82,0,0,1,.7-.3h1.44a1.82,1.82,0,0,1,.7.3,1.54,1.54,0,0,1,.3.49l.75,2.5a.47.47,0,0,1-.2.63h0a.48.48,0,0,1-.17.05c-.27,0-.35-.32-.35-.32l-.64-2.23h-.14l.21,2.48.68,2.13h-1.15c0,.41-.24,1.85-.28,2.06a.43.43,0,0,1-.15.28h-.59s-.1,0-.14-.28-.23-1.66-.28-2.06h-1l.69-2.15.2-2.45h-.14l-.64,2.23s-.08.36-.35.32a.46.46,0,0,1-.44-.49.46.46,0,0,1,.05-.2m3.34-4.4a.87.87,0,1,1-.87-.87h0a.87.87,0,0,1,.87.87m-5.23,0a.87.87,0,1,1-.87-.87h0a.87.87,0,0,1,.87.87m-4.48,9.82h12.77v-11H141.7Zm13.84.53a.55.55,0,0,1-.53.53H141.17a.55.55,0,0,1-.53-.53V202a.55.55,0,0,1,.53-.53H155a.55.55,0,0,1,.53.53Zm-1.35-16.37-2.54,2.37a.65.65,0,0,1-.46.18h0a.65.65,0,0,1-.46-.18l-2.54-2.37a.68.68,0,1,1,.8-1.1.52.52,0,0,1,.11.1l1.45,1.35v-5.61a.67.67,0,0,1,1.34,0h0v5.58l1.42-1.32a.68.68,0,0,1,.95.15h0a.68.68,0,0,1,0,.85m-6.92-2.41a.68.68,0,0,1-1,0h0L144.92,194v5.58a.67.67,0,1,1-1.34,0h0V194l-1.45,1.35a.68.68,0,0,1-.95-.15h0a.68.68,0,0,1,0-.85h0l2.54-2.37a.7.7,0,0,1,.94,0l2.54,2.37a.68.68,0,0,1,0,1l0,0h0" fill="#32304e"></path><path d="M358.92,122.55a4,4,0,0,1,4,4v18.2a4,4,0,0,1-4,4h-18.2a4,4,0,0,1-4-4v-18.2a4,4,0,0,1,4-4h18.2m0-2h-18.2a6,6,0,0,0-6,6v18.2a6,6,0,0,0,6,6h18.2a6,6,0,0,0,6-6v-18.2A6,6,0,0,0,358.92,120.55Z" fill="#32304e"></path><path d="M344.57,140.54l.75-2.5a1.54,1.54,0,0,1,.3-.49,1.82,1.82,0,0,1,.7-.3h1.44a1.82,1.82,0,0,1,.7.3,1.54,1.54,0,0,1,.3.49l.75,2.5a.47.47,0,0,1-.2.63h-.19c-.27,0-.35-.32-.35-.32l-.64-2.23H348l.21,2.48.57,4.51h-1.23a29.7,29.7,0,0,0-.66-2.94l-.62,3h-1.18l.76-4.54.2-2.45h-.14l-.64,2.23s-.08.36-.35.32a.46.46,0,0,1-.43-.5.41.41,0,0,1,.05-.19m5.23,0,.75-2.5a1.54,1.54,0,0,1,.3-.49,1.82,1.82,0,0,1,.7-.3H353a1.82,1.82,0,0,1,.7.3,1.54,1.54,0,0,1,.3.49l.75,2.5a.47.47,0,0,1-.2.63h-.19c-.27,0-.35-.32-.35-.32l-.64-2.23h-.14l.21,2.48.68,2.13H353c0,.41-.24,1.85-.28,2.06a.43.43,0,0,1-.15.28H352s-.1,0-.14-.28-.23-1.66-.28-2.06h-1.15l.69-2.15.2-2.45h-.14l-.64,2.23s-.08.36-.35.32a.46.46,0,0,1-.44-.49.46.46,0,0,1,.05-.2m3.34-4.4a.87.87,0,1,1-.87-.87h0a.87.87,0,0,1,.87.87m-5.23,0a.87.87,0,1,1-.87-.87h0a.87.87,0,0,1,.87.87M343.43,146H356.2V135H343.43Zm13.84.53a.55.55,0,0,1-.53.53H342.89a.55.55,0,0,1-.53-.53V134.38a.55.55,0,0,1,.53-.53h13.84a.55.55,0,0,1,.53.53Zm-1.35-16.37-2.54,2.37a.65.65,0,0,1-.46.18h0a.65.65,0,0,1-.46-.18l-2.54-2.37a.68.68,0,1,1,.8-1.1.52.52,0,0,1,.11.1l1.45,1.35V124.9a.67.67,0,0,1,1.34,0h0v5.58l1.42-1.32a.68.68,0,0,1,1,.9.52.52,0,0,1-.11.1h0m-7-2.44a.68.68,0,0,1-.95,0h0l-1.42-1.32V132a.67.67,0,1,1-1.34,0h0v-5.61l-1.45,1.35a.68.68,0,0,1-.94.19.67.67,0,0,1-.19-.94.47.47,0,0,1,.13-.15.52.52,0,0,1,.11-.1l2.54-2.37a.7.7,0,0,1,.94,0l2.54,2.37a.68.68,0,0,1,0,1l0,0h0" fill="#32304e"></path><path d="M871,111.12a4,4,0,0,1,4,4v18.2a4,4,0,0,1-4,4H852.8a4,4,0,0,1-4-4v-18.2a4,4,0,0,1,4-4H871m0-2H852.8a6,6,0,0,0-6,6v18.2a6,6,0,0,0,6,6H871a6,6,0,0,0,6-6v-18.2A6,6,0,0,0,871,109.12Z" fill="#32304e"></path><path d="M856.64,129.12l.75-2.5a1.54,1.54,0,0,1,.3-.49,1.82,1.82,0,0,1,.7-.3h1.44a1.82,1.82,0,0,1,.7.3,1.54,1.54,0,0,1,.3.49l.75,2.5a.47.47,0,0,1-.2.63h0a.48.48,0,0,1-.17.05c-.27,0-.35-.32-.35-.32l-.64-2.23h-.14l.21,2.48.57,4.51h-1.23a29.7,29.7,0,0,0-.66-2.94l-.62,3h-1.18l.76-4.54.2-2.45H858l-.64,2.23s-.08.36-.35.32a.46.46,0,0,1-.43-.5.41.41,0,0,1,0-.19m5.23,0,.75-2.5a1.54,1.54,0,0,1,.3-.49,1.82,1.82,0,0,1,.7-.3H865a1.82,1.82,0,0,1,.7.3,1.54,1.54,0,0,1,.3.49l.75,2.5a.47.47,0,0,1-.2.63h0a.48.48,0,0,1-.17.05c-.27,0-.35-.32-.35-.32l-.64-2.23h-.14l.21,2.48.68,2.13H865c0,.41-.24,1.85-.28,2.06a.43.43,0,0,1-.15.28H864s-.1,0-.14-.28-.23-1.66-.28-2.06H862.4l.69-2.15.2-2.45h-.14l-.64,2.23s-.08.36-.35.32a.46.46,0,0,1-.44-.49.46.46,0,0,1,0-.2m3.34-4.4a.87.87,0,1,1-.87-.87h0a.87.87,0,0,1,.87.87m-5.23,0a.87.87,0,1,1-.87-.87h0a.87.87,0,0,1,.87.87m-4.48,9.82h12.77v-11H855.49Zm13.84.53a.55.55,0,0,1-.53.53H855a.55.55,0,0,1-.53-.53V123a.55.55,0,0,1,.53-.53h13.8a.55.55,0,0,1,.53.53ZM868,118.7l-2.54,2.37a.65.65,0,0,1-.46.18h0a.65.65,0,0,1-.46-.18L862,118.7a.68.68,0,1,1,.8-1.1h0a.52.52,0,0,1,.11.1h0l1.45,1.35v-5.61a.67.67,0,1,1,1.34,0V119l1.42-1.32a.68.68,0,0,1,1,.9.52.52,0,0,1-.11.1m-6.92-2.41a.68.68,0,0,1-1,0l0,0h0L858.71,115v5.58a.67.67,0,1,1-1.34,0V115l-1.45,1.35a.68.68,0,0,1-.94.19.67.67,0,0,1-.19-.94.47.47,0,0,1,.13-.15.52.52,0,0,1,.11-.1l2.54-2.37a.7.7,0,0,1,.94,0l2.54,2.37a.68.68,0,0,1,0,1l0,0h0" fill="#32304e"></path><path d="M938.79,128.55a4,4,0,0,1,4,4v18.2a4,4,0,0,1-4,4h-18.2a4,4,0,0,1-4-4v-18.2a4,4,0,0,1,4-4h18.2m0-2h-18.2a6,6,0,0,0-6,6v18.2a6,6,0,0,0,6,6h18.2a6,6,0,0,0,6-6v-18.2A6,6,0,0,0,938.79,126.55Z" fill="#32304e"></path><path d="M924.45,146.55l.75-2.5a1.54,1.54,0,0,1,.3-.49,1.82,1.82,0,0,1,.7-.3h1.44a1.82,1.82,0,0,1,.7.3,1.54,1.54,0,0,1,.3.49l.75,2.5a.47.47,0,0,1-.2.63h0a.48.48,0,0,1-.17.05c-.27,0-.35-.32-.35-.32l-.64-2.23h-.14l.21,2.48.57,4.51h-1.23a29.7,29.7,0,0,0-.66-2.94l-.62,3H925l.76-4.54.2-2.45h-.14l-.64,2.23s-.08.36-.35.32a.46.46,0,0,1-.43-.5.41.41,0,0,1,.05-.19m5.23,0,.75-2.5a1.54,1.54,0,0,1,.3-.49,1.82,1.82,0,0,1,.7-.3h1.44a1.82,1.82,0,0,1,.7.3,1.54,1.54,0,0,1,.3.49l.75,2.5a.47.47,0,0,1-.2.63h0a.48.48,0,0,1-.17.05c-.27,0-.35-.32-.35-.32l-.64-2.23h-.14l.21,2.48.68,2.13h-1.15c0,.41-.24,1.85-.28,2.06a.43.43,0,0,1-.15.28h-.59s-.1,0-.14-.28-.23-1.66-.28-2.06h-1.1l.69-2.15.2-2.45H931l-.64,2.23s-.08.36-.35.32a.46.46,0,0,1-.44-.49.46.46,0,0,1,0-.2m3.34-4.4a.87.87,0,1,1-.87-.87h0a.87.87,0,0,1,.87.87m-5.23,0a.87.87,0,1,1-.87-.87h0a.87.87,0,0,1,.87.87M923.31,152h12.77V141H923.31Zm13.84.53a.55.55,0,0,1-.53.53H922.77a.55.55,0,0,1-.53-.53V140.39a.55.55,0,0,1,.53-.53h13.84a.55.55,0,0,1,.53.53Zm-1.35-16.37-2.54,2.37a.65.65,0,0,1-.46.18h0a.65.65,0,0,1-.46-.18l-2.54-2.37a.68.68,0,0,1,.8-1.1h0a.52.52,0,0,1,.11.1l1.45,1.35V130.9a.67.67,0,1,1,1.34,0v5.58l1.42-1.32a.68.68,0,0,1,1,.9.52.52,0,0,1-.11.1h0m-6.92-2.41a.68.68,0,0,1-.95,0h0l-1.42-1.32V138a.67.67,0,0,1-1.34,0v-5.61l-1.45,1.35a.68.68,0,0,1-1-.9.52.52,0,0,1,.11-.1h0l2.54-2.37a.7.7,0,0,1,.94,0l2.54,2.37a.68.68,0,0,1,0,.95h0" fill="#32304e"></path><path d="M671.86,447a4,4,0,0,1,4,4v18.2a4,4,0,0,1-4,4h-18.2a4,4,0,0,1-4-4V451a4,4,0,0,1,4-4h18.2m0-2h-18.2a6,6,0,0,0-6,6h0v18.2a6,6,0,0,0,6,6h18.2a6,6,0,0,0,6-6h0V451a6,6,0,0,0-6-6Z" fill="#32304e"></path><path d="M657.51,465l.75-2.5a1.54,1.54,0,0,1,.3-.49,1.82,1.82,0,0,1,.7-.3h1.44a1.82,1.82,0,0,1,.7.3,1.54,1.54,0,0,1,.3.49l.75,2.5a.47.47,0,0,1-.2.63h0a.48.48,0,0,1-.17.05c-.27,0-.35-.32-.35-.32l-.64-2.23h-.14l.21,2.48.57,4.51h-1.23a29.7,29.7,0,0,0-.66-2.94l-.62,3H658l.76-4.54.2-2.45h-.14l-.64,2.23s-.08.36-.35.32a.46.46,0,0,1-.43-.5.41.41,0,0,1,.05-.19m5.23,0,.75-2.5a1.54,1.54,0,0,1,.3-.49,1.82,1.82,0,0,1,.7-.3h1.44a1.82,1.82,0,0,1,.7.3,1.54,1.54,0,0,1,.3.49l.75,2.5a.47.47,0,0,1-.2.63h0a.48.48,0,0,1-.17.05c-.27,0-.35-.32-.35-.32l-.64-2.23h-.14l.21,2.48.68,2.13h-1.15c0,.41-.24,1.85-.28,2.06a.43.43,0,0,1-.15.28h-.59s-.1,0-.14-.28-.23-1.66-.28-2.06h-1.15l.69-2.15.2-2.45H664l-.64,2.23s-.08.36-.35.32a.46.46,0,0,1-.44-.49.46.46,0,0,1,0-.2m3.34-4.4a.87.87,0,1,1-.87-.87h0a.87.87,0,0,1,.87.87m-5.23,0a.87.87,0,1,1-.87-.87h0a.87.87,0,0,1,.87.87m-4.48,9.82H669v-11H656.37Zm13.84.53a.55.55,0,0,1-.53.53H655.83a.55.55,0,0,1-.53-.53V458.86a.55.55,0,0,1,.53-.53h13.84a.55.55,0,0,1,.53.53Zm-1.35-16.37L666.32,457a.65.65,0,0,1-.46.18h0a.65.65,0,0,1-.46-.18l-2.54-2.37a.68.68,0,1,1,.8-1.1.52.52,0,0,1,.11.1h0L665.2,455v-5.61a.67.67,0,0,1,1.34,0V455l1.42-1.32a.68.68,0,0,1,1,.9.52.52,0,0,1-.11.1M662,452.27a.68.68,0,0,1-1,0l0,0h0L659.63,451v5.58a.67.67,0,1,1-1.34,0V451l-1.45,1.35a.68.68,0,0,1-.94.19.67.67,0,0,1-.19-.94.47.47,0,0,1,.13-.15.52.52,0,0,1,.11-.1l2.54-2.37a.7.7,0,0,1,.94,0l2.54,2.37a.68.68,0,0,1,0,1l0,0h0" fill="#32304e"></path><path d="M829.67,273.07a4,4,0,0,1,4,4v18.2a4,4,0,0,1-4,4h-18.2a4,4,0,0,1-4-4v-18.2a4,4,0,0,1,4-4h18.2m0-2h-18.2a6,6,0,0,0-6,6v18.2a6,6,0,0,0,6,6h18.2a6,6,0,0,0,6-6v-18.2A6,6,0,0,0,829.67,271.07Z" fill="#32304e"></path><path d="M815.33,291.07l.75-2.5a1.54,1.54,0,0,1,.3-.49,1.82,1.82,0,0,1,.7-.3h1.44a1.82,1.82,0,0,1,.7.3,1.54,1.54,0,0,1,.3.49l.75,2.5a.47.47,0,0,1-.2.63h0a.48.48,0,0,1-.17.05c-.27,0-.35-.32-.35-.32l-.64-2.23h-.14l.21,2.48.57,4.51H818.3a29.7,29.7,0,0,0-.66-2.94l-.62,3h-1.18l.76-4.54.2-2.45h-.14L816,291.5s-.08.36-.35.32a.46.46,0,0,1-.43-.5.41.41,0,0,1,0-.19m5.23,0,.75-2.5a1.54,1.54,0,0,1,.3-.49,1.82,1.82,0,0,1,.7-.3h1.44a1.82,1.82,0,0,1,.7.3,1.54,1.54,0,0,1,.3.49l.75,2.5a.47.47,0,0,1-.2.63h0a.48.48,0,0,1-.17.05c-.27,0-.35-.32-.35-.32l-.64-2.23h-.14l.21,2.48.68,2.13h-1.15c0,.41-.24,1.85-.28,2.06a.43.43,0,0,1-.15.28h-.59s-.1,0-.14-.28-.23-1.66-.28-2.06h-1.15l.69-2.15.2-2.45h-.14l-.64,2.23s-.08.36-.35.32a.46.46,0,0,1-.44-.49.46.46,0,0,1,.05-.2m3.34-4.4a.87.87,0,1,1-.87-.87h0a.87.87,0,0,1,.87.87m-5.23,0a.87.87,0,1,1-.87-.87h0a.87.87,0,0,1,.87.87m-4.48,9.82H827v-11H814.19ZM828,297a.55.55,0,0,1-.53.53H813.65a.55.55,0,0,1-.53-.53V284.91a.55.55,0,0,1,.53-.53H827.5a.55.55,0,0,1,.53.53Zm-1.35-16.37L824.14,283a.65.65,0,0,1-.46.18h0a.65.65,0,0,1-.46-.18l-2.54-2.37a.68.68,0,0,1,.8-1.1h0a.52.52,0,0,1,.11.1L823,281v-5.61a.67.67,0,1,1,1.34,0V281l1.42-1.32a.68.68,0,0,1,1,.9.52.52,0,0,1-.11.1m-6.92-2.41a.68.68,0,0,1-1,0l0,0h0L817.4,277v5.58a.67.67,0,1,1-1.34,0V277l-1.45,1.35a.68.68,0,0,1-1-.9.52.52,0,0,1,.11-.1h0l2.54-2.37a.7.7,0,0,1,.94,0l2.54,2.37a.68.68,0,0,1,0,.95h0" fill="#32304e"></path><path d="M417.75,94.2a4,4,0,0,1,4,4v18.2a4,4,0,0,1-4,4h-18.2a4,4,0,0,1-4-4V98.2a4,4,0,0,1,4-4h18.2m0-2h-18.2a6,6,0,0,0-6,6v18.2a6,6,0,0,0,6,6h18.2a6,6,0,0,0,6-6V98.2A6,6,0,0,0,417.75,92.2Z" fill="#32304e"></path><path d="M409.89,100.46h-4.16V107h4.16c3.69,0,3.69-6.54,0-6.54M411,110.57h-5.23v7.26h-4.28v-21H411c8.45,0,8.45,13.79,0,13.79" fill="#32304e"></path><path d="M528.22,94.2a4,4,0,0,1,4,4v18.2a4,4,0,0,1-4,4H510a4,4,0,0,1-4-4V98.2a4,4,0,0,1,4-4h18.2m0-2H510a6,6,0,0,0-6,6v18.2a6,6,0,0,0,6,6h18.2a6,6,0,0,0,6-6V98.2A6,6,0,0,0,528.2,92.2Z" fill="#32304e"></path><path d="M520.36,100.46H516.2V107h4.16c3.69,0,3.69-6.54,0-6.54m1.07,10.11H516.2v7.26h-4.28v-21h9.51c8.45,0,8.45,13.79,0,13.79" fill="#32304e"></path><path d="M658.76,94.2a4,4,0,0,1,4,4v18.2a4,4,0,0,1-4,4h-18.2a4,4,0,0,1-4-4V98.2a4,4,0,0,1,4-4h18.2m0-2h-18.2a6,6,0,0,0-6,6v18.2a6,6,0,0,0,6,6h18.2a6,6,0,0,0,6-6V98.2A6,6,0,0,0,658.76,92.2Z" fill="#32304e"></path><path d="M650.9,100.46h-4.16V107h4.16c3.69,0,3.69-6.54,0-6.54m1.1,10.11h-5.23v7.26h-4.28v-21H652c8.45,0,8.45,13.79,0,13.79" fill="#32304e"></path><path d="M177.75,77.58a4,4,0,0,1,4,4v18.2a4,4,0,0,1-4,4h-18.2a4,4,0,0,1-4-4V81.58a4,4,0,0,1,4-4h18.2m0-2h-18.2a6,6,0,0,0-6,6v18.2a6,6,0,0,0,6,6h18.2a6,6,0,0,0,6-6V81.58A6,6,0,0,0,177.75,75.58Z" fill="#32304e"></path><path d="M169.89,83.84h-4.16v6.54h4.16c3.69,0,3.69-6.54,0-6.54M171,93.94h-5.23v7.26h-4.28v-21H171c8.45,0,8.45,13.79,0,13.79" fill="#32304e"></path><path d="M717.1,500.28a4,4,0,0,1,4,4v18.2a4,4,0,0,1-4,4H698.9a4,4,0,0,1-4-4v-18.2a4,4,0,0,1,4-4h18.2m0-2H698.9a6,6,0,0,0-6,6v18.2a6,6,0,0,0,6,6h18.2a6,6,0,0,0,6-6v-18.2A6,6,0,0,0,717.1,498.28Z" fill="#32304e"></path><path d="M709.24,506.54h-4.16v6.54h4.16c3.69,0,3.69-6.54,0-6.54m1.07,10.11h-5.23v7.26H700.8v-21h9.51c8.45,0,8.45,13.79,0,13.79" fill="#32304e"></path><path d="M863.52,500.28a4,4,0,0,1,4,4v18.2a4,4,0,0,1-4,4h-18.2a4,4,0,0,1-4-4v-18.2a4,4,0,0,1,4-4h18.2m0-2h-18.2a6,6,0,0,0-6,6v18.2a6,6,0,0,0,6,6h18.2a6,6,0,0,0,6-6v-18.2A6,6,0,0,0,863.52,498.28Z" fill="#32304e"></path><path d="M855.66,506.54H851.5v6.54h4.16c3.69,0,3.69-6.54,0-6.54m1.07,10.11H851.5v7.26h-4.28v-21h9.51c8.45,0,8.45,13.79,0,13.79" fill="#32304e"></path><path d="M525.26,243.06a4,4,0,0,1,4,4v18.2a4,4,0,0,1-4,4h-18.2a4,4,0,0,1-4-4v-18.2a4,4,0,0,1,4-4h18.2m0-2h-18.2a6,6,0,0,0-6,6v18.2a6,6,0,0,0,6,6h18.2a6,6,0,0,0,6-6v-18.2A6,6,0,0,0,525.26,241.06Z" fill="#32304e"></path><path d="M516.67,244.62a2.88,2.88,0,1,0,2.89,2.88,2.88,2.88,0,0,0-2.89-2.88h0" fill="#32304e"></path><path d="M519,251.87h-7.25v3.62H514v8.8l-2.27-.07v3.66h9.51v-3.66l-2.27.07Z" fill="#32304e"></path><path d="M557.38,243.08a4,4,0,0,1,4,4v18.19a4,4,0,0,1-4,4h-18.2a4,4,0,0,1-4-4V247.08a4,4,0,0,1,4-4h18.2m0-2h-18.2a6,6,0,0,0-6,6v18.19a6,6,0,0,0,6,6h18.2a6,6,0,0,0,6-6V247.08A6,6,0,0,0,557.38,241.08Z" fill="#32304e"></path><path d="M553.35,268.17a1.08,1.08,0,0,1-2.16,0,1.09,1.09,0,0,1,1.07-1.08,1.08,1.08,0,0,1,1.09,1.07h0" fill="#32304e"></path><path d="M557.08,268.17a1.08,1.08,0,1,1-2.16,0h0a1.09,1.09,0,0,1,1.07-1.08,1.08,1.08,0,0,1,1.09,1.07h0" fill="#32304e"></path><path d="M553.79,258.36a1.3,1.3,0,1,1-1.3-1.3h0a1.3,1.3,0,0,1,1.3,1.3" fill="#32304e"></path><path d="M546.48,246.46a1.87,1.87,0,1,1-1.87-1.87h0a1.87,1.87,0,0,1,1.87,1.87" fill="#32304e"></path><path d="M557.88,264.27h0l-.69-.82a1.23,1.23,0,0,0-1-.51H555.1s-.24,0-.59-.38a6.82,6.82,0,0,1-.67-1.42l1.81.39a.49.49,0,0,0,.17,0,.44.44,0,0,0,.37-.5.45.45,0,0,0-.37-.37l-2.46-.56h0a.88.88,0,0,0-1.46.66v.15h0v.2l.8,2.48h0a1,1,0,0,0,1,.71h1.91a.83.83,0,0,1,.57.16,3.73,3.73,0,0,1,.52.73h0a.73.73,0,0,0,1,.27h0a.71.71,0,0,0,.27-1v0a.58.58,0,0,0-.11-.15" fill="#32304e"></path><path d="M552.74,264.88s-.5-.07-.86-.85-1.24-5.49-1.45-6.37a1.72,1.72,0,0,0-1.51-1.5h-.32s-.35,0-.54-.66c0,0-1.55-4.24-1.94-5.45a2,2,0,0,0-1.82-1.2h-1.43c-.43.06-.57.87-.57.87s-.74,3.52-.94,4.17-2.64,6.32-2.64,6.32H541v5.44a1,1,0,0,0,2.08,0V260.2h.5a30.36,30.36,0,0,0,1,5.75,1,1,0,0,0,.14.28h0a.59.59,0,0,0,.3.26,1,1,0,1,0,1.19-1.62h0a13.8,13.8,0,0,1-.75-4.64h2.13s-1.92-5.24-2.11-5.82a19.16,19.16,0,0,1-.29-2.72v-.16a1.2,1.2,0,0,1,.34.37c.06.17,1.36,3.31,1.68,4.23s.64.84.64.84h1s.64-.06.77.36.89,5.1,1.32,6.35c.49,1.44.89,2.06,1.13,2.06h4v-.84Z" fill="#32304e"></path><path d="M444.34,196.32a4,4,0,0,1,4,4v18.2a4,4,0,0,1-4,4h-18.2a4,4,0,0,1-4-4v-18.2a4,4,0,0,1,4-4h18.2m0-2h-18.2a6,6,0,0,0-6,6v18.2a6,6,0,0,0,6,6h18.2a6,6,0,0,0,6-6v-18.2A6,6,0,0,0,444.34,194.32Z" fill="#32304e"></path><path d="M427.78,209.26c0-.82-.14-1.49-1-1.49s-1,.67-1,1.49.14,1.49,1,1.49,1-.67,1-1.49m18.55.26a2,2,0,0,1-1.07,1.77l-.86-.52-1.09.65-1.09-.65-1.09.65-1.09-.65-1.09.65-1.09-.65-1.09.65-.08.1h-3.94c-.85,2.16-1.89,3.69-4.36,3.69-3.21,0-4.23-2.6-4.23-5.81s1-5.81,4.23-5.81c2.46,0,3.51,1.53,4.36,3.69h11.58a2,2,0,0,1,1.86,1.26l.11.41a1.93,1.93,0,0,1,0,.34Z" fill="#32304e"></path><path d="M590.29,163.54a4,4,0,0,1,4,4v18.2a4,4,0,0,1-4,4h-18.2a4,4,0,0,1-4-4v-18.2a4,4,0,0,1,4-4h18.2m0-2h-18.2a6,6,0,0,0-6,6v18.2a6,6,0,0,0,6,6h18.2a6,6,0,0,0,6-6v-18.2A6,6,0,0,0,590.29,161.54Z" fill="#32304e"></path><path d="M573.26,185.26v-2.67a3.39,3.39,0,0,0-.15-.9,1,1,0,0,0-.33-.51,1.07,1.07,0,0,0-1.12,0,1,1,0,0,0-.33.51,3.39,3.39,0,0,0-.15.9v2.67a3.39,3.39,0,0,0,.15.89,1,1,0,0,0,.33.5,1.07,1.07,0,0,0,1.12,0,1,1,0,0,0,.33-.5,3.39,3.39,0,0,0,.15-.89m5.57-2a1.18,1.18,0,0,0,.29-.88,1.37,1.37,0,0,0-.25-.9,1,1,0,0,0-.84-.31h-.66v2.37h.7a1,1,0,0,0,.76-.28m14-3.24-1.79,7.8h-2l-1.79-7.8h1.68l1.1,5.76h0l1.16-5.76Zm-.87-3.36h-4.67v-1.79h1.11v-4.3h-1.11V168.8h3.55v6.06H592Zm-.83-9.94a1.41,1.41,0,1,1-1.41-1.41h0a1.41,1.41,0,0,1,1.41,1.41m-4.48,21.1h-1.79l-1.92-5.46h0v5.46H581.5V180h1.81l1.9,5.34h0V180h1.44Zm-6-5.46a2.85,2.85,0,0,1-.18,1,1.94,1.94,0,0,1-.5.73,2.13,2.13,0,0,1-.78.43,3.36,3.36,0,0,1-1,.14h-.84v3.11h-1.6V180h2.75a2.29,2.29,0,0,1,1,.2,1.71,1.71,0,0,1,.66.53,2.08,2.08,0,0,1,.36.75,3.56,3.56,0,0,1,.11.86m-5.82,1.56a14.89,14.89,0,0,1-.08,1.64,3.55,3.55,0,0,1-.36,1.28,2,2,0,0,1-.8.82,3.63,3.63,0,0,1-2.82,0,2,2,0,0,1-.8-.82,3.55,3.55,0,0,1-.36-1.28,16.24,16.24,0,0,1,0-3.27A3.86,3.86,0,0,1,570,181a2,2,0,0,1,.8-.84,3.46,3.46,0,0,1,2.82,0,2,2,0,0,1,.8.84,3.55,3.55,0,0,1,.36,1.28,14.83,14.83,0,0,1,.08,1.63m-1.1-4.45h-1.22v-1.29h1.22Zm-1.88,0h-1.22v-1.29h1.22Z" fill="#32304e"></path><path d="M550.56,163.54a4,4,0,0,1,4,4v18.2a4,4,0,0,1-4,4h-18.2a4,4,0,0,1-4-4v-18.2a4,4,0,0,1,4-4h18.2m0-2h-18.2a6,6,0,0,0-6,6v18.2a6,6,0,0,0,6,6h18.2a6,6,0,0,0,6-6v-18.2A6,6,0,0,0,550.56,161.54Z" fill="#32304e"></path><path d="M551.94,178.28c-.59.1-.77-.71-.77-.71l-1.42-5-.31.08.45,5.46,1.69,10.1H549l-1.38-6.59c-.09-.47-1.06,4.52-1.48,6.55l-2.73.05,1.28-10,.47-5.52-.31-.08-1.42,5s-.18.81-.77.71a1.06,1.06,0,0,1-1-1.13v0a1.14,1.14,0,0,1,.1-.36l1.68-5.56a3.9,3.9,0,0,1,.67-1.08,4.13,4.13,0,0,1,1.57-.67h3.21a4.13,4.13,0,0,1,1.57.67,3.9,3.9,0,0,1,.67,1.08l1.68,5.56a1.07,1.07,0,0,1-.86,1.53M549.26,167a1.94,1.94,0,1,1-1.94-1.94,1.94,1.94,0,0,1,1.94,1.94h0m-9,11.32c-.6.1-.77-.71-.77-.71l-1.42-5-.31.08.45,5.46,1.53,4.79h-2.55c-.12.91-.53,4.12-.63,4.59a1,1,0,0,1-.32.63H535s-.22-.08-.32-.63-.51-3.69-.63-4.59H531.5l1.5-4.74.47-5.52-.31-.08-1.42,5s-.18.81-.77.71a1.06,1.06,0,0,1-1-1.12v0a1,1,0,0,1,.11-.39l1.68-5.56a3.9,3.9,0,0,1,.67-1.08,4.13,4.13,0,0,1,1.57-.67h3.21a4.13,4.13,0,0,1,1.57.67,3.9,3.9,0,0,1,.67,1.08l1.68,5.56a1.06,1.06,0,0,1-.47,1.42,1,1,0,0,1-.39.11M537.61,167a1.94,1.94,0,1,1-1.94-1.94,1.94,1.94,0,0,1,1.94,1.94h0" fill="#32304e"></path><path d="M517.36,163.54a4,4,0,0,1,4,4v18.2a4,4,0,0,1-4,4h-18.2a4,4,0,0,1-4-4v-18.2a4,4,0,0,1,4-4h18.2m0-2h-18.2a6,6,0,0,0-6,6v18.2a6,6,0,0,0,6,6h18.2a6,6,0,0,0,6-6v-18.2A6,6,0,0,0,517.36,161.54Z" fill="#32304e"></path><path d="M509.31,179.74l-3.7.2h0a1.65,1.65,0,0,1-1.6-1.48h0l-.48-1.92a4.81,4.81,0,1,0,5.89,3.4h0l-.05-.18M515.2,168c0,.77.36,1.53,1.22,1.53a1,1,0,0,0,1-1v-.05h.69a1.63,1.63,0,0,1-1.64,1.62h-.07a2.11,2.11,0,0,1,0-4.2,1.57,1.57,0,0,1,1.7,1.37h-.7a1,1,0,0,0-1-.8c-.86,0-1.22.76-1.22,1.53m-1-2-1.11,4h-.71l-.8-3.07h0l-.82,3.07H510l-1-4h.71l.73,3.07h0l.81-3.07H512l.79,3.07h0l.75-3.07ZM506,173.59h3.65a.84.84,0,1,1,0,1.68H507a6.34,6.34,0,0,1,2.23,1.44H512a1.81,1.81,0,0,1,1.7,1.56l.08.18,2.06,5.21v.07a1.29,1.29,0,0,1,.06.48,1.65,1.65,0,0,1-3.21.55h0L511,180.18a1,1,0,0,0-.18-.22,6.32,6.32,0,1,1-7.81-4.9l-.5-2a1.65,1.65,0,1,1,2.91-1.56h0a1.73,1.73,0,0,1,.19.66Zm-.49-5.64a2.2,2.2,0,1,1-2.2-2.2,2.19,2.19,0,0,1,2.2,2.2v0h0" fill="#32304e"></path><path d="M484.16,163.54a4,4,0,0,1,4,4v18.2a4,4,0,0,1-4,4H466a4,4,0,0,1-4-4v-18.2a4,4,0,0,1,4-4h18.2m0-2H466a6,6,0,0,0-6,6v18.2a6,6,0,0,0,6,6h18.2a6,6,0,0,0,6-6v-18.2A6,6,0,0,0,484.2,161.54Z" fill="#32304e"></path><path d="M478.7,186v-1h-2.38v-.83h2.38v-1.24h-2.38v-.83h2.38v-1.25h-2.38V180h2.38v-1.2h-2.38V178h2.38v-1.24h-2.38v-.83h2.38v-1.24h-2.38v-.83h2.38v-1.11a.9.9,0,0,0-.85-.95h-5.6a.9.9,0,0,0-.85.95h0V186a.9.9,0,0,0,.85.95h5.6a.9.9,0,0,0,.85-.95h0m.57,0a1.5,1.5,0,0,1-1.42,1.58h-5.6a1.5,1.5,0,0,1-1.42-1.58h0V172.72a1.56,1.56,0,0,1,1-1.52,1.25,1.25,0,0,1,.3-1c.3-.4,2.1-.79,2.1-1.71s-.88-.79-.93-1.33c-.07-.83.81-1.34,1.42-1.5h.57c.62.16,1.49.67,1.42,1.5,0,.54-.93.42-.93,1.33s1.79,1.3,2.09,1.71a1.25,1.25,0,0,1,.3,1,1.56,1.56,0,0,1,1,1.52Z" fill="#32304e"></path><path d="M623.49,163.54a4,4,0,0,1,4,4v18.2a4,4,0,0,1-4,4h-18.2a4,4,0,0,1-4-4v-18.2a4,4,0,0,1,4-4h18.2m0-2h-18.2a6,6,0,0,0-6,6v18.2a6,6,0,0,0,6,6h18.2a6,6,0,0,0,6-6v-18.2A6,6,0,0,0,623.49,161.54Z" fill="#32304e"></path><path d="M617.74,174.25a4.07,4.07,0,1,0-4.07,4.07,4.07,4.07,0,0,0,4.07-4.07h0m8.09-3.72c-.41,6-4.88,11.19-11.52,11.19-7.51,0-10.41-6.53-10-11.48l2.21-.7a8.72,8.72,0,0,0,1.11,5.78,6.16,6.16,0,1,1,12.17-1.93,5.14,5.14,0,0,1,.06.55v.17a19.06,19.06,0,0,0,.91-4.85Zm-21.26,14.64,2.89-2.93h2.87l-2.89,2.93Zm3.86,0,2.89-2.93h2.87l-2.89,2.93Zm6.42-2.93h2.86l2.89,2.93h-2.87Zm6.76,2.93-2.89-2.93h2.87l2.89,2.93Z" fill="#32304e"></path><path d="M653.32,519.62a4,4,0,0,1,4,4v18.2a4,4,0,0,1-4,4h-18.2a4,4,0,0,1-4-4v-18.2a4,4,0,0,1,4-4h18.2m0-2h-18.2a6,6,0,0,0-6,6v18.2a6,6,0,0,0,6,6h18.2a6,6,0,0,0,6-6v-18.2A6,6,0,0,0,653.32,517.62Z" fill="#32304e"></path><path d="M641.12,533.13h1.65l-.46-1.31c-.2-.57-.32-1-.36-1.12a6.26,6.26,0,0,1-.36,1.12Zm14.42,3H654.1v-7.21h1.44Zm-5.23-3.69,2.3,3.69h-1.72l-.65-1.09q-.33-.56-.78-1.41-.36.72-.78,1.41l-.65,1.09h-1.72l2.29-3.69-2.18-3.52h1.72l.55.93q.33.55.78,1.41.31-.64.78-1.41l.55-.93h1.72Zm-4.88,3.69h-1.59l-.57-1.61h-2.64l-.57,1.61h-1.55l2.76-7.21h1.4ZM638,530.32h-2v5.79h-1.44v-5.79h-2.07V528.9H638Z" fill="#32304e"></path><path d="M717.1,574.59a4,4,0,0,1,4,4v18.2a4,4,0,0,1-4,4H698.9a4,4,0,0,1-4-4v-18.2a4,4,0,0,1,4-4h18.2m0-2H698.9a6,6,0,0,0-6,6v18.2a6,6,0,0,0,6,6h18.2a6,6,0,0,0,6-6v-18.2A6,6,0,0,0,717.1,572.59Z" fill="#32304e"></path><path d="M703.63,586.26h8.93l-1-2.48a.84.84,0,0,0-.78-.52h-5.29a.84.84,0,0,0-.78.52Zm15.92,1.91a.4.4,0,0,1-.18.54h-.81a10.63,10.63,0,0,1-6.9,8.9.41.41,0,0,1-.51-.23l-.1-.25a.4.4,0,0,1,.23-.52h0a9.56,9.56,0,0,0,6.21-7.9H717a.4.4,0,0,1-.4-.4h0a.54.54,0,0,1,0-.18l1.11-2.22a.4.4,0,0,1,.54-.17h0a.46.46,0,0,1,.17.17Zm-1.37-3.5-1,.32a9.55,9.55,0,0,0-8.1-6.79v.52a.4.4,0,0,1-.4.4h-.18L706.26,578a.4.4,0,0,1-.17-.54h0a.46.46,0,0,1,.17-.17l2.22-1.11a.4.4,0,0,1,.54.18h0a.54.54,0,0,1,0,.18v.63a10.6,10.6,0,0,1,9.11,7.54m-13-6.52a.4.4,0,0,1-.24.5h0a9.57,9.57,0,0,0-6.42,8h.5a.4.4,0,0,1,.4.4h0a.54.54,0,0,1,0,.18l-1.11,2.22a.4.4,0,0,1-.54.17h0a.46.46,0,0,1-.17-.17l-1.11-2.22a.4.4,0,0,1,.18-.54h.81a10.62,10.62,0,0,1,7.15-9,.4.4,0,0,1,.5.26l.08.26m8.68,13.67V593a1,1,0,0,1-1.92,0v-1.17h-7.69V593a1,1,0,0,1-1.92.56,1.06,1.06,0,0,1,0-.56v-1.17h-.53a.53.53,0,0,1-.53-.53h0v-4a1.07,1.07,0,0,1,.82-1,.53.53,0,0,0,.37-.31l1.31-3.12a1.07,1.07,0,0,1,1-.65h6.7a1.07,1.07,0,0,1,1,.65l1.31,3.12a.53.53,0,0,0,.37.31,1.07,1.07,0,0,1,.82,1v4a.53.53,0,0,1-.53.53h0Zm-15.91-.73a.4.4,0,0,1,.25-.51h0l.26-.08a.4.4,0,0,1,.5.24h0a9.59,9.59,0,0,0,3.21,4.49,9.47,9.47,0,0,0,5,2v-.55a.4.4,0,0,1,.4-.4h.18L710,597.5a.4.4,0,0,1,.17.54h0a.46.46,0,0,1-.17.17l-2.22,1.11a.4.4,0,0,1-.54-.18h0a.54.54,0,0,1,0-.18v-.61a10.61,10.61,0,0,1-9.26-7.18" fill="#32304e"></path></g></svg>